<svg xmlns="http://www.w3.org/2000/svg"
   height="200" viewBox="0 0 1870 3369">

<path d="M885 2422C649 2422 414 2273 414 1975 414 1683 640 1513 885 1513 1130 1513 1356 1683 1356 1975 1356 2273 1120 2422 885 2422ZM888 2737C1296 2737 1670 2447 1670 1975 1670 1611 1496 1446 1272 1335 1453 1215 1584 1033 1584 696L1584 539 186 539 186 696C186 1033 317 1215 497 1335 274 1446 100 1611 100 1975 100 2494 518 2737 888 2737ZM885 1178C723 1112 576 1028 522 853L1248 853C1194 1028 1047 1112 885 1178Z"/>
</svg>
