<svg xmlns="http://www.w3.org/2000/svg" viewBox="0 0 4794 4794">

<g transform="translate(50,0)">
<path d="M2197 2236L2197 39 1642 39 388 1922 314 1922 314 39 0 39 0 2236 555 2236 1809 353 1883 353 1883 2236Z"/>
</g>

<g transform="translate(2710.5,0)">
<path d="M885 1922C649 1922 414 1773 414 1475 414 1183 640 1013 885 1013 1130 1013 1356 1183 1356 1475 1356 1773 1120 1922 885 1922ZM888 2237C1296 2237 1670 1947 1670 1475 1670 1111 1496 946 1272 835 1453 715 1584 533 1584 196L1584 39 186 39 186 196C186 533 317 715 497 835 274 946 100 1111 100 1475 100 1994 518 2237 888 2237ZM885 678C723 612 576 528 522 353L1248 353C1194 528 1047 612 885 678Z"/>
</g>

<g transform="translate(50,2000)">
<path d="M1138 2736C1620 2736 2038 2485 2197 2022L1857 2022C1716 2297 1441 2422 1138 2422 691 2422 314 2096 314 1638 314 1204 665 853 1099 853 1336 853 1560 959 1709 1144L1952 946C1743 688 1431 539 1099 539 492 539 0 1031 0 1638 0 2268 518 2736 1138 2736Z"/>
</g>

<g transform="translate(2447,2000)">
<path d="M2197 2736L2197 539 1883 539 1883 1167 982 1167C724 1167 489 1267 314 1430L314 539 0 539 0 2736 314 2736 314 2148C314 1781 615 1481 982 1481L1883 1481 1883 2736Z"/>
</g>

</svg>