<svg xmlns="http://www.w3.org/2000/svg" viewBox="0 0 9000 2397">

<rect x="0" y="0" width="9000" height="2297" fill="white"/>

<g transform="translate(50,0)">
<path d="M2197 2243L2197 46 1642 46 388 1969 314 1969 314 46 0 46 0 2243 555 2243 1809 300 1883 300 1883 2243Z" fill="black"/>
</g>

<g transform="translate(2447,0)">
<path d="M885 1969C649 1969 414 1820 414 1522 414 1230 640 1060 885 1060 1130 1060 1356 1230 1356 1522 1356 1820 1120 1969 885 1969ZM888 2304C1296 2304 1670 2014 1670 1522 1670 1158 1496 993 1272 882 1453 762 1584 580 1584 243L1584 46 186 46 186 243C186 580 317 762 497 882 274 993 100 1158 100 1522 100 2031 518 2304 888 2304ZM885 725C723 659 576 575 522 400L1248 400C1194 575 1047 659 885 725Z" fill="black"/>
</g>

<g transform="translate(4317,0)">
<path d="M1138 2243C1620 2243 2038 1992 2197 1529L1857 1529C1716 1804 1441 1929 1138 1929 691 1929 314 1603 314 1155 314 721 665 370 1099 370 1336 370 1560 476 1709 661L1952 463C1743 205 1431 56 1099 56 492 56 0 548 0 1155 0 1785 518 2243 1138 2243Z" fill="black"/>
</g>

<g transform="translate(6714,0)">
<path d="M2197 2243L2197 46 1883 46 1883 673 982 673C724 673 489 773 314 936L314 46 0 46 0 2243 314 2243 314 1655C314 1188 615 888 982 888L1883 888 1883 2243Z" fill="black"/>



</g>
</svg>