<svg xmlns="http://www.w3.org/2000/svg" viewBox="0 0 9000 3000">

<g transform="translate(50,0)">
<path d="M2197 2736L2197 539 1642 539 388 2422 314 2422 314 539 0 539 0 2736 555 2736 1809 853 1883 853 1883 2736Z"/>
</g>

<g transform="translate(2447,0)">
<path d="M885 2422C649 2422 414 2273 414 1975 414 1683 640 1513 885 1513 1130 1513 1356 1683 1356 1975 1356 2273 1120 2422 885 2422ZM888 2737C1296 2737 1670 2447 1670 1975 1670 1611 1496 1446 1272 1335 1453 1215 1584 1033 1584 696L1584 539 186 539 186 696C186 1033 317 1215 497 1335 274 1446 100 1611 100 1975 100 2494 518 2737 888 2737ZM885 1178C723 1112 576 1028 522 853L1248 853C1194 1028 1047 1112 885 1178Z"/>
</g>

<g transform="translate(4317,0)">
<path d="M1138 2736C1620 2736 2038 2485 2197 2022L1857 2022C1716 2297 1441 2422 1138 2422 691 2422 314 2096 314 1638 314 1204 665 853 1099 853 1336 853 1560 959 1709 1144L1952 946C1743 688 1431 539 1099 539 492 539 0 1031 0 1638 0 2268 518 2736 1138 2736Z"/>
</g>

<g transform="translate(6714,0)">
<path d="M2197 2736L2197 539 1883 539 1883 1167 982 1167C724 1167 489 1267 314 1430L314 539 0 539 0 2736 314 2736 314 2148C314 1781 615 1481 982 1481L1883 1481 1883 2736Z"/>
</g>
</svg>