<?xml version="1.0" standalone="no"?>
<!DOCTYPE svg PUBLIC "-//W3C//DTD SVG 20010904//EN"
 "http://www.w3.org/TR/2001/REC-SVG-20010904/DTD/svg10.dtd">
<svg version="1.0" xmlns="http://www.w3.org/2000/svg"
 width="1024.000000pt" height="1024.000000pt" viewBox="0 0 1024.000000 1024.000000"
 preserveAspectRatio="xMidYMid meet">
<g transform="translate(0.000000,1024.000000) scale(0.100000,-0.100000)"
fill="black" stroke="none">
<path d="M1 9398 c2 -762 12 -1736 17 -1548 1 41 7 125 12 185 65 713 280
1185 731 1601 390 360 898 548 1575 582 193 10 -698 22 -1628 22 l-708 0 1
-842z"/>
<path d="M8130 10230 c-195 -3 -319 -6 -275 -8 44 -1 130 -7 190 -12 556 -51
950 -189 1310 -460 108 -82 340 -315 418 -422 286 -387 421 -813 456 -1430 5
-74 9 419 9 1105 l2 1237 -877 -2 c-483 -2 -1038 -5 -1233 -8z"/>
</g>
<g transform="translate(0.000000,1024.000000) scale(0.100000,-0.100000)"
fill="url(#grad)" stroke="none">
<linearGradient id="grad" x1="0%" y1="0%" x2="0%" y2="100%">
  <stop offset="50%" style="stop-color:saddlebrown;stop-opacity:1" />
  <stop offset="100%" style="stop-color:darkgreen;stop-opacity:1" />
</linearGradient>
<path d="M7381 9092 c-6 -11 -11 -29 -11 -38 0 -10 -12 -28 -27 -40 -27 -21
-27 -24 -28 -136 0 -79 -4 -120 -13 -131 -7 -8 -35 -21 -62 -27 -49 -12 -61
-22 -39 -35 14 -9 69 -86 69 -96 0 -5 -17 -13 -37 -19 -64 -17 -67 -22 -42
-66 13 -21 31 -47 41 -57 11 -11 18 -32 18 -57 l0 -40 -61 0 c-33 0 -69 -5
-80 -10 -35 -20 -17 -65 35 -84 18 -6 18 -23 0 -69 -4 -11 6 -22 34 -36 71
-36 69 -40 -60 -110 -54 -29 -100 -56 -103 -61 -3 -6 6 -26 21 -45 17 -23 24
-39 18 -45 -14 -14 -173 -53 -190 -46 -8 3 -14 10 -14 16 0 18 73 91 109 110
49 24 73 54 69 82 -3 20 -8 23 -48 23 -39 -1 -56 -9 -114 -53 -38 -29 -73 -52
-78 -52 -18 0 2 18 62 56 33 22 60 44 60 50 0 21 -58 37 -115 32 -30 -3 -55
-3 -55 -1 0 13 29 55 72 102 69 78 64 115 -8 70 -19 -11 -34 -17 -34 -14 0 4
18 40 40 80 22 40 40 83 40 95 0 20 -3 22 -37 16 -79 -13 -78 -13 -81 22 -2
23 6 50 27 87 28 50 40 112 25 128 -4 3 -28 -12 -55 -35 -27 -23 -52 -38 -55
-35 -4 3 -1 20 5 38 15 42 7 48 -25 18 l-27 -24 9 50 c5 28 9 79 9 115 0 62
-1 65 -22 63 -27 -3 -28 5 -8 54 18 44 19 40 -4 46 -14 3 -22 17 -26 43 -16
91 -32 101 -37 22 -3 -46 -6 -54 -30 -66 -26 -12 -26 -13 -11 -41 19 -33 12
-61 -17 -61 -23 0 -27 -18 -5 -26 23 -9 27 -40 10 -81 -17 -41 -62 -93 -80
-93 -7 0 -20 -9 -29 -19 -17 -19 -17 -21 8 -54 34 -44 33 -60 -6 -92 -18 -14
-41 -33 -51 -41 -18 -14 -17 -16 6 -35 16 -12 28 -34 32 -61 4 -23 13 -50 19
-60 13 -23 0 -33 -53 -42 -49 -8 -101 -41 -101 -65 0 -14 10 -20 38 -25 92
-17 94 -29 12 -93 -33 -25 -60 -49 -60 -53 0 -4 17 -10 39 -14 96 -15 68 -62
-63 -106 -102 -34 -149 -67 -144 -102 2 -17 20 -28 93 -53 157 -54 168 -70 53
-77 -56 -3 -75 -9 -110 -35 -59 -43 -56 -56 17 -65 46 -6 65 -13 80 -32 11
-14 37 -32 58 -41 31 -13 37 -20 37 -46 0 -30 -1 -31 -32 -23 -69 17 -114 10
-161 -24 -61 -43 -69 -40 -22 8 21 22 36 43 32 46 -4 4 -29 9 -57 12 -27 2
-50 5 -50 6 0 26 40 119 66 152 19 25 34 54 34 65 0 17 -8 19 -65 19 -73 0
-82 11 -41 49 35 33 50 74 37 100 -12 21 -28 19 -82 -9 -23 -13 -25 -2 -7 48
11 30 11 35 -5 47 -15 11 -17 17 -7 35 10 19 9 20 -16 14 -27 -7 -27 -7 -21
35 4 34 1 47 -14 62 -10 10 -19 33 -19 50 0 89 -68 -62 -79 -177 -9 -81 -12
-90 -45 -98 -14 -3 -38 -11 -53 -17 -25 -9 -26 -11 -10 -21 15 -8 57 -85 57
-103 0 -2 -21 -5 -47 -7 -62 -4 -67 -25 -14 -62 45 -32 75 -84 60 -103 -6 -7
-36 -13 -67 -15 -56 -3 -57 -3 -62 -38 -9 -56 6 -96 45 -120 19 -12 35 -25 35
-30 0 -11 -135 -52 -193 -58 -36 -3 -52 0 -67 13 -11 10 -20 22 -20 27 0 5 36
46 80 92 44 46 80 86 80 90 0 10 -70 -4 -103 -21 -15 -7 -55 -32 -89 -53 -34
-22 -66 -40 -72 -40 -6 0 15 25 47 55 69 68 75 90 18 81 -68 -11 -63 21 15
106 63 68 57 89 -18 64 -66 -23 -69 -7 -13 74 34 50 45 74 38 81 -8 8 -20 6
-41 -5 -37 -19 -64 -20 -80 -4 -19 19 -15 33 33 102 68 100 55 145 -27 91 -39
-26 -42 -27 -55 -9 -17 23 -16 35 4 85 13 34 14 45 4 61 -7 11 -10 32 -6 49 5
22 3 29 -8 29 -27 0 -37 23 -22 50 19 34 18 47 -4 53 -14 3 -22 20 -31 61 -18
87 -30 84 -45 -12 -4 -24 -13 -46 -20 -48 -10 -4 -12 -25 -8 -84 5 -71 4 -79
-14 -89 -17 -9 -19 -18 -15 -60 l4 -49 -38 -11 c-22 -6 -45 -11 -51 -11 -21 0
-14 -23 17 -60 17 -19 30 -40 30 -47 0 -8 -21 -23 -46 -33 -65 -28 -54 -54 41
-94 6 -2 -8 -20 -29 -39 l-40 -34 47 -11 c52 -14 64 -26 46 -48 -10 -13 -25
-15 -76 -9 -58 6 -64 5 -88 -19 -31 -31 -32 -59 -3 -86 l22 -20 -39 -40 -39
-40 69 0 c88 0 105 -9 82 -43 -17 -27 -84 -47 -155 -47 -41 0 -63 -12 -136
-77 -43 -38 -51 -42 -64 -30 -19 20 -4 46 47 82 23 15 41 32 41 36 0 5 -27 9
-59 9 -33 0 -63 5 -66 10 -4 6 23 42 59 81 36 39 66 76 66 81 0 7 -13 8 -32 3
-62 -13 -108 -18 -108 -11 0 18 32 64 65 93 26 23 35 39 33 55 -3 25 -16 27
-83 9 -29 -7 -42 -7 -48 2 -14 21 -1 90 32 165 52 117 27 145 -61 68 -56 -49
-71 -52 -76 -19 -2 16 31 105 55 146 2 4 -14 26 -36 49 -45 45 -47 54 -26 82
21 28 19 44 -7 48 -20 3 -24 11 -30 67 -4 35 -9 66 -12 68 -2 3 -14 -28 -26
-67 -15 -52 -27 -74 -41 -77 -23 -6 -24 -22 -4 -49 20 -26 19 -41 -4 -47 -15
-3 -18 -12 -15 -45 1 -22 7 -49 13 -60 21 -40 12 -51 -69 -92 -44 -22 -80 -44
-80 -48 0 -4 20 -31 45 -59 l45 -51 -50 -11 c-28 -6 -57 -11 -64 -11 -8 0 -19
-6 -25 -14 -19 -23 27 -78 76 -91 l42 -10 -39 -33 c-55 -46 -53 -66 5 -60 51
6 62 -11 23 -36 -17 -11 -145 -36 -184 -36 -11 0 -1 -28 20 -53 22 -28 23 -30
8 -83 -9 -30 -12 -57 -9 -61 4 -3 30 1 58 10 56 18 89 22 89 9 0 -32 -138
-114 -267 -157 l-83 -28 18 -31 c12 -21 34 -37 67 -49 28 -11 75 -31 105 -45
l55 -26 -35 -6 c-52 -9 -107 -39 -135 -72 -14 -16 -25 -33 -25 -38 0 -19 31
-38 72 -44 30 -5 54 -18 81 -44 43 -42 47 -55 11 -42 -34 13 -64 12 -94 -4
-22 -11 -30 -10 -62 6 -48 24 -56 54 -35 134 10 34 17 76 17 93 0 28 -2 30
-29 25 -25 -5 -32 -2 -45 24 -12 23 -13 37 -6 57 6 15 10 38 10 52 0 25 -2 25
-46 19 l-46 -6 7 40 c5 32 -1 64 -32 155 -21 63 -42 113 -47 112 -5 -2 -22
-56 -38 -122 -30 -126 -40 -143 -102 -182 l-38 -25 26 -27 c33 -35 33 -45 -4
-71 -21 -15 -30 -30 -30 -48 0 -52 11 -69 52 -85 57 -23 45 -41 -33 -47 l-64
-5 -18 -70 c-17 -69 -17 -70 3 -87 16 -13 27 -14 53 -7 40 11 50 11 43 0 -3
-5 -58 -25 -121 -46 -139 -44 -143 -54 -55 -116 33 -23 60 -45 60 -49 0 -5
-19 -14 -42 -22 -23 -7 -43 -18 -45 -23 -2 -6 18 -35 43 -65 l47 -55 -6 -1588
c-3 -874 -7 -1590 -10 -1593 -2 -2 -43 20 -90 49 -93 59 -197 104 -322 139
-71 21 -101 23 -280 23 -176 -1 -210 -3 -280 -23 -44 -12 -89 -26 -100 -31
-192 -85 -288 -147 -395 -254 -97 -95 -147 -161 -204 -268 -97 -181 -129 -314
-130 -534 0 -130 4 -176 22 -246 43 -173 101 -295 203 -429 110 -144 233 -246
391 -323 313 -153 679 -155 984 -6 310 153 522 419 604 759 20 82 21 122 27
1167 l6 1081 56 21 c152 55 283 172 346 308 62 132 85 173 178 313 49 74 111
182 139 240 131 275 160 328 205 379 48 54 108 90 152 91 71 0 180 -88 292
-238 245 -326 342 -399 464 -348 75 32 309 210 356 271 39 52 76 142 103 247
12 52 28 103 33 113 19 33 522 551 563 580 109 76 215 72 328 -12 88 -65 434
-361 662 -565 41 -38 78 -68 82 -68 5 0 8 505 8 1123 l0 1124 25 49 c14 27 28
64 31 81 7 36 -2 83 -15 83 -4 0 -36 -22 -70 -50 -64 -51 -76 -56 -100 -41
-18 12 -8 27 93 141 42 47 76 88 76 93 0 4 -22 7 -49 7 -26 0 -76 3 -110 6
-77 9 -80 25 -15 94 57 61 55 86 -6 76 -52 -8 -52 6 0 72 22 27 40 54 40 60 0
13 -26 23 -45 16 -8 -3 -25 6 -40 20 -35 35 -33 75 5 111 33 32 38 56 15 75
-12 10 -20 9 -39 -3 -16 -11 -36 -14 -60 -10 -40 6 -40 5 -26 108 6 53 5 63
-13 83 -20 22 -20 23 -3 53 17 30 17 30 -8 50 -18 14 -26 30 -26 52 0 18 -4
38 -9 46 -7 11 -11 10 -20 -7z m-173 -1203 c3 -29 -20 -54 -43 -45 -15 5 -21
57 -8 70 16 16 48 1 51 -25z m-240 -207 c-25 -27 -51 -58 -57 -70 -6 -12 -19
-22 -29 -22 -21 1 -56 28 -71 57 -16 31 14 47 57 32 26 -9 37 -6 84 20 29 17
55 31 57 31 2 0 -17 -22 -41 -48z m192 -22 c0 -5 12 -10 26 -10 22 0 25 -4 22
-27 -3 -24 -8 -28 -41 -31 -44 -4 -57 16 -37 54 14 24 30 32 30 14z m-135
-194 c18 -8 39 -24 45 -36 13 -23 13 -23 118 -4 41 8 42 -9 2 -64 -34 -48 -55
-60 -126 -77 -68 -16 -77 0 -34 58 16 22 27 44 24 49 -8 12 -65 2 -110 -19
-27 -13 -36 -14 -49 -3 -21 18 -20 23 25 69 44 45 54 48 105 27z m-726 -249
c16 -20 -13 -43 -68 -56 -24 -5 -57 -22 -75 -39 -31 -29 -56 -33 -56 -7 0 13
76 81 115 103 27 16 70 15 84 -1z m-668 -217 c39 -21 22 -37 -45 -42 -45 -3
-71 -10 -85 -23 -12 -10 -24 -15 -27 -12 -14 14 26 52 72 68 60 21 61 21 85 9z
m-674 -246 c17 -26 16 -27 -15 -55 -54 -48 -101 -49 -102 0 0 17 67 81 85 81
8 0 22 -12 32 -26z m-184 -31 c24 -14 -31 -70 -58 -59 -21 8 -31 56 -14 67 12
7 52 3 72 -8z m-698 -183 c-4 -6 -33 -33 -66 -60 -57 -47 -63 -50 -118 -50
-76 0 -98 22 -67 65 14 19 15 19 35 1 21 -19 22 -19 89 8 37 14 74 31 82 36
20 13 53 13 45 0z"/>
</g>
<g transform="translate(0.000000,1024.000000) scale(0.100000,-0.100000)"
fill="saddlebrown" stroke="none">
<path d="M6833 6050 c-34 -14 -49 -46 -82 -170 -87 -327 -81 -433 31 -555 39
-43 71 -65 144 -100 52 -25 136 -65 187 -89 153 -74 229 -167 262 -321 32
-153 11 -455 -45 -650 -26 -89 -80 -215 -92 -215 -5 0 -46 18 -92 40 -175 85
-324 120 -510 120 -517 0 -957 -343 -1087 -847 -26 -101 -35 -299 -20 -423 48
-391 323 -740 701 -888 157 -62 338 -88 498 -72 281 28 503 131 697 325 148
147 243 315 299 527 l26 98 0 1254 0 1253 -237 234 c-296 292 -421 397 -540
457 -49 26 -110 35 -140 22z"/>
</g>
<g transform="translate(0.000000,1024.000000) scale(0.100000,-0.100000)"
fill="black" stroke="none">
<path d="M10227 2353 c-20 -626 -187 -1123 -509 -1521 -88 -110 -238 -255
-348 -339 -402 -305 -830 -446 -1456 -482 -83 -5 356 -9 1094 -10 l1232 -1 0
1265 c0 696 -2 1265 -3 1265 -2 0 -7 -80 -10 -177z"/>
<path d="M7 1935 c-4 -286 -7 -838 -7 -1227 l0 -708 1238 2 c693 0 1178 4
1103 9 -622 35 -1057 176 -1446 469 -105 80 -327 303 -407 410 -290 387 -436
836 -466 1425 -6 109 -9 23 -15 -380z"/>
</g>
</svg>
