  0
SECTION
  2
HEADER
  9
$ACADVER
  1
AC1009
  9
$EXTMIN
 10
0.0
 20
0.0
 30
0.0
  9
$EXTMAX
 10
1000.0
 20
1000.0
 30
0.0
  9
$FILLMODE
 70
 0
  9
$SPLFRAME
 70
 1
  0
ENDSEC
  0
SECTION
  2
TABLES
  0
TABLE
  2
LAYER
 70
1
  0
LAYER
  2
0
 70
     0
 62
     7
  6
CONTINUOUS
  0
ENDTAB
  0
ENDSEC
  0
SECTION
  2
ENTITIES
  0
LINE
  8
0
 62
     7
 10
3.13228
 20
54.1129
 30
0.0
 11
82.732
 21
54.1129
 31
0.0
  0
LINE
  8
0
 62
     7
 10
82.732
 20
54.1129
 30
0.0
 11
83.0241
 21
54.1129
 31
0.0
  0
LINE
  8
0
 62
     7
 10
83.0241
 20
54.1129
 30
0.0
 11
83.9004
 21
53.8787
 31
0.0
  0
LINE
  8
0
 62
     7
 10
83.9004
 20
53.8787
 30
0.0
 11
84.854
 21
53.2363
 31
0.0
  0
LINE
  8
0
 62
     7
 10
84.854
 20
53.2363
 30
0.0
 11
85.4964
 21
52.2827
 31
0.0
  0
LINE
  8
0
 62
     7
 10
85.4964
 20
52.2827
 30
0.0
 11
85.7321
 21
51.4064
 31
0.0
  0
LINE
  8
0
 62
     7
 10
85.7321
 20
51.4064
 30
0.0
 11
85.7321
 21
51.1129
 31
0.0
  0
LINE
  8
0
 62
     7
 10
85.7321
 20
51.1129
 30
0.0
 11
85.7321
 21
3.13228
 31
0.0
  0
LINE
  8
0
 62
     7
 10
85.7321
 20
3.13228
 30
0.0
 11
85.7321
 21
2.84014
 31
0.0
  0
LINE
  8
0
 62
     7
 10
85.7321
 20
2.84014
 30
0.0
 11
85.4964
 21
1.96371
 31
0.0
  0
LINE
  8
0
 62
     7
 10
85.4964
 20
1.96371
 30
0.0
 11
84.854
 21
1.0101
 31
0.0
  0
LINE
  8
0
 62
     7
 10
84.854
 20
1.0101
 30
0.0
 11
83.9004
 21
0.367937
 31
0.0
  0
LINE
  8
0
 62
     7
 10
83.9004
 20
0.367937
 30
0.0
 11
83.0241
 21
0.132292
 31
0.0
  0
LINE
  8
0
 62
     7
 10
83.0241
 20
0.132292
 30
0.0
 11
82.732
 21
0.132292
 31
0.0
  0
LINE
  8
0
 62
     7
 10
82.732
 20
0.132292
 30
0.0
 11
3.13228
 21
0.132292
 31
0.0
  0
LINE
  8
0
 62
     7
 10
3.13228
 20
0.132292
 30
0.0
 11
2.83876
 21
0.132292
 31
0.0
  0
LINE
  8
0
 62
     7
 10
2.83876
 20
0.132292
 30
0.0
 11
1.96233
 21
0.367937
 31
0.0
  0
LINE
  8
0
 62
     7
 10
1.96233
 20
0.367937
 30
0.0
 11
1.00873
 21
1.0101
 31
0.0
  0
LINE
  8
0
 62
     7
 10
1.00873
 20
1.0101
 30
0.0
 11
0.366557
 21
1.96371
 31
0.0
  0
LINE
  8
0
 62
     7
 10
0.366557
 20
1.96371
 30
0.0
 11
0.132292
 21
2.84014
 31
0.0
  0
LINE
  8
0
 62
     7
 10
0.132292
 20
2.84014
 30
0.0
 11
0.132292
 21
3.13228
 31
0.0
  0
LINE
  8
0
 62
     7
 10
0.132292
 20
3.13228
 30
0.0
 11
0.132292
 21
51.1129
 31
0.0
  0
LINE
  8
0
 62
     7
 10
0.132292
 20
51.1129
 30
0.0
 11
0.132292
 21
51.4064
 31
0.0
  0
LINE
  8
0
 62
     7
 10
0.132292
 20
51.4064
 30
0.0
 11
0.366557
 21
52.2827
 31
0.0
  0
LINE
  8
0
 62
     7
 10
0.366557
 20
52.2827
 30
0.0
 11
1.00873
 21
53.2363
 31
0.0
  0
LINE
  8
0
 62
     7
 10
1.00873
 20
53.2363
 30
0.0
 11
1.96233
 21
53.8787
 31
0.0
  0
LINE
  8
0
 62
     7
 10
1.96233
 20
53.8787
 30
0.0
 11
2.83876
 21
54.1129
 31
0.0
  0
LINE
  8
0
 62
     7
 10
2.83876
 20
54.1129
 30
0.0
 11
3.13228
 21
54.1129
 31
0.0
  0
LINE
  8
0
 62
     0
 10
3.13228
 20
54.1129
 30
0.0
 11
82.732
 21
54.1129
 31
0.0
  0
LINE
  8
0
 62
     0
 10
82.732
 20
54.1129
 30
0.0
 11
83.0241
 21
54.1129
 31
0.0
  0
LINE
  8
0
 62
     0
 10
83.0241
 20
54.1129
 30
0.0
 11
83.9004
 21
53.8787
 31
0.0
  0
LINE
  8
0
 62
     0
 10
83.9004
 20
53.8787
 30
0.0
 11
84.854
 21
53.2363
 31
0.0
  0
LINE
  8
0
 62
     0
 10
84.854
 20
53.2363
 30
0.0
 11
85.4964
 21
52.2827
 31
0.0
  0
LINE
  8
0
 62
     0
 10
85.4964
 20
52.2827
 30
0.0
 11
85.7321
 21
51.4064
 31
0.0
  0
LINE
  8
0
 62
     0
 10
85.7321
 20
51.4064
 30
0.0
 11
85.7321
 21
51.1129
 31
0.0
  0
LINE
  8
0
 62
     0
 10
85.7321
 20
51.1129
 30
0.0
 11
85.7321
 21
3.13228
 31
0.0
  0
LINE
  8
0
 62
     0
 10
85.7321
 20
3.13228
 30
0.0
 11
85.7321
 21
2.84014
 31
0.0
  0
LINE
  8
0
 62
     0
 10
85.7321
 20
2.84014
 30
0.0
 11
85.4964
 21
1.96371
 31
0.0
  0
LINE
  8
0
 62
     0
 10
85.4964
 20
1.96371
 30
0.0
 11
84.854
 21
1.0101
 31
0.0
  0
LINE
  8
0
 62
     0
 10
84.854
 20
1.0101
 30
0.0
 11
83.9004
 21
0.367937
 31
0.0
  0
LINE
  8
0
 62
     0
 10
83.9004
 20
0.367937
 30
0.0
 11
83.0241
 21
0.132292
 31
0.0
  0
LINE
  8
0
 62
     0
 10
83.0241
 20
0.132292
 30
0.0
 11
82.732
 21
0.132292
 31
0.0
  0
LINE
  8
0
 62
     0
 10
82.732
 20
0.132292
 30
0.0
 11
3.13228
 21
0.132292
 31
0.0
  0
LINE
  8
0
 62
     0
 10
3.13228
 20
0.132292
 30
0.0
 11
2.83876
 21
0.132292
 31
0.0
  0
LINE
  8
0
 62
     0
 10
2.83876
 20
0.132292
 30
0.0
 11
1.96233
 21
0.367937
 31
0.0
  0
LINE
  8
0
 62
     0
 10
1.96233
 20
0.367937
 30
0.0
 11
1.00873
 21
1.0101
 31
0.0
  0
LINE
  8
0
 62
     0
 10
1.00873
 20
1.0101
 30
0.0
 11
0.366557
 21
1.96371
 31
0.0
  0
LINE
  8
0
 62
     0
 10
0.366557
 20
1.96371
 30
0.0
 11
0.132292
 21
2.84014
 31
0.0
  0
LINE
  8
0
 62
     0
 10
0.132292
 20
2.84014
 30
0.0
 11
0.132292
 21
3.13228
 31
0.0
  0
LINE
  8
0
 62
     0
 10
0.132292
 20
3.13228
 30
0.0
 11
0.132292
 21
51.1129
 31
0.0
  0
LINE
  8
0
 62
     0
 10
0.132292
 20
51.1129
 30
0.0
 11
0.132292
 21
51.4064
 31
0.0
  0
LINE
  8
0
 62
     0
 10
0.132292
 20
51.4064
 30
0.0
 11
0.366557
 21
52.2827
 31
0.0
  0
LINE
  8
0
 62
     0
 10
0.366557
 20
52.2827
 30
0.0
 11
1.00873
 21
53.2363
 31
0.0
  0
LINE
  8
0
 62
     0
 10
1.00873
 20
53.2363
 30
0.0
 11
1.96233
 21
53.8787
 31
0.0
  0
LINE
  8
0
 62
     0
 10
1.96233
 20
53.8787
 30
0.0
 11
2.83876
 21
54.1129
 31
0.0
  0
LINE
  8
0
 62
     0
 10
2.83876
 20
54.1129
 30
0.0
 11
3.13228
 21
54.1129
 31
0.0
  0
LINE
  8
0
 62
     7
 10
5.81258
 20
43.4026
 30
0.0
 11
35.0518
 21
43.4026
 31
0.0
  0
LINE
  8
0
 62
     7
 10
35.0518
 20
43.4026
 30
0.0
 11
35.3441
 21
43.4026
 31
0.0
  0
LINE
  8
0
 62
     7
 10
35.3441
 20
43.4026
 30
0.0
 11
36.2204
 21
43.1684
 31
0.0
  0
LINE
  8
0
 62
     7
 10
36.2204
 20
43.1684
 30
0.0
 11
37.174
 21
42.5263
 31
0.0
  0
LINE
  8
0
 62
     7
 10
37.174
 20
42.5263
 30
0.0
 11
37.816
 21
41.5727
 31
0.0
  0
LINE
  8
0
 62
     7
 10
37.816
 20
41.5727
 30
0.0
 11
38.0517
 21
40.6961
 31
0.0
  0
LINE
  8
0
 62
     7
 10
38.0517
 20
40.6961
 30
0.0
 11
38.0517
 21
40.4026
 31
0.0
  0
LINE
  8
0
 62
     7
 10
38.0517
 20
40.4026
 30
0.0
 11
38.0517
 21
40.1105
 31
0.0
  0
LINE
  8
0
 62
     7
 10
38.0517
 20
40.1105
 30
0.0
 11
37.816
 21
39.2342
 31
0.0
  0
LINE
  8
0
 62
     7
 10
37.816
 20
39.2342
 30
0.0
 11
37.174
 21
38.2806
 31
0.0
  0
LINE
  8
0
 62
     7
 10
37.174
 20
38.2806
 30
0.0
 11
36.2204
 21
37.6382
 31
0.0
  0
LINE
  8
0
 62
     7
 10
36.2204
 20
37.6382
 30
0.0
 11
35.3441
 21
37.4026
 31
0.0
  0
LINE
  8
0
 62
     7
 10
35.3441
 20
37.4026
 30
0.0
 11
35.0518
 21
37.4026
 31
0.0
  0
LINE
  8
0
 62
     7
 10
35.0518
 20
37.4026
 30
0.0
 11
5.81258
 21
37.4026
 31
0.0
  0
LINE
  8
0
 62
     7
 10
5.81258
 20
37.4026
 30
0.0
 11
5.51903
 21
37.4026
 31
0.0
  0
LINE
  8
0
 62
     7
 10
5.51903
 20
37.4026
 30
0.0
 11
4.64263
 21
37.6382
 31
0.0
  0
LINE
  8
0
 62
     7
 10
4.64263
 20
37.6382
 30
0.0
 11
3.689
 21
38.2806
 31
0.0
  0
LINE
  8
0
 62
     7
 10
3.689
 20
38.2806
 30
0.0
 11
3.04684
 21
39.2342
 31
0.0
  0
LINE
  8
0
 62
     7
 10
3.04684
 20
39.2342
 30
0.0
 11
2.81258
 21
40.1105
 31
0.0
  0
LINE
  8
0
 62
     7
 10
2.81258
 20
40.1105
 30
0.0
 11
2.81258
 21
40.4026
 31
0.0
  0
LINE
  8
0
 62
     7
 10
2.81258
 20
40.4026
 30
0.0
 11
2.81258
 21
40.6961
 31
0.0
  0
LINE
  8
0
 62
     7
 10
2.81258
 20
40.6961
 30
0.0
 11
3.04684
 21
41.5727
 31
0.0
  0
LINE
  8
0
 62
     7
 10
3.04684
 20
41.5727
 30
0.0
 11
3.689
 21
42.5263
 31
0.0
  0
LINE
  8
0
 62
     7
 10
3.689
 20
42.5263
 30
0.0
 11
4.64263
 21
43.1684
 31
0.0
  0
LINE
  8
0
 62
     7
 10
4.64263
 20
43.1684
 30
0.0
 11
5.51903
 21
43.4026
 31
0.0
  0
LINE
  8
0
 62
     7
 10
5.51903
 20
43.4026
 30
0.0
 11
5.81258
 21
43.4026
 31
0.0
  0
LINE
  8
0
 62
     0
 10
5.81258
 20
43.4026
 30
0.0
 11
35.0518
 21
43.4026
 31
0.0
  0
LINE
  8
0
 62
     0
 10
35.0518
 20
43.4026
 30
0.0
 11
35.3441
 21
43.4026
 31
0.0
  0
LINE
  8
0
 62
     0
 10
35.3441
 20
43.4026
 30
0.0
 11
36.2204
 21
43.1684
 31
0.0
  0
LINE
  8
0
 62
     0
 10
36.2204
 20
43.1684
 30
0.0
 11
37.174
 21
42.5263
 31
0.0
  0
LINE
  8
0
 62
     0
 10
37.174
 20
42.5263
 30
0.0
 11
37.816
 21
41.5727
 31
0.0
  0
LINE
  8
0
 62
     0
 10
37.816
 20
41.5727
 30
0.0
 11
38.0517
 21
40.6961
 31
0.0
  0
LINE
  8
0
 62
     0
 10
38.0517
 20
40.6961
 30
0.0
 11
38.0517
 21
40.4026
 31
0.0
  0
LINE
  8
0
 62
     0
 10
38.0517
 20
40.4026
 30
0.0
 11
38.0517
 21
40.1105
 31
0.0
  0
LINE
  8
0
 62
     0
 10
38.0517
 20
40.1105
 30
0.0
 11
37.816
 21
39.2342
 31
0.0
  0
LINE
  8
0
 62
     0
 10
37.816
 20
39.2342
 30
0.0
 11
37.174
 21
38.2806
 31
0.0
  0
LINE
  8
0
 62
     0
 10
37.174
 20
38.2806
 30
0.0
 11
36.2204
 21
37.6382
 31
0.0
  0
LINE
  8
0
 62
     0
 10
36.2204
 20
37.6382
 30
0.0
 11
35.3441
 21
37.4026
 31
0.0
  0
LINE
  8
0
 62
     0
 10
35.3441
 20
37.4026
 30
0.0
 11
35.0518
 21
37.4026
 31
0.0
  0
LINE
  8
0
 62
     0
 10
35.0518
 20
37.4026
 30
0.0
 11
5.81258
 21
37.4026
 31
0.0
  0
LINE
  8
0
 62
     0
 10
5.81258
 20
37.4026
 30
0.0
 11
5.51903
 21
37.4026
 31
0.0
  0
LINE
  8
0
 62
     0
 10
5.51903
 20
37.4026
 30
0.0
 11
4.64263
 21
37.6382
 31
0.0
  0
LINE
  8
0
 62
     0
 10
4.64263
 20
37.6382
 30
0.0
 11
3.689
 21
38.2806
 31
0.0
  0
LINE
  8
0
 62
     0
 10
3.689
 20
38.2806
 30
0.0
 11
3.04684
 21
39.2342
 31
0.0
  0
LINE
  8
0
 62
     0
 10
3.04684
 20
39.2342
 30
0.0
 11
2.81258
 21
40.1105
 31
0.0
  0
LINE
  8
0
 62
     0
 10
2.81258
 20
40.1105
 30
0.0
 11
2.81258
 21
40.4026
 31
0.0
  0
LINE
  8
0
 62
     0
 10
2.81258
 20
40.4026
 30
0.0
 11
2.81258
 21
40.6961
 31
0.0
  0
LINE
  8
0
 62
     0
 10
2.81258
 20
40.6961
 30
0.0
 11
3.04684
 21
41.5727
 31
0.0
  0
LINE
  8
0
 62
     0
 10
3.04684
 20
41.5727
 30
0.0
 11
3.689
 21
42.5263
 31
0.0
  0
LINE
  8
0
 62
     0
 10
3.689
 20
42.5263
 30
0.0
 11
4.64263
 21
43.1684
 31
0.0
  0
LINE
  8
0
 62
     0
 10
4.64263
 20
43.1684
 30
0.0
 11
5.51903
 21
43.4026
 31
0.0
  0
LINE
  8
0
 62
     0
 10
5.51903
 20
43.4026
 30
0.0
 11
5.81258
 21
43.4026
 31
0.0
  0
LINE
  8
0
 62
     7
 10
5.81258
 20
34.6935
 30
0.0
 11
35.0518
 21
34.6935
 31
0.0
  0
LINE
  8
0
 62
     7
 10
35.0518
 20
34.6935
 30
0.0
 11
35.3441
 21
34.6935
 31
0.0
  0
LINE
  8
0
 62
     7
 10
35.3441
 20
34.6935
 30
0.0
 11
36.2204
 21
34.4592
 31
0.0
  0
LINE
  8
0
 62
     7
 10
36.2204
 20
34.4592
 30
0.0
 11
37.174
 21
33.8171
 31
0.0
  0
LINE
  8
0
 62
     7
 10
37.174
 20
33.8171
 30
0.0
 11
37.816
 21
32.8635
 31
0.0
  0
LINE
  8
0
 62
     7
 10
37.816
 20
32.8635
 30
0.0
 11
38.0517
 21
31.9843
 31
0.0
  0
LINE
  8
0
 62
     7
 10
38.0517
 20
31.9843
 30
0.0
 11
38.0517
 21
31.6907
 31
0.0
  0
LINE
  8
0
 62
     7
 10
38.0517
 20
31.6907
 30
0.0
 11
38.0517
 21
31.3986
 31
0.0
  0
LINE
  8
0
 62
     7
 10
38.0517
 20
31.3986
 30
0.0
 11
37.816
 21
30.5222
 31
0.0
  0
LINE
  8
0
 62
     7
 10
37.816
 20
30.5222
 30
0.0
 11
37.174
 21
29.5699
 31
0.0
  0
LINE
  8
0
 62
     7
 10
37.174
 20
29.5699
 30
0.0
 11
36.2204
 21
28.9278
 31
0.0
  0
LINE
  8
0
 62
     7
 10
36.2204
 20
28.9278
 30
0.0
 11
35.3441
 21
28.6921
 31
0.0
  0
LINE
  8
0
 62
     7
 10
35.3441
 20
28.6921
 30
0.0
 11
35.0518
 21
28.6921
 31
0.0
  0
LINE
  8
0
 62
     7
 10
35.0518
 20
28.6921
 30
0.0
 11
5.81258
 21
28.6921
 31
0.0
  0
LINE
  8
0
 62
     7
 10
5.81258
 20
28.6921
 30
0.0
 11
5.51903
 21
28.6921
 31
0.0
  0
LINE
  8
0
 62
     7
 10
5.51903
 20
28.6921
 30
0.0
 11
4.64263
 21
28.9278
 31
0.0
  0
LINE
  8
0
 62
     7
 10
4.64263
 20
28.9278
 30
0.0
 11
3.689
 21
29.5699
 31
0.0
  0
LINE
  8
0
 62
     7
 10
3.689
 20
29.5699
 30
0.0
 11
3.04684
 21
30.5222
 31
0.0
  0
LINE
  8
0
 62
     7
 10
3.04684
 20
30.5222
 30
0.0
 11
2.81258
 21
31.3986
 31
0.0
  0
LINE
  8
0
 62
     7
 10
2.81258
 20
31.3986
 30
0.0
 11
2.81258
 21
31.6907
 31
0.0
  0
LINE
  8
0
 62
     7
 10
2.81258
 20
31.6907
 30
0.0
 11
2.81258
 21
31.9843
 31
0.0
  0
LINE
  8
0
 62
     7
 10
2.81258
 20
31.9843
 30
0.0
 11
3.04684
 21
32.8635
 31
0.0
  0
LINE
  8
0
 62
     7
 10
3.04684
 20
32.8635
 30
0.0
 11
3.689
 21
33.8171
 31
0.0
  0
LINE
  8
0
 62
     7
 10
3.689
 20
33.8171
 30
0.0
 11
4.64263
 21
34.4592
 31
0.0
  0
LINE
  8
0
 62
     7
 10
4.64263
 20
34.4592
 30
0.0
 11
5.51903
 21
34.6935
 31
0.0
  0
LINE
  8
0
 62
     7
 10
5.51903
 20
34.6935
 30
0.0
 11
5.81258
 21
34.6935
 31
0.0
  0
LINE
  8
0
 62
     0
 10
5.81258
 20
34.6935
 30
0.0
 11
35.0518
 21
34.6935
 31
0.0
  0
LINE
  8
0
 62
     0
 10
35.0518
 20
34.6935
 30
0.0
 11
35.3441
 21
34.6935
 31
0.0
  0
LINE
  8
0
 62
     0
 10
35.3441
 20
34.6935
 30
0.0
 11
36.2204
 21
34.4592
 31
0.0
  0
LINE
  8
0
 62
     0
 10
36.2204
 20
34.4592
 30
0.0
 11
37.174
 21
33.8171
 31
0.0
  0
LINE
  8
0
 62
     0
 10
37.174
 20
33.8171
 30
0.0
 11
37.816
 21
32.8635
 31
0.0
  0
LINE
  8
0
 62
     0
 10
37.816
 20
32.8635
 30
0.0
 11
38.0517
 21
31.9857
 31
0.0
  0
LINE
  8
0
 62
     0
 10
38.0517
 20
31.9857
 30
0.0
 11
38.0517
 21
31.6921
 31
0.0
  0
LINE
  8
0
 62
     0
 10
38.0517
 20
31.6921
 30
0.0
 11
38.0517
 21
31.4
 31
0.0
  0
LINE
  8
0
 62
     0
 10
38.0517
 20
31.4
 30
0.0
 11
37.816
 21
30.5235
 31
0.0
  0
LINE
  8
0
 62
     0
 10
37.816
 20
30.5235
 30
0.0
 11
37.174
 21
29.5699
 31
0.0
  0
LINE
  8
0
 62
     0
 10
37.174
 20
29.5699
 30
0.0
 11
36.2204
 21
28.9278
 31
0.0
  0
LINE
  8
0
 62
     0
 10
36.2204
 20
28.9278
 30
0.0
 11
35.3441
 21
28.6921
 31
0.0
  0
LINE
  8
0
 62
     0
 10
35.3441
 20
28.6921
 30
0.0
 11
35.0518
 21
28.6921
 31
0.0
  0
LINE
  8
0
 62
     0
 10
35.0518
 20
28.6921
 30
0.0
 11
5.81258
 21
28.6921
 31
0.0
  0
LINE
  8
0
 62
     0
 10
5.81258
 20
28.6921
 30
0.0
 11
5.51903
 21
28.6921
 31
0.0
  0
LINE
  8
0
 62
     0
 10
5.51903
 20
28.6921
 30
0.0
 11
4.64263
 21
28.9278
 31
0.0
  0
LINE
  8
0
 62
     0
 10
4.64263
 20
28.9278
 30
0.0
 11
3.689
 21
29.5699
 31
0.0
  0
LINE
  8
0
 62
     0
 10
3.689
 20
29.5699
 30
0.0
 11
3.04684
 21
30.5235
 31
0.0
  0
LINE
  8
0
 62
     0
 10
3.04684
 20
30.5235
 30
0.0
 11
2.81258
 21
31.4
 31
0.0
  0
LINE
  8
0
 62
     0
 10
2.81258
 20
31.4
 30
0.0
 11
2.81258
 21
31.6921
 31
0.0
  0
LINE
  8
0
 62
     0
 10
2.81258
 20
31.6921
 30
0.0
 11
2.81258
 21
31.9857
 31
0.0
  0
LINE
  8
0
 62
     0
 10
2.81258
 20
31.9857
 30
0.0
 11
3.04684
 21
32.8635
 31
0.0
  0
LINE
  8
0
 62
     0
 10
3.04684
 20
32.8635
 30
0.0
 11
3.689
 21
33.8171
 31
0.0
  0
LINE
  8
0
 62
     0
 10
3.689
 20
33.8171
 30
0.0
 11
4.64263
 21
34.4592
 31
0.0
  0
LINE
  8
0
 62
     0
 10
4.64263
 20
34.4592
 30
0.0
 11
5.51903
 21
34.6935
 31
0.0
  0
LINE
  8
0
 62
     0
 10
5.51903
 20
34.6935
 30
0.0
 11
5.81258
 21
34.6935
 31
0.0
  0
LINE
  8
0
 62
     7
 10
5.81258
 20
25.9829
 30
0.0
 11
35.0518
 21
25.9829
 31
0.0
  0
LINE
  8
0
 62
     7
 10
35.0518
 20
25.9829
 30
0.0
 11
35.3441
 21
25.9829
 31
0.0
  0
LINE
  8
0
 62
     7
 10
35.3441
 20
25.9829
 30
0.0
 11
36.2204
 21
25.7486
 31
0.0
  0
LINE
  8
0
 62
     7
 10
36.2204
 20
25.7486
 30
0.0
 11
37.174
 21
25.1065
 31
0.0
  0
LINE
  8
0
 62
     7
 10
37.174
 20
25.1065
 30
0.0
 11
37.816
 21
24.1529
 31
0.0
  0
LINE
  8
0
 62
     7
 10
37.816
 20
24.1529
 30
0.0
 11
38.0517
 21
23.2765
 31
0.0
  0
LINE
  8
0
 62
     7
 10
38.0517
 20
23.2765
 30
0.0
 11
38.0517
 21
22.9829
 31
0.0
  0
LINE
  8
0
 62
     7
 10
38.0517
 20
22.9829
 30
0.0
 11
38.0517
 21
22.6908
 31
0.0
  0
LINE
  8
0
 62
     7
 10
38.0517
 20
22.6908
 30
0.0
 11
37.816
 21
21.8143
 31
0.0
  0
LINE
  8
0
 62
     7
 10
37.816
 20
21.8143
 30
0.0
 11
37.174
 21
20.8607
 31
0.0
  0
LINE
  8
0
 62
     7
 10
37.174
 20
20.8607
 30
0.0
 11
36.2204
 21
20.2186
 31
0.0
  0
LINE
  8
0
 62
     7
 10
36.2204
 20
20.2186
 30
0.0
 11
35.3441
 21
19.9829
 31
0.0
  0
LINE
  8
0
 62
     7
 10
35.3441
 20
19.9829
 30
0.0
 11
35.0518
 21
19.9829
 31
0.0
  0
LINE
  8
0
 62
     7
 10
35.0518
 20
19.9829
 30
0.0
 11
5.81258
 21
19.9829
 31
0.0
  0
LINE
  8
0
 62
     7
 10
5.81258
 20
19.9829
 30
0.0
 11
5.51903
 21
19.9829
 31
0.0
  0
LINE
  8
0
 62
     7
 10
5.51903
 20
19.9829
 30
0.0
 11
4.64263
 21
20.2186
 31
0.0
  0
LINE
  8
0
 62
     7
 10
4.64263
 20
20.2186
 30
0.0
 11
3.689
 21
20.8607
 31
0.0
  0
LINE
  8
0
 62
     7
 10
3.689
 20
20.8607
 30
0.0
 11
3.04684
 21
21.8143
 31
0.0
  0
LINE
  8
0
 62
     7
 10
3.04684
 20
21.8143
 30
0.0
 11
2.81258
 21
22.6908
 31
0.0
  0
LINE
  8
0
 62
     7
 10
2.81258
 20
22.6908
 30
0.0
 11
2.81258
 21
22.9829
 31
0.0
  0
LINE
  8
0
 62
     7
 10
2.81258
 20
22.9829
 30
0.0
 11
2.81258
 21
23.2765
 31
0.0
  0
LINE
  8
0
 62
     7
 10
2.81258
 20
23.2765
 30
0.0
 11
3.04684
 21
24.1529
 31
0.0
  0
LINE
  8
0
 62
     7
 10
3.04684
 20
24.1529
 30
0.0
 11
3.689
 21
25.1065
 31
0.0
  0
LINE
  8
0
 62
     7
 10
3.689
 20
25.1065
 30
0.0
 11
4.64263
 21
25.7486
 31
0.0
  0
LINE
  8
0
 62
     7
 10
4.64263
 20
25.7486
 30
0.0
 11
5.51903
 21
25.9829
 31
0.0
  0
LINE
  8
0
 62
     7
 10
5.51903
 20
25.9829
 30
0.0
 11
5.81258
 21
25.9829
 31
0.0
  0
LINE
  8
0
 62
     0
 10
5.81258
 20
25.9829
 30
0.0
 11
35.0518
 21
25.9829
 31
0.0
  0
LINE
  8
0
 62
     0
 10
35.0518
 20
25.9829
 30
0.0
 11
35.3441
 21
25.9829
 31
0.0
  0
LINE
  8
0
 62
     0
 10
35.3441
 20
25.9829
 30
0.0
 11
36.2204
 21
25.7486
 31
0.0
  0
LINE
  8
0
 62
     0
 10
36.2204
 20
25.7486
 30
0.0
 11
37.174
 21
25.1065
 31
0.0
  0
LINE
  8
0
 62
     0
 10
37.174
 20
25.1065
 30
0.0
 11
37.816
 21
24.1529
 31
0.0
  0
LINE
  8
0
 62
     0
 10
37.816
 20
24.1529
 30
0.0
 11
38.0517
 21
23.2765
 31
0.0
  0
LINE
  8
0
 62
     0
 10
38.0517
 20
23.2765
 30
0.0
 11
38.0517
 21
22.9829
 31
0.0
  0
LINE
  8
0
 62
     0
 10
38.0517
 20
22.9829
 30
0.0
 11
38.0517
 21
22.6908
 31
0.0
  0
LINE
  8
0
 62
     0
 10
38.0517
 20
22.6908
 30
0.0
 11
37.816
 21
21.8143
 31
0.0
  0
LINE
  8
0
 62
     0
 10
37.816
 20
21.8143
 30
0.0
 11
37.174
 21
20.8607
 31
0.0
  0
LINE
  8
0
 62
     0
 10
37.174
 20
20.8607
 30
0.0
 11
36.2204
 21
20.2186
 31
0.0
  0
LINE
  8
0
 62
     0
 10
36.2204
 20
20.2186
 30
0.0
 11
35.3441
 21
19.9829
 31
0.0
  0
LINE
  8
0
 62
     0
 10
35.3441
 20
19.9829
 30
0.0
 11
35.0518
 21
19.9829
 31
0.0
  0
LINE
  8
0
 62
     0
 10
35.0518
 20
19.9829
 30
0.0
 11
5.81258
 21
19.9829
 31
0.0
  0
LINE
  8
0
 62
     0
 10
5.81258
 20
19.9829
 30
0.0
 11
5.51903
 21
19.9829
 31
0.0
  0
LINE
  8
0
 62
     0
 10
5.51903
 20
19.9829
 30
0.0
 11
4.64263
 21
20.2186
 31
0.0
  0
LINE
  8
0
 62
     0
 10
4.64263
 20
20.2186
 30
0.0
 11
3.689
 21
20.8607
 31
0.0
  0
LINE
  8
0
 62
     0
 10
3.689
 20
20.8607
 30
0.0
 11
3.04684
 21
21.8143
 31
0.0
  0
LINE
  8
0
 62
     0
 10
3.04684
 20
21.8143
 30
0.0
 11
2.81258
 21
22.6908
 31
0.0
  0
LINE
  8
0
 62
     0
 10
2.81258
 20
22.6908
 30
0.0
 11
2.81258
 21
22.9829
 31
0.0
  0
LINE
  8
0
 62
     0
 10
2.81258
 20
22.9829
 30
0.0
 11
2.81258
 21
23.2765
 31
0.0
  0
LINE
  8
0
 62
     0
 10
2.81258
 20
23.2765
 30
0.0
 11
3.04684
 21
24.1529
 31
0.0
  0
LINE
  8
0
 62
     0
 10
3.04684
 20
24.1529
 30
0.0
 11
3.689
 21
25.1065
 31
0.0
  0
LINE
  8
0
 62
     0
 10
3.689
 20
25.1065
 30
0.0
 11
4.64263
 21
25.7486
 31
0.0
  0
LINE
  8
0
 62
     0
 10
4.64263
 20
25.7486
 30
0.0
 11
5.51903
 21
25.9829
 31
0.0
  0
LINE
  8
0
 62
     0
 10
5.51903
 20
25.9829
 30
0.0
 11
5.81258
 21
25.9829
 31
0.0
  0
LINE
  8
0
 62
     7
 10
5.81258
 20
17.2709
 30
0.0
 11
35.0518
 21
17.2709
 31
0.0
  0
LINE
  8
0
 62
     7
 10
35.0518
 20
17.2709
 30
0.0
 11
35.3441
 21
17.2709
 31
0.0
  0
LINE
  8
0
 62
     7
 10
35.3441
 20
17.2709
 30
0.0
 11
36.2204
 21
17.0367
 31
0.0
  0
LINE
  8
0
 62
     7
 10
36.2204
 20
17.0367
 30
0.0
 11
37.174
 21
16.3959
 31
0.0
  0
LINE
  8
0
 62
     7
 10
37.174
 20
16.3959
 30
0.0
 11
37.816
 21
15.4423
 31
0.0
  0
LINE
  8
0
 62
     7
 10
37.816
 20
15.4423
 30
0.0
 11
38.0517
 21
14.5659
 31
0.0
  0
LINE
  8
0
 62
     7
 10
38.0517
 20
14.5659
 30
0.0
 11
38.0517
 21
14.2723
 31
0.0
  0
LINE
  8
0
 62
     7
 10
38.0517
 20
14.2723
 30
0.0
 11
38.0517
 21
13.9802
 31
0.0
  0
LINE
  8
0
 62
     7
 10
38.0517
 20
13.9802
 30
0.0
 11
37.816
 21
13.1038
 31
0.0
  0
LINE
  8
0
 62
     7
 10
37.816
 20
13.1038
 30
0.0
 11
37.174
 21
12.1502
 31
0.0
  0
LINE
  8
0
 62
     7
 10
37.174
 20
12.1502
 30
0.0
 11
36.2204
 21
11.508
 31
0.0
  0
LINE
  8
0
 62
     7
 10
36.2204
 20
11.508
 30
0.0
 11
35.3441
 21
11.2723
 31
0.0
  0
LINE
  8
0
 62
     7
 10
35.3441
 20
11.2723
 30
0.0
 11
35.0518
 21
11.2723
 31
0.0
  0
LINE
  8
0
 62
     7
 10
35.0518
 20
11.2723
 30
0.0
 11
5.81258
 21
11.2723
 31
0.0
  0
LINE
  8
0
 62
     7
 10
5.81258
 20
11.2723
 30
0.0
 11
5.51903
 21
11.2723
 31
0.0
  0
LINE
  8
0
 62
     7
 10
5.51903
 20
11.2723
 30
0.0
 11
4.64263
 21
11.508
 31
0.0
  0
LINE
  8
0
 62
     7
 10
4.64263
 20
11.508
 30
0.0
 11
3.689
 21
12.1502
 31
0.0
  0
LINE
  8
0
 62
     7
 10
3.689
 20
12.1502
 30
0.0
 11
3.04684
 21
13.1038
 31
0.0
  0
LINE
  8
0
 62
     7
 10
3.04684
 20
13.1038
 30
0.0
 11
2.81258
 21
13.9802
 31
0.0
  0
LINE
  8
0
 62
     7
 10
2.81258
 20
13.9802
 30
0.0
 11
2.81258
 21
14.2723
 31
0.0
  0
LINE
  8
0
 62
     7
 10
2.81258
 20
14.2723
 30
0.0
 11
2.81258
 21
14.5659
 31
0.0
  0
LINE
  8
0
 62
     7
 10
2.81258
 20
14.5659
 30
0.0
 11
3.04684
 21
15.4423
 31
0.0
  0
LINE
  8
0
 62
     7
 10
3.04684
 20
15.4423
 30
0.0
 11
3.689
 21
16.3959
 31
0.0
  0
LINE
  8
0
 62
     7
 10
3.689
 20
16.3959
 30
0.0
 11
4.64263
 21
17.0367
 31
0.0
  0
LINE
  8
0
 62
     7
 10
4.64263
 20
17.0367
 30
0.0
 11
5.51903
 21
17.2709
 31
0.0
  0
LINE
  8
0
 62
     7
 10
5.51903
 20
17.2709
 30
0.0
 11
5.81258
 21
17.2709
 31
0.0
  0
LINE
  8
0
 62
     0
 10
5.81258
 20
17.2723
 30
0.0
 11
35.0518
 21
17.2723
 31
0.0
  0
LINE
  8
0
 62
     0
 10
35.0518
 20
17.2723
 30
0.0
 11
35.3441
 21
17.2723
 31
0.0
  0
LINE
  8
0
 62
     0
 10
35.3441
 20
17.2723
 30
0.0
 11
36.2204
 21
17.0381
 31
0.0
  0
LINE
  8
0
 62
     0
 10
36.2204
 20
17.0381
 30
0.0
 11
37.174
 21
16.3959
 31
0.0
  0
LINE
  8
0
 62
     0
 10
37.174
 20
16.3959
 30
0.0
 11
37.816
 21
15.4423
 31
0.0
  0
LINE
  8
0
 62
     0
 10
37.816
 20
15.4423
 30
0.0
 11
38.0517
 21
14.5659
 31
0.0
  0
LINE
  8
0
 62
     0
 10
38.0517
 20
14.5659
 30
0.0
 11
38.0517
 21
14.2723
 31
0.0
  0
LINE
  8
0
 62
     0
 10
38.0517
 20
14.2723
 30
0.0
 11
38.0517
 21
13.9802
 31
0.0
  0
LINE
  8
0
 62
     0
 10
38.0517
 20
13.9802
 30
0.0
 11
37.816
 21
13.1024
 31
0.0
  0
LINE
  8
0
 62
     0
 10
37.816
 20
13.1024
 30
0.0
 11
37.174
 21
12.1488
 31
0.0
  0
LINE
  8
0
 62
     0
 10
37.174
 20
12.1488
 30
0.0
 11
36.2204
 21
11.508
 31
0.0
  0
LINE
  8
0
 62
     0
 10
36.2204
 20
11.508
 30
0.0
 11
35.3441
 21
11.2723
 31
0.0
  0
LINE
  8
0
 62
     0
 10
35.3441
 20
11.2723
 30
0.0
 11
35.0518
 21
11.2723
 31
0.0
  0
LINE
  8
0
 62
     0
 10
35.0518
 20
11.2723
 30
0.0
 11
5.81258
 21
11.2723
 31
0.0
  0
LINE
  8
0
 62
     0
 10
5.81258
 20
11.2723
 30
0.0
 11
5.51903
 21
11.2723
 31
0.0
  0
LINE
  8
0
 62
     0
 10
5.51903
 20
11.2723
 30
0.0
 11
4.64263
 21
11.508
 31
0.0
  0
LINE
  8
0
 62
     0
 10
4.64263
 20
11.508
 30
0.0
 11
3.689
 21
12.1488
 31
0.0
  0
LINE
  8
0
 62
     0
 10
3.689
 20
12.1488
 30
0.0
 11
3.04684
 21
13.1024
 31
0.0
  0
LINE
  8
0
 62
     0
 10
3.04684
 20
13.1024
 30
0.0
 11
2.81258
 21
13.9802
 31
0.0
  0
LINE
  8
0
 62
     0
 10
2.81258
 20
13.9802
 30
0.0
 11
2.81258
 21
14.2723
 31
0.0
  0
LINE
  8
0
 62
     0
 10
2.81258
 20
14.2723
 30
0.0
 11
2.81258
 21
14.5659
 31
0.0
  0
LINE
  8
0
 62
     0
 10
2.81258
 20
14.5659
 30
0.0
 11
3.04684
 21
15.4423
 31
0.0
  0
LINE
  8
0
 62
     0
 10
3.04684
 20
15.4423
 30
0.0
 11
3.689
 21
16.3959
 31
0.0
  0
LINE
  8
0
 62
     0
 10
3.689
 20
16.3959
 30
0.0
 11
4.64263
 21
17.0381
 31
0.0
  0
LINE
  8
0
 62
     0
 10
4.64263
 20
17.0381
 30
0.0
 11
5.51903
 21
17.2723
 31
0.0
  0
LINE
  8
0
 62
     0
 10
5.51903
 20
17.2723
 30
0.0
 11
5.81258
 21
17.2723
 31
0.0
  0
LINE
  8
0
 62
     7
 10
2.81258
 20
52.1134
 30
0.0
 11
83.0516
 21
52.1134
 31
0.0
  0
LINE
  8
0
 62
     7
 10
83.0516
 20
52.1134
 30
0.0
 11
83.0516
 21
46.1133
 31
0.0
  0
LINE
  8
0
 62
     7
 10
83.0516
 20
46.1133
 30
0.0
 11
2.81258
 21
46.1133
 31
0.0
  0
LINE
  8
0
 62
     7
 10
2.81258
 20
46.1133
 30
0.0
 11
2.81258
 21
52.1134
 31
0.0
  0
LINE
  8
0
 62
     0
 10
2.81258
 20
52.1134
 30
0.0
 11
83.0516
 21
52.1134
 31
0.0
  0
LINE
  8
0
 62
     0
 10
83.0516
 20
52.1134
 30
0.0
 11
83.0516
 21
46.1133
 31
0.0
  0
LINE
  8
0
 62
     0
 10
83.0516
 20
46.1133
 30
0.0
 11
2.81258
 21
46.1133
 31
0.0
  0
LINE
  8
0
 62
     0
 10
2.81258
 20
46.1133
 30
0.0
 11
2.81258
 21
52.1134
 31
0.0
  0
LINE
  8
0
 62
     7
 10
77.1331
 20
52.1134
 30
0.0
 11
83.1328
 21
52.1134
 31
0.0
  0
LINE
  8
0
 62
     7
 10
83.1328
 20
52.1134
 30
0.0
 11
83.1328
 21
37.1119
 31
0.0
  0
LINE
  8
0
 62
     7
 10
83.1328
 20
37.1119
 30
0.0
 11
77.1331
 21
37.1119
 31
0.0
  0
LINE
  8
0
 62
     7
 10
77.1331
 20
37.1119
 30
0.0
 11
77.1331
 21
52.1134
 31
0.0
  0
LINE
  8
0
 62
     0
 10
77.1331
 20
52.1134
 30
0.0
 11
83.1328
 21
52.1134
 31
0.0
  0
LINE
  8
0
 62
     0
 10
83.1328
 20
52.1134
 30
0.0
 11
83.1328
 21
37.1119
 31
0.0
  0
LINE
  8
0
 62
     0
 10
83.1328
 20
37.1119
 30
0.0
 11
77.1331
 21
37.1119
 31
0.0
  0
LINE
  8
0
 62
     0
 10
77.1331
 20
37.1119
 30
0.0
 11
77.1331
 21
52.1134
 31
0.0
  0
LINE
  8
0
 62
     7
 10
2.81258
 20
8.56312
 30
0.0
 11
83.0516
 21
8.56312
 31
0.0
  0
LINE
  8
0
 62
     7
 10
83.0516
 20
8.56312
 30
0.0
 11
83.0516
 21
2.56315
 31
0.0
  0
LINE
  8
0
 62
     7
 10
83.0516
 20
2.56315
 30
0.0
 11
2.81258
 21
2.56315
 31
0.0
  0
LINE
  8
0
 62
     7
 10
2.81258
 20
2.56315
 30
0.0
 11
2.81258
 21
8.56312
 31
0.0
  0
LINE
  8
0
 62
     0
 10
2.81258
 20
8.56312
 30
0.0
 11
83.0516
 21
8.56312
 31
0.0
  0
LINE
  8
0
 62
     0
 10
83.0516
 20
8.56312
 30
0.0
 11
83.0516
 21
2.56315
 31
0.0
  0
LINE
  8
0
 62
     0
 10
83.0516
 20
2.56315
 30
0.0
 11
2.81258
 21
2.56315
 31
0.0
  0
LINE
  8
0
 62
     0
 10
2.81258
 20
2.56315
 30
0.0
 11
2.81258
 21
8.56312
 31
0.0
  0
LINE
  8
0
 62
     7
 10
77.1331
 20
17.5631
 30
0.0
 11
83.1328
 21
17.5631
 31
0.0
  0
LINE
  8
0
 62
     7
 10
83.1328
 20
17.5631
 30
0.0
 11
83.1328
 21
2.56315
 31
0.0
  0
LINE
  8
0
 62
     7
 10
83.1328
 20
2.56315
 30
0.0
 11
77.1331
 21
2.56315
 31
0.0
  0
LINE
  8
0
 62
     7
 10
77.1331
 20
2.56315
 30
0.0
 11
77.1331
 21
17.5631
 31
0.0
  0
LINE
  8
0
 62
     0
 10
77.1331
 20
17.5631
 30
0.0
 11
83.1328
 21
17.5631
 31
0.0
  0
LINE
  8
0
 62
     0
 10
83.1328
 20
17.5631
 30
0.0
 11
83.1328
 21
2.56315
 31
0.0
  0
LINE
  8
0
 62
     0
 10
83.1328
 20
2.56315
 30
0.0
 11
77.1331
 21
2.56315
 31
0.0
  0
LINE
  8
0
 62
     0
 10
77.1331
 20
2.56315
 30
0.0
 11
77.1331
 21
17.5631
 31
0.0
  0
LINE
  8
0
 62
     7
 10
3.81166
 20
42.4021
 30
0.0
 11
74.0516
 21
42.4021
 31
0.0
  0
LINE
  8
0
 62
     7
 10
74.0516
 20
42.4021
 30
0.0
 11
74.0516
 21
38.403
 31
0.0
  0
LINE
  8
0
 62
     7
 10
74.0516
 20
38.403
 30
0.0
 11
3.81166
 21
38.403
 31
0.0
  0
LINE
  8
0
 62
     7
 10
3.81166
 20
38.403
 30
0.0
 11
3.81166
 21
42.4021
 31
0.0
  0
LINE
  8
0
 62
     0
 10
3.81166
 20
42.4021
 30
0.0
 11
74.0516
 21
42.4021
 31
0.0
  0
LINE
  8
0
 62
     0
 10
74.0516
 20
42.4021
 30
0.0
 11
74.0516
 21
38.403
 31
0.0
  0
LINE
  8
0
 62
     0
 10
74.0516
 20
38.403
 30
0.0
 11
3.81166
 21
38.403
 31
0.0
  0
LINE
  8
0
 62
     0
 10
3.81166
 20
38.403
 30
0.0
 11
3.81166
 21
42.4021
 31
0.0
  0
LINE
  8
0
 62
     7
 10
3.81166
 20
33.693
 30
0.0
 11
83.0516
 21
33.693
 31
0.0
  0
LINE
  8
0
 62
     7
 10
83.0516
 20
33.693
 30
0.0
 11
83.0516
 21
29.6912
 31
0.0
  0
LINE
  8
0
 62
     7
 10
83.0516
 20
29.6912
 30
0.0
 11
3.81166
 21
29.6912
 31
0.0
  0
LINE
  8
0
 62
     7
 10
3.81166
 20
29.6912
 30
0.0
 11
3.81166
 21
33.693
 31
0.0
  0
LINE
  8
0
 62
     0
 10
3.81166
 20
33.693
 30
0.0
 11
83.0516
 21
33.693
 31
0.0
  0
LINE
  8
0
 62
     0
 10
83.0516
 20
33.693
 30
0.0
 11
83.0516
 21
29.6926
 31
0.0
  0
LINE
  8
0
 62
     0
 10
83.0516
 20
29.6926
 30
0.0
 11
3.81166
 21
29.6926
 31
0.0
  0
LINE
  8
0
 62
     0
 10
3.81166
 20
29.6926
 30
0.0
 11
3.81166
 21
33.693
 31
0.0
  0
LINE
  8
0
 62
     7
 10
3.81166
 20
24.9825
 30
0.0
 11
83.0516
 21
24.9825
 31
0.0
  0
LINE
  8
0
 62
     7
 10
83.0516
 20
24.9825
 30
0.0
 11
83.0516
 21
20.9834
 31
0.0
  0
LINE
  8
0
 62
     7
 10
83.0516
 20
20.9834
 30
0.0
 11
3.81166
 21
20.9834
 31
0.0
  0
LINE
  8
0
 62
     7
 10
3.81166
 20
20.9834
 30
0.0
 11
3.81166
 21
24.9825
 31
0.0
  0
LINE
  8
0
 62
     0
 10
3.81166
 20
24.9825
 30
0.0
 11
83.0516
 21
24.9825
 31
0.0
  0
LINE
  8
0
 62
     0
 10
83.0516
 20
24.9825
 30
0.0
 11
83.0516
 21
20.9834
 31
0.0
  0
LINE
  8
0
 62
     0
 10
83.0516
 20
20.9834
 30
0.0
 11
3.81166
 21
20.9834
 31
0.0
  0
LINE
  8
0
 62
     0
 10
3.81166
 20
20.9834
 30
0.0
 11
3.81166
 21
24.9825
 31
0.0
  0
LINE
  8
0
 62
     7
 10
3.81166
 20
16.2733
 30
0.0
 11
74.0516
 21
16.2733
 31
0.0
  0
LINE
  8
0
 62
     7
 10
74.0516
 20
16.2733
 30
0.0
 11
74.0516
 21
12.2714
 31
0.0
  0
LINE
  8
0
 62
     7
 10
74.0516
 20
12.2714
 30
0.0
 11
3.81166
 21
12.2714
 31
0.0
  0
LINE
  8
0
 62
     7
 10
3.81166
 20
12.2714
 30
0.0
 11
3.81166
 21
16.2733
 31
0.0
  0
LINE
  8
0
 62
     0
 10
3.81166
 20
16.2733
 30
0.0
 11
74.0516
 21
16.2733
 31
0.0
  0
LINE
  8
0
 62
     0
 10
74.0516
 20
16.2733
 30
0.0
 11
74.0516
 21
12.2728
 31
0.0
  0
LINE
  8
0
 62
     0
 10
74.0516
 20
12.2728
 30
0.0
 11
3.81166
 21
12.2728
 31
0.0
  0
LINE
  8
0
 62
     0
 10
3.81166
 20
12.2728
 30
0.0
 11
3.81166
 21
16.2733
 31
0.0
  0
LINE
  8
0
 62
     7
 10
10.0528
 20
49.1134
 30
0.0
 11
10.0528
 21
48.937
 31
0.0
  0
LINE
  8
0
 62
     7
 10
10.0528
 20
48.937
 30
0.0
 11
9.75928
 21
48.4064
 31
0.0
  0
LINE
  8
0
 62
     7
 10
9.75928
 20
48.4064
 30
0.0
 11
9.22874
 21
48.1129
 31
0.0
  0
LINE
  8
0
 62
     7
 10
9.22874
 20
48.1129
 30
0.0
 11
9.05235
 21
48.1129
 31
0.0
  0
LINE
  8
0
 62
     7
 10
9.05235
 20
48.1129
 30
0.0
 11
8.87458
 21
48.1129
 31
0.0
  0
LINE
  8
0
 62
     7
 10
8.87458
 20
48.1129
 30
0.0
 11
8.34401
 21
48.4064
 31
0.0
  0
LINE
  8
0
 62
     7
 10
8.34401
 20
48.4064
 30
0.0
 11
8.05187
 21
48.937
 31
0.0
  0
LINE
  8
0
 62
     7
 10
8.05187
 20
48.937
 30
0.0
 11
8.05187
 21
49.1134
 31
0.0
  0
LINE
  8
0
 62
     7
 10
8.05187
 20
49.1134
 30
0.0
 11
8.05187
 21
49.2912
 31
0.0
  0
LINE
  8
0
 62
     7
 10
8.05187
 20
49.2912
 30
0.0
 11
8.34401
 21
49.8203
 31
0.0
  0
LINE
  8
0
 62
     7
 10
8.34401
 20
49.8203
 30
0.0
 11
8.87458
 21
50.1124
 31
0.0
  0
LINE
  8
0
 62
     7
 10
8.87458
 20
50.1124
 30
0.0
 11
9.05235
 21
50.1124
 31
0.0
  0
LINE
  8
0
 62
     7
 10
9.05235
 20
50.1124
 30
0.0
 11
9.22874
 21
50.1124
 31
0.0
  0
LINE
  8
0
 62
     7
 10
9.22874
 20
50.1124
 30
0.0
 11
9.75928
 21
49.8203
 31
0.0
  0
LINE
  8
0
 62
     7
 10
9.75928
 20
49.8203
 30
0.0
 11
10.0528
 21
49.2912
 31
0.0
  0
LINE
  8
0
 62
     7
 10
10.0528
 20
49.2912
 30
0.0
 11
10.0528
 21
49.1134
 31
0.0
  0
LINE
  8
0
 62
     0
 10
10.0528
 20
49.1134
 30
0.0
 11
10.0528
 21
48.937
 31
0.0
  0
LINE
  8
0
 62
     0
 10
10.0528
 20
48.937
 30
0.0
 11
9.75928
 21
48.4064
 31
0.0
  0
LINE
  8
0
 62
     0
 10
9.75928
 20
48.4064
 30
0.0
 11
9.22874
 21
48.1129
 31
0.0
  0
LINE
  8
0
 62
     0
 10
9.22874
 20
48.1129
 30
0.0
 11
9.05235
 21
48.1129
 31
0.0
  0
LINE
  8
0
 62
     0
 10
9.05235
 20
48.1129
 30
0.0
 11
8.87458
 21
48.1129
 31
0.0
  0
LINE
  8
0
 62
     0
 10
8.87458
 20
48.1129
 30
0.0
 11
8.34401
 21
48.4064
 31
0.0
  0
LINE
  8
0
 62
     0
 10
8.34401
 20
48.4064
 30
0.0
 11
8.05187
 21
48.937
 31
0.0
  0
LINE
  8
0
 62
     0
 10
8.05187
 20
48.937
 30
0.0
 11
8.05187
 21
49.1134
 31
0.0
  0
LINE
  8
0
 62
     0
 10
8.05187
 20
49.1134
 30
0.0
 11
8.05187
 21
49.2912
 31
0.0
  0
LINE
  8
0
 62
     0
 10
8.05187
 20
49.2912
 30
0.0
 11
8.34401
 21
49.8203
 31
0.0
  0
LINE
  8
0
 62
     0
 10
8.34401
 20
49.8203
 30
0.0
 11
8.87458
 21
50.1124
 31
0.0
  0
LINE
  8
0
 62
     0
 10
8.87458
 20
50.1124
 30
0.0
 11
9.05235
 21
50.1124
 31
0.0
  0
LINE
  8
0
 62
     0
 10
9.05235
 20
50.1124
 30
0.0
 11
9.22874
 21
50.1124
 31
0.0
  0
LINE
  8
0
 62
     0
 10
9.22874
 20
50.1124
 30
0.0
 11
9.75928
 21
49.8203
 31
0.0
  0
LINE
  8
0
 62
     0
 10
9.75928
 20
49.8203
 30
0.0
 11
10.0528
 21
49.2912
 31
0.0
  0
LINE
  8
0
 62
     0
 10
10.0528
 20
49.2912
 30
0.0
 11
10.0528
 21
49.1134
 31
0.0
  0
LINE
  8
0
 62
     7
 10
10.0528
 20
40.4026
 30
0.0
 11
10.0528
 21
40.2262
 31
0.0
  0
LINE
  8
0
 62
     7
 10
10.0528
 20
40.2262
 30
0.0
 11
9.75928
 21
39.6956
 31
0.0
  0
LINE
  8
0
 62
     7
 10
9.75928
 20
39.6956
 30
0.0
 11
9.22874
 21
39.4021
 31
0.0
  0
LINE
  8
0
 62
     7
 10
9.22874
 20
39.4021
 30
0.0
 11
9.05235
 21
39.4021
 31
0.0
  0
LINE
  8
0
 62
     7
 10
9.05235
 20
39.4021
 30
0.0
 11
8.87458
 21
39.4021
 31
0.0
  0
LINE
  8
0
 62
     7
 10
8.87458
 20
39.4021
 30
0.0
 11
8.34401
 21
39.6956
 31
0.0
  0
LINE
  8
0
 62
     7
 10
8.34401
 20
39.6956
 30
0.0
 11
8.05187
 21
40.2262
 31
0.0
  0
LINE
  8
0
 62
     7
 10
8.05187
 20
40.2262
 30
0.0
 11
8.05187
 21
40.4026
 31
0.0
  0
LINE
  8
0
 62
     7
 10
8.05187
 20
40.4026
 30
0.0
 11
8.05187
 21
40.5804
 31
0.0
  0
LINE
  8
0
 62
     7
 10
8.05187
 20
40.5804
 30
0.0
 11
8.34401
 21
41.111
 31
0.0
  0
LINE
  8
0
 62
     7
 10
8.34401
 20
41.111
 30
0.0
 11
8.87458
 21
41.4031
 31
0.0
  0
LINE
  8
0
 62
     7
 10
8.87458
 20
41.4031
 30
0.0
 11
9.05235
 21
41.4031
 31
0.0
  0
LINE
  8
0
 62
     7
 10
9.05235
 20
41.4031
 30
0.0
 11
9.22874
 21
41.4031
 31
0.0
  0
LINE
  8
0
 62
     7
 10
9.22874
 20
41.4031
 30
0.0
 11
9.75928
 21
41.111
 31
0.0
  0
LINE
  8
0
 62
     7
 10
9.75928
 20
41.111
 30
0.0
 11
10.0528
 21
40.5804
 31
0.0
  0
LINE
  8
0
 62
     7
 10
10.0528
 20
40.5804
 30
0.0
 11
10.0528
 21
40.4026
 31
0.0
  0
LINE
  8
0
 62
     0
 10
10.0528
 20
40.4026
 30
0.0
 11
10.0528
 21
40.2262
 31
0.0
  0
LINE
  8
0
 62
     0
 10
10.0528
 20
40.2262
 30
0.0
 11
9.75928
 21
39.6956
 31
0.0
  0
LINE
  8
0
 62
     0
 10
9.75928
 20
39.6956
 30
0.0
 11
9.22874
 21
39.4021
 31
0.0
  0
LINE
  8
0
 62
     0
 10
9.22874
 20
39.4021
 30
0.0
 11
9.05235
 21
39.4021
 31
0.0
  0
LINE
  8
0
 62
     0
 10
9.05235
 20
39.4021
 30
0.0
 11
8.87458
 21
39.4021
 31
0.0
  0
LINE
  8
0
 62
     0
 10
8.87458
 20
39.4021
 30
0.0
 11
8.34401
 21
39.6956
 31
0.0
  0
LINE
  8
0
 62
     0
 10
8.34401
 20
39.6956
 30
0.0
 11
8.05187
 21
40.2262
 31
0.0
  0
LINE
  8
0
 62
     0
 10
8.05187
 20
40.2262
 30
0.0
 11
8.05187
 21
40.4026
 31
0.0
  0
LINE
  8
0
 62
     0
 10
8.05187
 20
40.4026
 30
0.0
 11
8.05187
 21
40.5804
 31
0.0
  0
LINE
  8
0
 62
     0
 10
8.05187
 20
40.5804
 30
0.0
 11
8.34401
 21
41.111
 31
0.0
  0
LINE
  8
0
 62
     0
 10
8.34401
 20
41.111
 30
0.0
 11
8.87458
 21
41.4031
 31
0.0
  0
LINE
  8
0
 62
     0
 10
8.87458
 20
41.4031
 30
0.0
 11
9.05235
 21
41.4031
 31
0.0
  0
LINE
  8
0
 62
     0
 10
9.05235
 20
41.4031
 30
0.0
 11
9.22874
 21
41.4031
 31
0.0
  0
LINE
  8
0
 62
     0
 10
9.22874
 20
41.4031
 30
0.0
 11
9.75928
 21
41.111
 31
0.0
  0
LINE
  8
0
 62
     0
 10
9.75928
 20
41.111
 30
0.0
 11
10.0528
 21
40.5804
 31
0.0
  0
LINE
  8
0
 62
     0
 10
10.0528
 20
40.5804
 30
0.0
 11
10.0528
 21
40.4026
 31
0.0
  0
LINE
  8
0
 62
     7
 10
10.0528
 20
31.6907
 30
0.0
 11
10.0528
 21
31.5157
 31
0.0
  0
LINE
  8
0
 62
     7
 10
10.0528
 20
31.5157
 30
0.0
 11
9.75928
 21
30.9866
 31
0.0
  0
LINE
  8
0
 62
     7
 10
9.75928
 20
30.9866
 30
0.0
 11
9.22874
 21
30.693
 31
0.0
  0
LINE
  8
0
 62
     7
 10
9.22874
 20
30.693
 30
0.0
 11
9.05235
 21
30.693
 31
0.0
  0
LINE
  8
0
 62
     7
 10
9.05235
 20
30.693
 30
0.0
 11
8.87458
 21
30.693
 31
0.0
  0
LINE
  8
0
 62
     7
 10
8.87458
 20
30.693
 30
0.0
 11
8.34401
 21
30.9866
 31
0.0
  0
LINE
  8
0
 62
     7
 10
8.34401
 20
30.9866
 30
0.0
 11
8.05187
 21
31.5157
 31
0.0
  0
LINE
  8
0
 62
     7
 10
8.05187
 20
31.5157
 30
0.0
 11
8.05187
 21
31.6907
 31
0.0
  0
LINE
  8
0
 62
     7
 10
8.05187
 20
31.6907
 30
0.0
 11
8.05187
 21
31.8685
 31
0.0
  0
LINE
  8
0
 62
     7
 10
8.05187
 20
31.8685
 30
0.0
 11
8.34401
 21
32.4005
 31
0.0
  0
LINE
  8
0
 62
     7
 10
8.34401
 20
32.4005
 30
0.0
 11
8.87458
 21
32.6926
 31
0.0
  0
LINE
  8
0
 62
     7
 10
8.87458
 20
32.6926
 30
0.0
 11
9.05235
 21
32.6926
 31
0.0
  0
LINE
  8
0
 62
     7
 10
9.05235
 20
32.6926
 30
0.0
 11
9.22874
 21
32.6926
 31
0.0
  0
LINE
  8
0
 62
     7
 10
9.22874
 20
32.6926
 30
0.0
 11
9.75928
 21
32.4005
 31
0.0
  0
LINE
  8
0
 62
     7
 10
9.75928
 20
32.4005
 30
0.0
 11
10.0528
 21
31.8685
 31
0.0
  0
LINE
  8
0
 62
     7
 10
10.0528
 20
31.8685
 30
0.0
 11
10.0528
 21
31.6907
 31
0.0
  0
LINE
  8
0
 62
     0
 10
10.0528
 20
31.6921
 30
0.0
 11
10.0528
 21
31.5157
 31
0.0
  0
LINE
  8
0
 62
     0
 10
10.0528
 20
31.5157
 30
0.0
 11
9.75928
 21
30.9866
 31
0.0
  0
LINE
  8
0
 62
     0
 10
9.75928
 20
30.9866
 30
0.0
 11
9.22874
 21
30.693
 31
0.0
  0
LINE
  8
0
 62
     0
 10
9.22874
 20
30.693
 30
0.0
 11
9.05235
 21
30.693
 31
0.0
  0
LINE
  8
0
 62
     0
 10
9.05235
 20
30.693
 30
0.0
 11
8.87458
 21
30.693
 31
0.0
  0
LINE
  8
0
 62
     0
 10
8.87458
 20
30.693
 30
0.0
 11
8.34401
 21
30.9866
 31
0.0
  0
LINE
  8
0
 62
     0
 10
8.34401
 20
30.9866
 30
0.0
 11
8.05187
 21
31.5157
 31
0.0
  0
LINE
  8
0
 62
     0
 10
8.05187
 20
31.5157
 30
0.0
 11
8.05187
 21
31.6921
 31
0.0
  0
LINE
  8
0
 62
     0
 10
8.05187
 20
31.6921
 30
0.0
 11
8.05187
 21
31.8699
 31
0.0
  0
LINE
  8
0
 62
     0
 10
8.05187
 20
31.8699
 30
0.0
 11
8.34401
 21
32.4005
 31
0.0
  0
LINE
  8
0
 62
     0
 10
8.34401
 20
32.4005
 30
0.0
 11
8.87458
 21
32.6926
 31
0.0
  0
LINE
  8
0
 62
     0
 10
8.87458
 20
32.6926
 30
0.0
 11
9.05235
 21
32.6926
 31
0.0
  0
LINE
  8
0
 62
     0
 10
9.05235
 20
32.6926
 30
0.0
 11
9.22874
 21
32.6926
 31
0.0
  0
LINE
  8
0
 62
     0
 10
9.22874
 20
32.6926
 30
0.0
 11
9.75928
 21
32.4005
 31
0.0
  0
LINE
  8
0
 62
     0
 10
9.75928
 20
32.4005
 30
0.0
 11
10.0528
 21
31.8699
 31
0.0
  0
LINE
  8
0
 62
     0
 10
10.0528
 20
31.8699
 30
0.0
 11
10.0528
 21
31.6921
 31
0.0
  0
LINE
  8
0
 62
     7
 10
10.0528
 20
22.9829
 30
0.0
 11
10.0528
 21
22.8065
 31
0.0
  0
LINE
  8
0
 62
     7
 10
10.0528
 20
22.8065
 30
0.0
 11
9.75928
 21
22.276
 31
0.0
  0
LINE
  8
0
 62
     7
 10
9.75928
 20
22.276
 30
0.0
 11
9.22874
 21
21.9825
 31
0.0
  0
LINE
  8
0
 62
     7
 10
9.22874
 20
21.9825
 30
0.0
 11
9.05235
 21
21.9825
 31
0.0
  0
LINE
  8
0
 62
     7
 10
9.05235
 20
21.9825
 30
0.0
 11
8.87458
 21
21.9825
 31
0.0
  0
LINE
  8
0
 62
     7
 10
8.87458
 20
21.9825
 30
0.0
 11
8.34401
 21
22.276
 31
0.0
  0
LINE
  8
0
 62
     7
 10
8.34401
 20
22.276
 30
0.0
 11
8.05187
 21
22.8065
 31
0.0
  0
LINE
  8
0
 62
     7
 10
8.05187
 20
22.8065
 30
0.0
 11
8.05187
 21
22.9829
 31
0.0
  0
LINE
  8
0
 62
     7
 10
8.05187
 20
22.9829
 30
0.0
 11
8.05187
 21
23.1607
 31
0.0
  0
LINE
  8
0
 62
     7
 10
8.05187
 20
23.1607
 30
0.0
 11
8.34401
 21
23.6913
 31
0.0
  0
LINE
  8
0
 62
     7
 10
8.34401
 20
23.6913
 30
0.0
 11
8.87458
 21
23.9834
 31
0.0
  0
LINE
  8
0
 62
     7
 10
8.87458
 20
23.9834
 30
0.0
 11
9.05235
 21
23.9834
 31
0.0
  0
LINE
  8
0
 62
     7
 10
9.05235
 20
23.9834
 30
0.0
 11
9.22874
 21
23.9834
 31
0.0
  0
LINE
  8
0
 62
     7
 10
9.22874
 20
23.9834
 30
0.0
 11
9.75928
 21
23.6913
 31
0.0
  0
LINE
  8
0
 62
     7
 10
9.75928
 20
23.6913
 30
0.0
 11
10.0528
 21
23.1607
 31
0.0
  0
LINE
  8
0
 62
     7
 10
10.0528
 20
23.1607
 30
0.0
 11
10.0528
 21
22.9829
 31
0.0
  0
LINE
  8
0
 62
     0
 10
10.0528
 20
22.9829
 30
0.0
 11
10.0528
 21
22.8065
 31
0.0
  0
LINE
  8
0
 62
     0
 10
10.0528
 20
22.8065
 30
0.0
 11
9.75928
 21
22.276
 31
0.0
  0
LINE
  8
0
 62
     0
 10
9.75928
 20
22.276
 30
0.0
 11
9.22874
 21
21.9825
 31
0.0
  0
LINE
  8
0
 62
     0
 10
9.22874
 20
21.9825
 30
0.0
 11
9.05235
 21
21.9825
 31
0.0
  0
LINE
  8
0
 62
     0
 10
9.05235
 20
21.9825
 30
0.0
 11
8.87458
 21
21.9825
 31
0.0
  0
LINE
  8
0
 62
     0
 10
8.87458
 20
21.9825
 30
0.0
 11
8.34401
 21
22.276
 31
0.0
  0
LINE
  8
0
 62
     0
 10
8.34401
 20
22.276
 30
0.0
 11
8.05187
 21
22.8065
 31
0.0
  0
LINE
  8
0
 62
     0
 10
8.05187
 20
22.8065
 30
0.0
 11
8.05187
 21
22.9829
 31
0.0
  0
LINE
  8
0
 62
     0
 10
8.05187
 20
22.9829
 30
0.0
 11
8.05187
 21
23.1607
 31
0.0
  0
LINE
  8
0
 62
     0
 10
8.05187
 20
23.1607
 30
0.0
 11
8.34401
 21
23.6913
 31
0.0
  0
LINE
  8
0
 62
     0
 10
8.34401
 20
23.6913
 30
0.0
 11
8.87458
 21
23.9834
 31
0.0
  0
LINE
  8
0
 62
     0
 10
8.87458
 20
23.9834
 30
0.0
 11
9.05235
 21
23.9834
 31
0.0
  0
LINE
  8
0
 62
     0
 10
9.05235
 20
23.9834
 30
0.0
 11
9.22874
 21
23.9834
 31
0.0
  0
LINE
  8
0
 62
     0
 10
9.22874
 20
23.9834
 30
0.0
 11
9.75928
 21
23.6913
 31
0.0
  0
LINE
  8
0
 62
     0
 10
9.75928
 20
23.6913
 30
0.0
 11
10.0528
 21
23.1607
 31
0.0
  0
LINE
  8
0
 62
     0
 10
10.0528
 20
23.1607
 30
0.0
 11
10.0528
 21
22.9829
 31
0.0
  0
LINE
  8
0
 62
     7
 10
10.0528
 20
14.2723
 30
0.0
 11
10.0528
 21
14.0959
 31
0.0
  0
LINE
  8
0
 62
     7
 10
10.0528
 20
14.0959
 30
0.0
 11
9.75928
 21
13.5668
 31
0.0
  0
LINE
  8
0
 62
     7
 10
9.75928
 20
13.5668
 30
0.0
 11
9.22874
 21
13.2733
 31
0.0
  0
LINE
  8
0
 62
     7
 10
9.22874
 20
13.2733
 30
0.0
 11
9.05235
 21
13.2733
 31
0.0
  0
LINE
  8
0
 62
     7
 10
9.05235
 20
13.2733
 30
0.0
 11
8.87458
 21
13.2733
 31
0.0
  0
LINE
  8
0
 62
     7
 10
8.87458
 20
13.2733
 30
0.0
 11
8.34401
 21
13.5668
 31
0.0
  0
LINE
  8
0
 62
     7
 10
8.34401
 20
13.5668
 30
0.0
 11
8.05187
 21
14.0959
 31
0.0
  0
LINE
  8
0
 62
     7
 10
8.05187
 20
14.0959
 30
0.0
 11
8.05187
 21
14.2723
 31
0.0
  0
LINE
  8
0
 62
     7
 10
8.05187
 20
14.2723
 30
0.0
 11
8.05187
 21
14.4501
 31
0.0
  0
LINE
  8
0
 62
     7
 10
8.05187
 20
14.4501
 30
0.0
 11
8.34401
 21
14.9806
 31
0.0
  0
LINE
  8
0
 62
     7
 10
8.34401
 20
14.9806
 30
0.0
 11
8.87458
 21
15.2728
 31
0.0
  0
LINE
  8
0
 62
     7
 10
8.87458
 20
15.2728
 30
0.0
 11
9.05235
 21
15.2728
 31
0.0
  0
LINE
  8
0
 62
     7
 10
9.05235
 20
15.2728
 30
0.0
 11
9.22874
 21
15.2728
 31
0.0
  0
LINE
  8
0
 62
     7
 10
9.22874
 20
15.2728
 30
0.0
 11
9.75928
 21
14.9806
 31
0.0
  0
LINE
  8
0
 62
     7
 10
9.75928
 20
14.9806
 30
0.0
 11
10.0528
 21
14.4501
 31
0.0
  0
LINE
  8
0
 62
     7
 10
10.0528
 20
14.4501
 30
0.0
 11
10.0528
 21
14.2723
 31
0.0
  0
LINE
  8
0
 62
     0
 10
10.0528
 20
14.2723
 30
0.0
 11
10.0528
 21
14.0959
 31
0.0
  0
LINE
  8
0
 62
     0
 10
10.0528
 20
14.0959
 30
0.0
 11
9.75928
 21
13.5668
 31
0.0
  0
LINE
  8
0
 62
     0
 10
9.75928
 20
13.5668
 30
0.0
 11
9.22874
 21
13.2733
 31
0.0
  0
LINE
  8
0
 62
     0
 10
9.22874
 20
13.2733
 30
0.0
 11
9.05235
 21
13.2733
 31
0.0
  0
LINE
  8
0
 62
     0
 10
9.05235
 20
13.2733
 30
0.0
 11
8.87458
 21
13.2733
 31
0.0
  0
LINE
  8
0
 62
     0
 10
8.87458
 20
13.2733
 30
0.0
 11
8.34401
 21
13.5668
 31
0.0
  0
LINE
  8
0
 62
     0
 10
8.34401
 20
13.5668
 30
0.0
 11
8.05187
 21
14.0959
 31
0.0
  0
LINE
  8
0
 62
     0
 10
8.05187
 20
14.0959
 30
0.0
 11
8.05187
 21
14.2723
 31
0.0
  0
LINE
  8
0
 62
     0
 10
8.05187
 20
14.2723
 30
0.0
 11
8.05187
 21
14.4501
 31
0.0
  0
LINE
  8
0
 62
     0
 10
8.05187
 20
14.4501
 30
0.0
 11
8.34401
 21
14.9806
 31
0.0
  0
LINE
  8
0
 62
     0
 10
8.34401
 20
14.9806
 30
0.0
 11
8.87458
 21
15.2728
 31
0.0
  0
LINE
  8
0
 62
     0
 10
8.87458
 20
15.2728
 30
0.0
 11
9.05235
 21
15.2728
 31
0.0
  0
LINE
  8
0
 62
     0
 10
9.05235
 20
15.2728
 30
0.0
 11
9.22874
 21
15.2728
 31
0.0
  0
LINE
  8
0
 62
     0
 10
9.22874
 20
15.2728
 30
0.0
 11
9.75928
 21
14.9806
 31
0.0
  0
LINE
  8
0
 62
     0
 10
9.75928
 20
14.9806
 30
0.0
 11
10.0528
 21
14.4501
 31
0.0
  0
LINE
  8
0
 62
     0
 10
10.0528
 20
14.4501
 30
0.0
 11
10.0528
 21
14.2723
 31
0.0
  0
LINE
  8
0
 62
     7
 10
10.0528
 20
5.56313
 30
0.0
 11
10.0528
 21
5.38674
 31
0.0
  0
LINE
  8
0
 62
     7
 10
10.0528
 20
5.38674
 30
0.0
 11
9.75928
 21
4.8562
 31
0.0
  0
LINE
  8
0
 62
     7
 10
9.75928
 20
4.8562
 30
0.0
 11
9.22874
 21
4.56269
 31
0.0
  0
LINE
  8
0
 62
     7
 10
9.22874
 20
4.56269
 30
0.0
 11
9.05235
 21
4.56269
 31
0.0
  0
LINE
  8
0
 62
     7
 10
9.05235
 20
4.56269
 30
0.0
 11
8.87458
 21
4.56269
 31
0.0
  0
LINE
  8
0
 62
     7
 10
8.87458
 20
4.56269
 30
0.0
 11
8.34401
 21
4.8562
 31
0.0
  0
LINE
  8
0
 62
     7
 10
8.34401
 20
4.8562
 30
0.0
 11
8.05187
 21
5.38674
 31
0.0
  0
LINE
  8
0
 62
     7
 10
8.05187
 20
5.38674
 30
0.0
 11
8.05187
 21
5.56313
 31
0.0
  0
LINE
  8
0
 62
     7
 10
8.05187
 20
5.56313
 30
0.0
 11
8.05187
 21
5.74089
 31
0.0
  0
LINE
  8
0
 62
     7
 10
8.05187
 20
5.74089
 30
0.0
 11
8.34401
 21
6.27006
 31
0.0
  0
LINE
  8
0
 62
     7
 10
8.34401
 20
6.27006
 30
0.0
 11
8.87458
 21
6.56223
 31
0.0
  0
LINE
  8
0
 62
     7
 10
8.87458
 20
6.56223
 30
0.0
 11
9.05235
 21
6.56223
 31
0.0
  0
LINE
  8
0
 62
     7
 10
9.05235
 20
6.56223
 30
0.0
 11
9.22874
 21
6.56223
 31
0.0
  0
LINE
  8
0
 62
     7
 10
9.22874
 20
6.56223
 30
0.0
 11
9.75928
 21
6.27006
 31
0.0
  0
LINE
  8
0
 62
     7
 10
9.75928
 20
6.27006
 30
0.0
 11
10.0528
 21
5.74089
 31
0.0
  0
LINE
  8
0
 62
     7
 10
10.0528
 20
5.74089
 30
0.0
 11
10.0528
 21
5.56313
 31
0.0
  0
LINE
  8
0
 62
     0
 10
10.0528
 20
5.56313
 30
0.0
 11
10.0528
 21
5.38674
 31
0.0
  0
LINE
  8
0
 62
     0
 10
10.0528
 20
5.38674
 30
0.0
 11
9.75928
 21
4.8562
 31
0.0
  0
LINE
  8
0
 62
     0
 10
9.75928
 20
4.8562
 30
0.0
 11
9.22874
 21
4.56269
 31
0.0
  0
LINE
  8
0
 62
     0
 10
9.22874
 20
4.56269
 30
0.0
 11
9.05235
 21
4.56269
 31
0.0
  0
LINE
  8
0
 62
     0
 10
9.05235
 20
4.56269
 30
0.0
 11
8.87458
 21
4.56269
 31
0.0
  0
LINE
  8
0
 62
     0
 10
8.87458
 20
4.56269
 30
0.0
 11
8.34401
 21
4.8562
 31
0.0
  0
LINE
  8
0
 62
     0
 10
8.34401
 20
4.8562
 30
0.0
 11
8.05187
 21
5.38674
 31
0.0
  0
LINE
  8
0
 62
     0
 10
8.05187
 20
5.38674
 30
0.0
 11
8.05187
 21
5.56313
 31
0.0
  0
LINE
  8
0
 62
     0
 10
8.05187
 20
5.56313
 30
0.0
 11
8.05187
 21
5.74089
 31
0.0
  0
LINE
  8
0
 62
     0
 10
8.05187
 20
5.74089
 30
0.0
 11
8.34401
 21
6.27006
 31
0.0
  0
LINE
  8
0
 62
     0
 10
8.34401
 20
6.27006
 30
0.0
 11
8.87458
 21
6.56223
 31
0.0
  0
LINE
  8
0
 62
     0
 10
8.87458
 20
6.56223
 30
0.0
 11
9.05235
 21
6.56223
 31
0.0
  0
LINE
  8
0
 62
     0
 10
9.05235
 20
6.56223
 30
0.0
 11
9.22874
 21
6.56223
 31
0.0
  0
LINE
  8
0
 62
     0
 10
9.22874
 20
6.56223
 30
0.0
 11
9.75928
 21
6.27006
 31
0.0
  0
LINE
  8
0
 62
     0
 10
9.75928
 20
6.27006
 30
0.0
 11
10.0528
 21
5.74089
 31
0.0
  0
LINE
  8
0
 62
     0
 10
10.0528
 20
5.74089
 30
0.0
 11
10.0528
 21
5.56313
 31
0.0
  0
ENDSEC
  0
EOF
