<svg width="85.6mm" height="53.98mm" version="1.1" xmlns="http://www.w3.org/2000/svg">
  <!-- Credit Card outline -->
  <rect x="0mm" y="0mm" width="85.6mm" height="53.98mm" rx="3mm" ry="3mm" fill="#ffffff" stroke="#000000" stroke-width="0"/>

  <!-- Lockpick rectangles arranged vertically with equal margin and height set to 6.0mm -->
  <rect x="2.68mm" y="2.0mm" width="80.24mm" height="6.0mm" rx="3mm" ry="3mm" fill="#000000" stroke="#000000" stroke-width="0"/>
  <rect x="2.68mm" y="10.71mm" width="80.24mm" height="6.0mm" rx="3mm" ry="3mm" fill="#000000" stroke="#000000" stroke-width="0"/>
  <rect x="2.68mm" y="19.42mm" width="80.24mm" height="6.0mm" rx="3mm" ry="3mm" fill="#000000" stroke="#000000" stroke-width="0"/>
  <rect x="2.68mm" y="28.13mm" width="80.24mm" height="6.0mm" rx="3mm" ry="3mm" fill="#000000" stroke="#000000" stroke-width="0"/>
  <rect x="2.68mm" y="36.84mm" width="80.24mm" height="6.0mm" rx="3mm" ry="3mm" fill="#000000" stroke="#000000" stroke-width="0"/>
  <rect x="2.68mm" y="45.55mm" width="80.24mm" height="6.0mm" rx="3mm" ry="3mm" fill="#000000" stroke="#000000" stroke-width="0"/>

  <!-- Circle in the center of each semicircle -->
  <circle cx="8.92mm" cy="5.0mm" r="1mm" fill="#ffffff"  stroke="#000000" stroke-width="0"/>
  <circle cx="8.92mm" cy="13.71mm" r="1mm" fill="#ffffff"  stroke="#000000" stroke-width="0"/>
  <circle cx="8.92mm" cy="22.42mm" r="1mm" fill="#ffffff"  stroke="#000000" stroke-width="0"/>
  <circle cx="8.92mm" cy="31.13mm" r="1mm" fill="#ffffff"  stroke="#000000" stroke-width="0"/>
  <circle cx="8.92mm" cy="39.84mm" r="1mm" fill="#ffffff"  stroke="#000000" stroke-width="0"/>
  <circle cx="8.92mm" cy="48.55mm" r="1mm" fill="#ffffff"  stroke="#000000" stroke-width="0"/>
</svg>
