solid OpenSCAD_Model
  facet normal 0 0 -1
    outer loop
      vertex 83.0576 51.8555 -0.5
      vertex 84.9512 53.3535 -0.5
      vertex 85.5996 52.7598 -0.5
    endloop
  endfacet
  facet normal 0 0 -1
    outer loop
      vertex 58.2568 33.3516 -0.5
      vertex 77.125 37.0254 -0.5
      vertex 82.7744 33.3516 -0.5
    endloop
  endfacet
  facet normal 0 0 -1
    outer loop
      vertex 82.7744 29.6787 -0.5
      vertex 83.0576 37.0254 -0.5
      vertex 85.5996 52.7598 -0.5
    endloop
  endfacet
  facet normal 0 0 -1
    outer loop
      vertex 85.5996 52.7598 -0.5
      vertex 83.0576 37.0254 -0.5
      vertex 83.0576 51.8555 -0.5
    endloop
  endfacet
  facet normal 0 0 -1
    outer loop
      vertex 54.1982 15.8359 -0.5
      vertex 58.292 20.9219 -0.5
      vertex 73.7344 15.8359 -0.5
    endloop
  endfacet
  facet normal 0 0 -1
    outer loop
      vertex 4.85938 25.5488 -0.5
      vertex 5.05371 28.8516 -0.5
      vertex 5.40039 28.793 -0.5
    endloop
  endfacet
  facet normal 0 0 -1
    outer loop
      vertex 47.749 29.668 -0.5
      vertex 47.0977 24.6035 -0.5
      vertex 43.7139 29.6475 -0.5
    endloop
  endfacet
  facet normal -0 -0 -1
    outer loop
      vertex 2.54199 51.8555 -0.5
      vertex 2.54199 46.0654 -0.5
      vertex 0 52.5898 -0.5
    endloop
  endfacet
  facet normal 0 -0 -1
    outer loop
      vertex 36.4023 37.9238 -0.5
      vertex 36.4033 33.8643 -0.5
      vertex 36.3018 37.8721 -0.5
    endloop
  endfacet
  facet normal 0 0 -1
    outer loop
      vertex 58.2568 33.3516 -0.5
      vertex 54.083 38.4375 -0.5
      vertex 73.6787 38.4375 -0.5
    endloop
  endfacet
  facet normal 0 0 -1
    outer loop
      vertex 7.94043 49.4521 -0.5
      vertex 8.1084 49.8213 -0.5
      vertex 8.76465 50.0645 -0.5
    endloop
  endfacet
  facet normal 0 0 -1
    outer loop
      vertex 2.54199 51.8555 -0.5
      vertex 0 52.5898 -0.5
      vertex 0.707031 53.2676 -0.5
    endloop
  endfacet
  facet normal 0 0 -1
    outer loop
      vertex 36.4971 42.7012 -0.5
      vertex 36.0195 42.8154 -0.5
      vertex 35.6445 42.9512 -0.5
    endloop
  endfacet
  facet normal 0 -0 -1
    outer loop
      vertex 1.38477 53.9746 -0.5
      vertex 2.54199 51.8555 -0.5
      vertex 0.707031 53.2676 -0.5
    endloop
  endfacet
  facet normal 0 0 -1
    outer loop
      vertex 83.0576 51.8555 -0.5
      vertex 84.2998 53.9746 -0.5
      vertex 84.9512 53.3535 -0.5
    endloop
  endfacet
  facet normal 0 0 -1
    outer loop
      vertex 1.38477 53.9746 -0.5
      vertex 83.0576 51.8555 -0.5
      vertex 2.54199 51.8555 -0.5
    endloop
  endfacet
  facet normal -0 0 -1
    outer loop
      vertex 84.2998 53.9746 -0.5
      vertex 83.0576 51.8555 -0.5
      vertex 1.38477 53.9746 -0.5
    endloop
  endfacet
  facet normal -0 0 -1
    outer loop
      vertex 9.95898 48.3887 -0.5
      vertex 9.71094 48.1182 -0.5
      vertex 10 48.4941 -0.5
    endloop
  endfacet
  facet normal -0 0 -1
    outer loop
      vertex 10 48.4941 -0.5
      vertex 9.71094 48.1182 -0.5
      vertex 9.96289 49.2217 -0.5
    endloop
  endfacet
  facet normal -0 0 -1
    outer loop
      vertex 10.0586 48.6514 -0.5
      vertex 10 48.4941 -0.5
      vertex 9.96289 49.2217 -0.5
    endloop
  endfacet
  facet normal 0 0 -1
    outer loop
      vertex 9.96289 49.2217 -0.5
      vertex 9.71094 48.1182 -0.5
      vertex 9.26172 47.8975 -0.5
    endloop
  endfacet
  facet normal 0 -0 -1
    outer loop
      vertex 9.4668 49.8057 -0.5
      vertex 9.96289 49.2217 -0.5
      vertex 8.07129 48.4287 -0.5
    endloop
  endfacet
  facet normal 0 0 -1
    outer loop
      vertex 7.93457 48.9424 -0.5
      vertex 9.4668 49.8057 -0.5
      vertex 8.07129 48.4287 -0.5
    endloop
  endfacet
  facet normal 0 0 -1
    outer loop
      vertex 8.1084 49.8213 -0.5
      vertex 7.94043 49.4521 -0.5
      vertex 8.04102 49.7559 -0.5
    endloop
  endfacet
  facet normal 0 0 -1
    outer loop
      vertex 8.1084 49.8213 -0.5
      vertex 8.21973 49.9346 -0.5
      vertex 8.76465 50.0645 -0.5
    endloop
  endfacet
  facet normal 0 0 -1
    outer loop
      vertex 7.93457 48.9424 -0.5
      vertex 7.94043 49.4521 -0.5
      vertex 8.76465 50.0645 -0.5
    endloop
  endfacet
  facet normal -0 0 -1
    outer loop
      vertex 9.4668 49.8057 -0.5
      vertex 7.93457 48.9424 -0.5
      vertex 8.76465 50.0645 -0.5
    endloop
  endfacet
  facet normal 0 0 -1
    outer loop
      vertex 9.26172 47.8975 -0.5
      vertex 8.07129 48.4287 -0.5
      vertex 9.96289 49.2217 -0.5
    endloop
  endfacet
  facet normal -0 0 -1
    outer loop
      vertex 9.26172 47.8975 -0.5
      vertex 8.76465 47.8633 -0.5
      vertex 8.07129 48.4287 -0.5
    endloop
  endfacet
  facet normal 0 0 -1
    outer loop
      vertex 8.07129 48.4287 -0.5
      vertex 8.33398 48.043 -0.5
      vertex 8.24902 48.1172 -0.5
    endloop
  endfacet
  facet normal 0 0 -1
    outer loop
      vertex 8.07129 48.4287 -0.5
      vertex 8.76465 47.8633 -0.5
      vertex 8.33398 48.043 -0.5
    endloop
  endfacet
  facet normal 0 0 -1
    outer loop
      vertex 8.33398 48.043 -0.5
      vertex 8.76465 47.8633 -0.5
      vertex 8.41992 47.9717 -0.5
    endloop
  endfacet
  facet normal 0 0 -1
    outer loop
      vertex 8.1084 41.0645 -0.5
      vertex 7.86621 40.4082 -0.5
      vertex 7.99512 40.9521 -0.5
    endloop
  endfacet
  facet normal 0 0 -1
    outer loop
      vertex 37.29 38.1885 -0.5
      vertex 38.2285 38.2871 -0.5
      vertex 37.3604 33.5898 -0.5
    endloop
  endfacet
  facet normal 0 0 -1
    outer loop
      vertex 28.6426 37.3213 -0.5
      vertex 31.3477 34.4453 -0.5
      vertex 28.6426 34.4688 -0.5
    endloop
  endfacet
  facet normal -0 -0 -1
    outer loop
      vertex 2.9375 40.627 -0.5
      vertex 2.94629 39.8955 -0.5
      vertex 0 52.5898 -0.5
    endloop
  endfacet
  facet normal 0 0 -1
    outer loop
      vertex 3.15723 39.1787 -0.5
      vertex 3.57617 38.5195 -0.5
      vertex 3.56055 33.2627 -0.5
    endloop
  endfacet
  facet normal 0 0 -1
    outer loop
      vertex 8.47754 41.2324 -0.5
      vertex 8.1084 41.0645 -0.5
      vertex 8.1748 41.1318 -0.5
    endloop
  endfacet
  facet normal 0 0 -1
    outer loop
      vertex 0.650391 0.637695 -0.5
      vertex 2.54199 2.41699 -0.5
      vertex 1.2998 0.0166016 -0.5
    endloop
  endfacet
  facet normal 0 0 -1
    outer loop
      vertex 0.650391 0.637695 -0.5
      vertex 0 1.23047 -0.5
      vertex 2.54199 2.41699 -0.5
    endloop
  endfacet
  facet normal 0 0 -1
    outer loop
      vertex 3.41016 15.6348 -0.5
      vertex 3.19141 21.6172 -0.5
      vertex 3.63672 20.8652 -0.5
    endloop
  endfacet
  facet normal -0 -0 -1
    outer loop
      vertex 2.54199 46.0654 -0.5
      vertex 2.9375 40.627 -0.5
      vertex 0 52.5898 -0.5
    endloop
  endfacet
  facet normal 0 0 -1
    outer loop
      vertex 2.54199 46.0654 -0.5
      vertex 3.12402 41.333 -0.5
      vertex 2.9375 40.627 -0.5
    endloop
  endfacet
  facet normal 0 0 -1
    outer loop
      vertex 2.54199 46.0654 -0.5
      vertex 3.50195 41.9697 -0.5
      vertex 3.12402 41.333 -0.5
    endloop
  endfacet
  facet normal 0 0 -1
    outer loop
      vertex 2.54199 46.0654 -0.5
      vertex 4.0625 42.4971 -0.5
      vertex 3.50195 41.9697 -0.5
    endloop
  endfacet
  facet normal 0 0 -1
    outer loop
      vertex 2.54199 46.0654 -0.5
      vertex 4.6084 42.8057 -0.5
      vertex 4.0625 42.4971 -0.5
    endloop
  endfacet
  facet normal 0 0 -1
    outer loop
      vertex 2.54199 46.0654 -0.5
      vertex 4.80273 42.8721 -0.5
      vertex 4.6084 42.8057 -0.5
    endloop
  endfacet
  facet normal 0 0 -1
    outer loop
      vertex 2.54199 46.0654 -0.5
      vertex 5.19141 43.0068 -0.5
      vertex 4.80273 42.8721 -0.5
    endloop
  endfacet
  facet normal 0 0 -1
    outer loop
      vertex 2.54199 46.0654 -0.5
      vertex 6.52734 43.0469 -0.5
      vertex 5.19141 43.0068 -0.5
    endloop
  endfacet
  facet normal -0 0 -1
    outer loop
      vertex 14.9668 43.2334 -0.5
      vertex 10.124 43.165 -0.5
      vertex 2.54199 46.0654 -0.5
    endloop
  endfacet
  facet normal -0 0 -1
    outer loop
      vertex 10.124 43.165 -0.5
      vertex 6.52734 43.0469 -0.5
      vertex 2.54199 46.0654 -0.5
    endloop
  endfacet
  facet normal -0 0 -1
    outer loop
      vertex 20.4326 43.2471 -0.5
      vertex 14.9668 43.2334 -0.5
      vertex 2.54199 46.0654 -0.5
    endloop
  endfacet
  facet normal 0 -0 -1
    outer loop
      vertex 9.50195 41.1016 -0.5
      vertex 10.0322 39.9111 -0.5
      vertex 8.70801 39.21 -0.5
    endloop
  endfacet
  facet normal 0 0 -1
    outer loop
      vertex 25.8936 43.2129 -0.5
      vertex 20.4326 43.2471 -0.5
      vertex 2.54199 46.0654 -0.5
    endloop
  endfacet
  facet normal 0 0 -1
    outer loop
      vertex 30.7275 43.127 -0.5
      vertex 25.8936 43.2129 -0.5
      vertex 2.54199 46.0654 -0.5
    endloop
  endfacet
  facet normal -0 0 -1
    outer loop
      vertex 77.125 46.0654 -0.5
      vertex 30.7275 43.127 -0.5
      vertex 2.54199 46.0654 -0.5
    endloop
  endfacet
  facet normal 0 0 -1
    outer loop
      vertex 77.125 46.0654 -0.5
      vertex 34.3115 42.9951 -0.5
      vertex 30.7275 43.127 -0.5
    endloop
  endfacet
  facet normal 0 0 -1
    outer loop
      vertex 31.3477 37.3447 -0.5
      vertex 33.2578 37.3887 -0.5
      vertex 33.2578 34.4014 -0.5
    endloop
  endfacet
  facet normal 0 0 -1
    outer loop
      vertex 77.125 46.0654 -0.5
      vertex 35.6445 42.9512 -0.5
      vertex 34.3115 42.9951 -0.5
    endloop
  endfacet
  facet normal 0 0 -1
    outer loop
      vertex 36.2012 33.9658 -0.5
      vertex 35.8926 34.0957 -0.5
      vertex 36.2012 37.8232 -0.5
    endloop
  endfacet
  facet normal 0 0 -1
    outer loop
      vertex 36.1338 42.7744 -0.5
      vertex 36.0195 42.8154 -0.5
      vertex 36.4971 42.7012 -0.5
    endloop
  endfacet
  facet normal 0 0 -1
    outer loop
      vertex 36.4971 42.7012 -0.5
      vertex 35.6445 42.9512 -0.5
      vertex 37.3096 42.6074 -0.5
    endloop
  endfacet
  facet normal 0 0 -1
    outer loop
      vertex 37.3096 42.6074 -0.5
      vertex 35.6445 42.9512 -0.5
      vertex 38.5674 42.5332 -0.5
    endloop
  endfacet
  facet normal 0 0 -1
    outer loop
      vertex 38.5674 42.5332 -0.5
      vertex 35.6445 42.9512 -0.5
      vertex 40.3838 42.4775 -0.5
    endloop
  endfacet
  facet normal 0 0 -1
    outer loop
      vertex 40.3838 42.4775 -0.5
      vertex 35.6445 42.9512 -0.5
      vertex 42.873 42.4385 -0.5
    endloop
  endfacet
  facet normal 0 0 -1
    outer loop
      vertex 42.873 42.4385 -0.5
      vertex 35.6445 42.9512 -0.5
      vertex 46.1494 42.4121 -0.5
    endloop
  endfacet
  facet normal 0 0 -1
    outer loop
      vertex 46.1494 42.4121 -0.5
      vertex 35.6445 42.9512 -0.5
      vertex 77.125 46.0654 -0.5
    endloop
  endfacet
  facet normal 0 0 -1
    outer loop
      vertex 50.3242 42.3984 -0.5
      vertex 46.1494 42.4121 -0.5
      vertex 77.125 46.0654 -0.5
    endloop
  endfacet
  facet normal 0 0 -1
    outer loop
      vertex 54.2148 42.3926 -0.5
      vertex 50.3242 42.3984 -0.5
      vertex 77.125 46.0654 -0.5
    endloop
  endfacet
  facet normal 0 0 -1
    outer loop
      vertex 77.125 37.0254 -0.5
      vertex 73.875 42.3926 -0.5
      vertex 77.125 46.0654 -0.5
    endloop
  endfacet
  facet normal 0 0 -1
    outer loop
      vertex 73.875 42.3926 -0.5
      vertex 54.2148 42.3926 -0.5
      vertex 77.125 46.0654 -0.5
    endloop
  endfacet
  facet normal 0 0 -1
    outer loop
      vertex 77.125 37.0254 -0.5
      vertex 73.791 40.415 -0.5
      vertex 73.875 42.3926 -0.5
    endloop
  endfacet
  facet normal 0 0 -1
    outer loop
      vertex 77.125 37.0254 -0.5
      vertex 73.6787 38.4375 -0.5
      vertex 73.791 40.415 -0.5
    endloop
  endfacet
  facet normal 0 0 -1
    outer loop
      vertex 49.7129 38.4365 -0.5
      vertex 54.083 38.4375 -0.5
      vertex 52.7598 33.3525 -0.5
    endloop
  endfacet
  facet normal 0 0 -1
    outer loop
      vertex 36.3018 33.916 -0.5
      vertex 36.2012 33.9658 -0.5
      vertex 36.3018 37.8721 -0.5
    endloop
  endfacet
  facet normal 0 0 -1
    outer loop
      vertex 35.3613 34.2314 -0.5
      vertex 35.3613 37.5586 -0.5
      vertex 35.8926 34.0957 -0.5
    endloop
  endfacet
  facet normal 0 0 -1
    outer loop
      vertex 35.3613 37.5586 -0.5
      vertex 35.8926 37.6953 -0.5
      vertex 35.8926 34.0957 -0.5
    endloop
  endfacet
  facet normal 0 0 -1
    outer loop
      vertex 36.3018 37.8721 -0.5
      vertex 36.2012 33.9658 -0.5
      vertex 36.2012 37.8232 -0.5
    endloop
  endfacet
  facet normal 0 0 -1
    outer loop
      vertex 36.2012 37.8232 -0.5
      vertex 35.8926 34.0957 -0.5
      vertex 35.8926 37.6953 -0.5
    endloop
  endfacet
  facet normal 0 -0 -1
    outer loop
      vertex 35.3613 37.5586 -0.5
      vertex 35.3613 34.2314 -0.5
      vertex 34.5391 37.458 -0.5
    endloop
  endfacet
  facet normal 0 0 -1
    outer loop
      vertex 34.5391 37.458 -0.5
      vertex 35.3613 34.2314 -0.5
      vertex 34.5391 34.332 -0.5
    endloop
  endfacet
  facet normal 0 0 -1
    outer loop
      vertex 33.2578 37.3887 -0.5
      vertex 34.5391 34.332 -0.5
      vertex 33.2578 34.4014 -0.5
    endloop
  endfacet
  facet normal 0 0 -1
    outer loop
      vertex 33.2578 37.3887 -0.5
      vertex 34.5391 37.458 -0.5
      vertex 34.5391 34.332 -0.5
    endloop
  endfacet
  facet normal 0 0 -1
    outer loop
      vertex 36.3018 37.8721 -0.5
      vertex 36.4033 33.8643 -0.5
      vertex 36.3018 33.916 -0.5
    endloop
  endfacet
  facet normal 0 0 -1
    outer loop
      vertex 33.2578 34.4014 -0.5
      vertex 31.3477 34.4453 -0.5
      vertex 31.3477 37.3447 -0.5
    endloop
  endfacet
  facet normal 0 -0 -1
    outer loop
      vertex 31.3477 37.3447 -0.5
      vertex 31.3477 34.4453 -0.5
      vertex 28.6426 37.3213 -0.5
    endloop
  endfacet
  facet normal 0 -0 -1
    outer loop
      vertex 28.6426 37.3213 -0.5
      vertex 28.6426 34.4688 -0.5
      vertex 24.9727 37.3105 -0.5
    endloop
  endfacet
  facet normal 0 0 -1
    outer loop
      vertex 24.9727 37.3105 -0.5
      vertex 28.6426 34.4688 -0.5
      vertex 24.9727 34.4795 -0.5
    endloop
  endfacet
  facet normal 0 0 -1
    outer loop
      vertex 21.3721 37.3076 -0.5
      vertex 24.9727 34.4795 -0.5
      vertex 21.3721 34.4814 -0.5
    endloop
  endfacet
  facet normal 0 0 -1
    outer loop
      vertex 10.0322 39.9111 -0.5
      vertex 9.81152 39.4609 -0.5
      vertex 8.70801 39.21 -0.5
    endloop
  endfacet
  facet normal 0 0 -1
    outer loop
      vertex 9.43555 39.1719 -0.5
      vertex 9.81152 39.4609 -0.5
      vertex 9.54199 39.2139 -0.5
    endloop
  endfacet
  facet normal 0 0 -1
    outer loop
      vertex 10.0664 40.4082 -0.5
      vertex 9.8877 40.8379 -0.5
      vertex 9.95801 40.7529 -0.5
    endloop
  endfacet
  facet normal 0 0 -1
    outer loop
      vertex 9.50195 41.1016 -0.5
      vertex 9.81348 40.9238 -0.5
      vertex 9.8877 40.8379 -0.5
    endloop
  endfacet
  facet normal 0 0 -1
    outer loop
      vertex 10.0664 40.4082 -0.5
      vertex 9.50195 41.1016 -0.5
      vertex 9.8877 40.8379 -0.5
    endloop
  endfacet
  facet normal -0 0 -1
    outer loop
      vertex 10.0664 40.4082 -0.5
      vertex 10.0322 39.9111 -0.5
      vertex 9.50195 41.1016 -0.5
    endloop
  endfacet
  facet normal 0 0 -1
    outer loop
      vertex 9.50195 41.1016 -0.5
      vertex 8.70801 39.21 -0.5
      vertex 8.125 39.7051 -0.5
    endloop
  endfacet
  facet normal 0 -0 -1
    outer loop
      vertex 8.9873 41.2383 -0.5
      vertex 9.50195 41.1016 -0.5
      vertex 8.125 39.7051 -0.5
    endloop
  endfacet
  facet normal 0 -0 -1
    outer loop
      vertex 8.1084 41.0645 -0.5
      vertex 8.47754 41.2324 -0.5
      vertex 7.86621 40.4082 -0.5
    endloop
  endfacet
  facet normal 0 -0 -1
    outer loop
      vertex 8.47754 41.2324 -0.5
      vertex 8.9873 41.2383 -0.5
      vertex 7.86621 40.4082 -0.5
    endloop
  endfacet
  facet normal 0 0 -1
    outer loop
      vertex 7.86621 40.4082 -0.5
      vertex 8.9873 41.2383 -0.5
      vertex 8.125 39.7051 -0.5
    endloop
  endfacet
  facet normal 0 0 -1
    outer loop
      vertex 9.81152 39.4609 -0.5
      vertex 9.43555 39.1719 -0.5
      vertex 8.70801 39.21 -0.5
    endloop
  endfacet
  facet normal 0 0 -1
    outer loop
      vertex 8.70801 39.21 -0.5
      vertex 9.43555 39.1719 -0.5
      vertex 9.27832 39.1143 -0.5
    endloop
  endfacet
  facet normal 0 0 -1
    outer loop
      vertex 34.7705 25.5732 -0.5
      vertex 34.8604 28.8359 -0.5
      vertex 35.5557 25.4746 -0.5
    endloop
  endfacet
  facet normal 0 0 -1
    outer loop
      vertex 7.3252 28.6602 -0.5
      vertex 8.91602 28.6201 -0.5
      vertex 9.54199 25.6436 -0.5
    endloop
  endfacet
  facet normal 0 0 -1
    outer loop
      vertex 8.61523 20.1523 -0.5
      vertex 13.6162 20.0947 -0.5
      vertex 9.4873 16.8662 -0.5
    endloop
  endfacet
  facet normal 0 -0 -1
    outer loop
      vertex 3.15723 39.1787 -0.5
      vertex 3.56055 33.2627 -0.5
      vertex 3.13672 32.5986 -0.5
    endloop
  endfacet
  facet normal 0 0 -1
    outer loop
      vertex 2.94629 39.8955 -0.5
      vertex 3.15723 39.1787 -0.5
      vertex 3.13672 32.5986 -0.5
    endloop
  endfacet
  facet normal 0 0 -1
    outer loop
      vertex 4.17676 25.1758 -0.5
      vertex 4.1543 29.2725 -0.5
      vertex 4.63574 25.4658 -0.5
    endloop
  endfacet
  facet normal 0 -0 -1
    outer loop
      vertex 8.33398 32.3906 -0.5
      vertex 8.78613 30.583 -0.5
      vertex 7.96777 31.8984 -0.5
    endloop
  endfacet
  facet normal 0 0 -1
    outer loop
      vertex 4.17676 25.1758 -0.5
      vertex 3.55371 29.8047 -0.5
      vertex 4.1543 29.2725 -0.5
    endloop
  endfacet
  facet normal 0 0 -1
    outer loop
      vertex 8.33398 32.3906 -0.5
      vertex 7.96777 31.8984 -0.5
      vertex 8.21582 32.3057 -0.5
    endloop
  endfacet
  facet normal -0 0 -1
    outer loop
      vertex 4.17676 25.1758 -0.5
      vertex 3.61621 24.6367 -0.5
      vertex 3.55371 29.8047 -0.5
    endloop
  endfacet
  facet normal 0 0 -1
    outer loop
      vertex 2.92969 31.8809 -0.5
      vertex 2.94629 39.8955 -0.5
      vertex 3.13672 32.5986 -0.5
    endloop
  endfacet
  facet normal -0 0 -1
    outer loop
      vertex 3.14453 30.4434 -0.5
      vertex 2.9707 23.4971 -0.5
      vertex 2.93359 31.1494 -0.5
    endloop
  endfacet
  facet normal 0 0 -1
    outer loop
      vertex 3.41016 15.6348 -0.5
      vertex 3.63672 20.8652 -0.5
      vertex 3.99219 16.2734 -0.5
    endloop
  endfacet
  facet normal 0 0 -1
    outer loop
      vertex 2.93359 31.1494 -0.5
      vertex 0 52.5898 -0.5
      vertex 2.92969 31.8809 -0.5
    endloop
  endfacet
  facet normal -0 0 -1
    outer loop
      vertex 3.41016 15.6348 -0.5
      vertex 2.9873 14.9092 -0.5
      vertex 3.19141 21.6172 -0.5
    endloop
  endfacet
  facet normal -0 0 -1
    outer loop
      vertex 2.89941 23.1211 -0.5
      vertex 0 1.23047 -0.5
      vertex 0 52.5898 -0.5
    endloop
  endfacet
  facet normal 0 0 -1
    outer loop
      vertex 2.92969 31.8809 -0.5
      vertex 0 52.5898 -0.5
      vertex 2.94629 39.8955 -0.5
    endloop
  endfacet
  facet normal 0 0 -1
    outer loop
      vertex 3.56055 33.2627 -0.5
      vertex 4.03516 38.0742 -0.5
      vertex 4.03223 33.7139 -0.5
    endloop
  endfacet
  facet normal 0 -0 -1
    outer loop
      vertex 3.57617 38.5195 -0.5
      vertex 4.03516 38.0742 -0.5
      vertex 3.56055 33.2627 -0.5
    endloop
  endfacet
  facet normal 0 -0 -1
    outer loop
      vertex 8.82129 32.6016 -0.5
      vertex 8.93066 30.5645 -0.5
      vertex 8.78613 30.583 -0.5
    endloop
  endfacet
  facet normal 0 -0 -1
    outer loop
      vertex 4.03516 38.0742 -0.5
      vertex 4.20996 37.957 -0.5
      vertex 4.03223 33.7139 -0.5
    endloop
  endfacet
  facet normal 0 0 -1
    outer loop
      vertex 4.03223 33.7139 -0.5
      vertex 4.20996 37.957 -0.5
      vertex 4.20996 33.832 -0.5
    endloop
  endfacet
  facet normal 0 -0 -1
    outer loop
      vertex 8.43652 32.4697 -0.5
      vertex 8.82129 32.6016 -0.5
      vertex 8.33398 32.3906 -0.5
    endloop
  endfacet
  facet normal 0 0 -1
    outer loop
      vertex 4.20996 33.832 -0.5
      vertex 4.20996 37.957 -0.5
      vertex 5.1709 34.4814 -0.5
    endloop
  endfacet
  facet normal 0 0 -1
    outer loop
      vertex 5.1709 34.4814 -0.5
      vertex 4.20996 37.957 -0.5
      vertex 5.1709 37.3076 -0.5
    endloop
  endfacet
  facet normal 0 0 -1
    outer loop
      vertex 21.3721 37.3076 -0.5
      vertex 24.9727 37.3105 -0.5
      vertex 24.9727 34.4795 -0.5
    endloop
  endfacet
  facet normal 0 0 -1
    outer loop
      vertex 5.1709 37.3076 -0.5
      vertex 21.3721 34.4814 -0.5
      vertex 5.1709 34.4814 -0.5
    endloop
  endfacet
  facet normal -0 -0 -1
    outer loop
      vertex 21.3721 37.3076 -0.5
      vertex 21.3721 34.4814 -0.5
      vertex 5.1709 37.3076 -0.5
    endloop
  endfacet
  facet normal 0 0 -1
    outer loop
      vertex 10.0635 31.3545 -0.5
      vertex 10.0293 31.8818 -0.5
      vertex 10.0703 31.7627 -0.5
    endloop
  endfacet
  facet normal 0 0 -1
    outer loop
      vertex 36.4023 37.9238 -0.5
      vertex 36.7148 38.0518 -0.5
      vertex 36.4033 33.8643 -0.5
    endloop
  endfacet
  facet normal 0 0 -1
    outer loop
      vertex 36.4033 33.8643 -0.5
      vertex 36.7148 38.0518 -0.5
      vertex 36.7246 33.7305 -0.5
    endloop
  endfacet
  facet normal 0 0 -1
    outer loop
      vertex 36.7246 33.7305 -0.5
      vertex 36.7148 38.0518 -0.5
      vertex 37.29 38.1885 -0.5
    endloop
  endfacet
  facet normal 0 0 -1
    outer loop
      vertex 37.3604 33.5898 -0.5
      vertex 36.7246 33.7305 -0.5
      vertex 37.29 38.1885 -0.5
    endloop
  endfacet
  facet normal 0 0 -1
    outer loop
      vertex 38.4678 33.4902 -0.5
      vertex 37.3604 33.5898 -0.5
      vertex 38.2285 38.2871 -0.5
    endloop
  endfacet
  facet normal 0 0 -1
    outer loop
      vertex 39.7344 38.3564 -0.5
      vertex 38.4678 33.4902 -0.5
      vertex 38.2285 38.2871 -0.5
    endloop
  endfacet
  facet normal 0 -0 -1
    outer loop
      vertex 39.7344 38.3564 -0.5
      vertex 40.3037 33.4229 -0.5
      vertex 38.4678 33.4902 -0.5
    endloop
  endfacet
  facet normal 0 0 -1
    outer loop
      vertex 39.7344 38.3564 -0.5
      vertex 42.0137 38.4004 -0.5
      vertex 40.3037 33.4229 -0.5
    endloop
  endfacet
  facet normal 0 0 -1
    outer loop
      vertex 40.3037 33.4229 -0.5
      vertex 42.0137 38.4004 -0.5
      vertex 43.124 33.3818 -0.5
    endloop
  endfacet
  facet normal 0 0 -1
    outer loop
      vertex 43.124 33.3818 -0.5
      vertex 42.0137 38.4004 -0.5
      vertex 45.2715 38.4258 -0.5
    endloop
  endfacet
  facet normal 0 0 -1
    outer loop
      vertex 47.1914 33.3613 -0.5
      vertex 43.124 33.3818 -0.5
      vertex 45.2715 38.4258 -0.5
    endloop
  endfacet
  facet normal 0 0 -1
    outer loop
      vertex 49.7129 38.4365 -0.5
      vertex 47.1914 33.3613 -0.5
      vertex 45.2715 38.4258 -0.5
    endloop
  endfacet
  facet normal 0 -0 -1
    outer loop
      vertex 49.7129 38.4365 -0.5
      vertex 52.7598 33.3525 -0.5
      vertex 47.1914 33.3613 -0.5
    endloop
  endfacet
  facet normal 0 -0 -1
    outer loop
      vertex 54.083 38.4375 -0.5
      vertex 58.2568 33.3516 -0.5
      vertex 52.7598 33.3525 -0.5
    endloop
  endfacet
  facet normal 0 0 -1
    outer loop
      vertex 82.7744 24.5938 -0.5
      vertex 58.1934 24.5938 -0.5
      vertex 58.4219 29.6787 -0.5
    endloop
  endfacet
  facet normal -0 0 -1
    outer loop
      vertex 77.125 37.0254 -0.5
      vertex 58.2568 33.3516 -0.5
      vertex 73.6787 38.4375 -0.5
    endloop
  endfacet
  facet normal 0 0 -1
    outer loop
      vertex 82.7744 20.9219 -0.5
      vertex 82.7744 24.5938 -0.5
      vertex 83.0576 17.249 -0.5
    endloop
  endfacet
  facet normal 0 0 -1
    outer loop
      vertex 82.7744 29.6787 -0.5
      vertex 82.7744 33.3516 -0.5
      vertex 83.0576 37.0254 -0.5
    endloop
  endfacet
  facet normal 0 0 -1
    outer loop
      vertex 82.7744 33.3516 -0.5
      vertex 77.125 37.0254 -0.5
      vertex 83.0576 37.0254 -0.5
    endloop
  endfacet
  facet normal 0 0 -1
    outer loop
      vertex 82.7744 24.5938 -0.5
      vertex 82.7744 29.6787 -0.5
      vertex 85.5996 52.7598 -0.5
    endloop
  endfacet
  facet normal 0 0 -1
    outer loop
      vertex 37.3398 24.832 -0.5
      vertex 36.3877 25.1592 -0.5
      vertex 36.5557 29.1533 -0.5
    endloop
  endfacet
  facet normal 0 0 -1
    outer loop
      vertex 36.5557 29.1533 -0.5
      vertex 36.3027 25.21 -0.5
      vertex 36.2822 29.0479 -0.5
    endloop
  endfacet
  facet normal 0 0 -1
    outer loop
      vertex 34.8604 28.8359 -0.5
      vertex 35.7354 28.9277 -0.5
      vertex 35.5557 25.4746 -0.5
    endloop
  endfacet
  facet normal 0 0 -1
    outer loop
      vertex 37.0332 29.3506 -0.5
      vertex 36.6406 29.1992 -0.5
      vertex 36.7314 29.249 -0.5
    endloop
  endfacet
  facet normal 0 0 -1
    outer loop
      vertex 37.0332 29.3506 -0.5
      vertex 36.5557 29.1533 -0.5
      vertex 36.6406 29.1992 -0.5
    endloop
  endfacet
  facet normal 0 0 -1
    outer loop
      vertex 36.0371 25.3379 -0.5
      vertex 36.2822 29.0479 -0.5
      vertex 36.3027 25.21 -0.5
    endloop
  endfacet
  facet normal 0 0 -1
    outer loop
      vertex 35.5557 25.4746 -0.5
      vertex 35.7354 28.9277 -0.5
      vertex 36.0371 25.3379 -0.5
    endloop
  endfacet
  facet normal 0 -0 -1
    outer loop
      vertex 33.5264 28.7656 -0.5
      vertex 34.7705 25.5732 -0.5
      vertex 33.5127 25.6396 -0.5
    endloop
  endfacet
  facet normal 0 0 -1
    outer loop
      vertex 33.5264 28.7656 -0.5
      vertex 34.8604 28.8359 -0.5
      vertex 34.7705 25.5732 -0.5
    endloop
  endfacet
  facet normal 0 0 -1
    outer loop
      vertex 36.2822 29.0479 -0.5
      vertex 36.0371 25.3379 -0.5
      vertex 35.7354 28.9277 -0.5
    endloop
  endfacet
  facet normal 0 0 -1
    outer loop
      vertex 31.5957 28.7129 -0.5
      vertex 33.5264 28.7656 -0.5
      vertex 33.5127 25.6396 -0.5
    endloop
  endfacet
  facet normal 0 0 -1
    outer loop
      vertex 31.6094 25.6807 -0.5
      vertex 31.5957 28.7129 -0.5
      vertex 33.5127 25.6396 -0.5
    endloop
  endfacet
  facet normal 0 0 -1
    outer loop
      vertex 28.8945 25.7002 -0.5
      vertex 28.9336 28.6719 -0.5
      vertex 31.6094 25.6807 -0.5
    endloop
  endfacet
  facet normal 0 0 -1
    outer loop
      vertex 28.8945 25.7002 -0.5
      vertex 25.4053 28.6367 -0.5
      vertex 28.9336 28.6719 -0.5
    endloop
  endfacet
  facet normal 0 0 -1
    outer loop
      vertex 48.0771 20.9072 -0.5
      vertex 45.4062 15.8506 -0.5
      vertex 44.0449 20.8838 -0.5
    endloop
  endfacet
  facet normal 0 0 -1
    outer loop
      vertex 18.8652 25.6963 -0.5
      vertex 20.877 28.6055 -0.5
      vertex 20.3408 25.6963 -0.5
    endloop
  endfacet
  facet normal 0 0 -1
    outer loop
      vertex 14.4404 25.6826 -0.5
      vertex 16.9248 28.5898 -0.5
      vertex 18.8652 25.6963 -0.5
    endloop
  endfacet
  facet normal 0 0 -1
    outer loop
      vertex 11.0068 28.5957 -0.5
      vertex 13.6553 28.5859 -0.5
      vertex 14.4404 25.6826 -0.5
    endloop
  endfacet
  facet normal 0 0 -1
    outer loop
      vertex 9.54199 25.6436 -0.5
      vertex 11.0068 28.5957 -0.5
      vertex 14.4404 25.6826 -0.5
    endloop
  endfacet
  facet normal 0 0 -1
    outer loop
      vertex 9.83105 30.915 -0.5
      vertex 10.0293 31.8818 -0.5
      vertex 10.0635 31.3545 -0.5
    endloop
  endfacet
  facet normal -0 0 -1
    outer loop
      vertex 9.83105 30.915 -0.5
      vertex 9.38477 30.6348 -0.5
      vertex 10.0293 31.8818 -0.5
    endloop
  endfacet
  facet normal 0 0 -1
    outer loop
      vertex 10.0293 31.8818 -0.5
      vertex 9.3291 32.5713 -0.5
      vertex 9.76367 32.3242 -0.5
    endloop
  endfacet
  facet normal -0 -0 -1
    outer loop
      vertex 9.99512 32.002 -0.5
      vertex 10.0293 31.8818 -0.5
      vertex 9.76367 32.3242 -0.5
    endloop
  endfacet
  facet normal -0 0 -1
    outer loop
      vertex 10.0293 31.8818 -0.5
      vertex 9.38477 30.6348 -0.5
      vertex 9.3291 32.5713 -0.5
    endloop
  endfacet
  facet normal -0 -0 -1
    outer loop
      vertex 9.3291 32.5713 -0.5
      vertex 9.38477 30.6348 -0.5
      vertex 8.82129 32.6016 -0.5
    endloop
  endfacet
  facet normal 0 0 -1
    outer loop
      vertex 8.82129 32.6016 -0.5
      vertex 9.38477 30.6348 -0.5
      vertex 8.93066 30.5645 -0.5
    endloop
  endfacet
  facet normal 0 0 -1
    outer loop
      vertex 8.82129 32.6016 -0.5
      vertex 8.78613 30.583 -0.5
      vertex 8.33398 32.3906 -0.5
    endloop
  endfacet
  facet normal 0 0 -1
    outer loop
      vertex 7.94531 31.3281 -0.5
      vertex 7.96777 31.8984 -0.5
      vertex 8.78613 30.583 -0.5
    endloop
  endfacet
  facet normal 0 0 -1
    outer loop
      vertex 7.94531 31.3281 -0.5
      vertex 8.78613 30.583 -0.5
      vertex 8.23145 30.8379 -0.5
    endloop
  endfacet
  facet normal 0 0 -1
    outer loop
      vertex 8.23145 30.8379 -0.5
      vertex 8.78613 30.583 -0.5
      vertex 8.6416 30.6006 -0.5
    endloop
  endfacet
  facet normal 0 0 -1
    outer loop
      vertex 25.1943 25.7031 -0.5
      vertex 22.0088 28.6123 -0.5
      vertex 25.4053 28.6367 -0.5
    endloop
  endfacet
  facet normal 0 0 -1
    outer loop
      vertex 20.877 28.6055 -0.5
      vertex 22.0088 28.6123 -0.5
      vertex 21.5537 25.6992 -0.5
    endloop
  endfacet
  facet normal 0 0 -1
    outer loop
      vertex 4.7373 28.958 -0.5
      vertex 4.85938 25.5488 -0.5
      vertex 4.80273 25.5264 -0.5
    endloop
  endfacet
  facet normal 0 0 -1
    outer loop
      vertex 4.63574 25.4658 -0.5
      vertex 4.7373 28.958 -0.5
      vertex 4.80273 25.5264 -0.5
    endloop
  endfacet
  facet normal -0 0 -1
    outer loop
      vertex 9.875 22.3184 -0.5
      vertex 9.80371 22.2207 -0.5
      vertex 9.71777 23.5771 -0.5
    endloop
  endfacet
  facet normal 0 -0 -1
    outer loop
      vertex 3.55371 29.8047 -0.5
      vertex 3.61621 24.6367 -0.5
      vertex 3.18066 23.9932 -0.5
    endloop
  endfacet
  facet normal 0 0 -1
    outer loop
      vertex 2.93359 31.1494 -0.5
      vertex 2.9707 23.4971 -0.5
      vertex 2.9375 23.3232 -0.5
    endloop
  endfacet
  facet normal -0 0 -1
    outer loop
      vertex 9.30469 21.8457 -0.5
      vertex 8.72559 21.7979 -0.5
      vertex 7.9668 22.5596 -0.5
    endloop
  endfacet
  facet normal 0 0 -1
    outer loop
      vertex 2.89941 23.1211 -0.5
      vertex 2.93359 31.1494 -0.5
      vertex 2.9375 23.3232 -0.5
    endloop
  endfacet
  facet normal -0 0 -1
    outer loop
      vertex 2.54199 2.41699 -0.5
      vertex 0 1.23047 -0.5
      vertex 2.54199 8.34961 -0.5
    endloop
  endfacet
  facet normal 0 -0 -1
    outer loop
      vertex 2.9375 22.4824 -0.5
      vertex 2.9873 14.9092 -0.5
      vertex 2.8252 14.3965 -0.5
    endloop
  endfacet
  facet normal 0 0 -1
    outer loop
      vertex 0 1.23047 -0.5
      vertex 2.9375 22.4824 -0.5
      vertex 2.8252 14.3965 -0.5
    endloop
  endfacet
  facet normal 0 0 -1
    outer loop
      vertex 2.54199 8.34961 -0.5
      vertex 2.8252 13.9014 -0.5
      vertex 3.16016 12.9297 -0.5
    endloop
  endfacet
  facet normal -0 0 -1
    outer loop
      vertex 2.9375 22.4824 -0.5
      vertex 0 1.23047 -0.5
      vertex 2.89941 23.1211 -0.5
    endloop
  endfacet
  facet normal 0 0 -1
    outer loop
      vertex 2.89941 23.1211 -0.5
      vertex 0 52.5898 -0.5
      vertex 2.93359 31.1494 -0.5
    endloop
  endfacet
  facet normal 0 -0 -1
    outer loop
      vertex 3.14453 30.4434 -0.5
      vertex 3.18066 23.9932 -0.5
      vertex 2.9707 23.4971 -0.5
    endloop
  endfacet
  facet normal 0 0 -1
    outer loop
      vertex 3.14453 30.4434 -0.5
      vertex 3.55371 29.8047 -0.5
      vertex 3.18066 23.9932 -0.5
    endloop
  endfacet
  facet normal 0 0 -1
    outer loop
      vertex 4.63574 25.4658 -0.5
      vertex 4.1543 29.2725 -0.5
      vertex 4.7373 28.958 -0.5
    endloop
  endfacet
  facet normal 0 0 -1
    outer loop
      vertex 4.7373 28.958 -0.5
      vertex 4.94434 28.8877 -0.5
      vertex 4.85938 25.5488 -0.5
    endloop
  endfacet
  facet normal 0 0 -1
    outer loop
      vertex 4.85938 25.5488 -0.5
      vertex 4.94434 28.8877 -0.5
      vertex 5.05371 28.8516 -0.5
    endloop
  endfacet
  facet normal -0 0 -1
    outer loop
      vertex 6.15723 25.5889 -0.5
      vertex 4.85938 25.5488 -0.5
      vertex 5.40039 28.793 -0.5
    endloop
  endfacet
  facet normal -0 0 -1
    outer loop
      vertex 6.17383 28.7168 -0.5
      vertex 6.15723 25.5889 -0.5
      vertex 5.40039 28.793 -0.5
    endloop
  endfacet
  facet normal 0 -0 -1
    outer loop
      vertex 6.17383 28.7168 -0.5
      vertex 7.3252 28.6602 -0.5
      vertex 6.15723 25.5889 -0.5
    endloop
  endfacet
  facet normal 0 0 -1
    outer loop
      vertex 9.58301 23.7188 -0.5
      vertex 7.99414 23.1514 -0.5
      vertex 8.19238 23.6338 -0.5
    endloop
  endfacet
  facet normal 0 0 -1
    outer loop
      vertex 6.15723 25.5889 -0.5
      vertex 7.3252 28.6602 -0.5
      vertex 9.54199 25.6436 -0.5
    endloop
  endfacet
  facet normal 0 0 -1
    outer loop
      vertex 9.80371 22.2207 -0.5
      vertex 9.71484 22.1006 -0.5
      vertex 9.30469 21.8457 -0.5
    endloop
  endfacet
  facet normal 0 0 -1
    outer loop
      vertex 9.54199 25.6436 -0.5
      vertex 8.91602 28.6201 -0.5
      vertex 11.0068 28.5957 -0.5
    endloop
  endfacet
  facet normal 0 0 -1
    outer loop
      vertex 14.4404 25.6826 -0.5
      vertex 13.6553 28.5859 -0.5
      vertex 16.9248 28.5898 -0.5
    endloop
  endfacet
  facet normal 0 0 -1
    outer loop
      vertex 18.8652 25.6963 -0.5
      vertex 16.9248 28.5898 -0.5
      vertex 20.877 28.6055 -0.5
    endloop
  endfacet
  facet normal 0 0 -1
    outer loop
      vertex 20.3408 25.6963 -0.5
      vertex 20.877 28.6055 -0.5
      vertex 21.5537 25.6992 -0.5
    endloop
  endfacet
  facet normal 0 0 -1
    outer loop
      vertex 21.5537 25.6992 -0.5
      vertex 22.0088 28.6123 -0.5
      vertex 25.1943 25.7031 -0.5
    endloop
  endfacet
  facet normal 0 0 -1
    outer loop
      vertex 25.1943 25.7031 -0.5
      vertex 25.4053 28.6367 -0.5
      vertex 28.8945 25.7002 -0.5
    endloop
  endfacet
  facet normal 0 0 -1
    outer loop
      vertex 28.9336 28.6719 -0.5
      vertex 31.5957 28.7129 -0.5
      vertex 31.6094 25.6807 -0.5
    endloop
  endfacet
  facet normal -0 0 -1
    outer loop
      vertex 3.19141 21.6172 -0.5
      vertex 2.9873 14.9092 -0.5
      vertex 2.9375 22.4824 -0.5
    endloop
  endfacet
  facet normal 0 0 -1
    outer loop
      vertex 36.3877 25.1592 -0.5
      vertex 36.3027 25.21 -0.5
      vertex 36.5557 29.1533 -0.5
    endloop
  endfacet
  facet normal 0 0 -1
    outer loop
      vertex 36.4727 25.1055 -0.5
      vertex 36.3877 25.1592 -0.5
      vertex 36.751 24.9727 -0.5
    endloop
  endfacet
  facet normal 0 0 -1
    outer loop
      vertex 36.751 24.9727 -0.5
      vertex 36.3877 25.1592 -0.5
      vertex 37.3398 24.832 -0.5
    endloop
  endfacet
  facet normal 0 0 -1
    outer loop
      vertex 37.3398 24.832 -0.5
      vertex 36.5557 29.1533 -0.5
      vertex 37.0332 29.3506 -0.5
    endloop
  endfacet
  facet normal 0 0 -1
    outer loop
      vertex 37.7197 29.4648 -0.5
      vertex 37.3398 24.832 -0.5
      vertex 37.0332 29.3506 -0.5
    endloop
  endfacet
  facet normal 0 0 -1
    outer loop
      vertex 37.7197 29.4648 -0.5
      vertex 38.917 29.5508 -0.5
      vertex 38.4102 24.7334 -0.5
    endloop
  endfacet
  facet normal 0 -0 -1
    outer loop
      vertex 37.7197 29.4648 -0.5
      vertex 38.4102 24.7334 -0.5
      vertex 37.3398 24.832 -0.5
    endloop
  endfacet
  facet normal 0 0 -1
    outer loop
      vertex 38.4102 24.7334 -0.5
      vertex 38.917 29.5508 -0.5
      vertex 40.2227 24.665 -0.5
    endloop
  endfacet
  facet normal 0 0 -1
    outer loop
      vertex 40.2227 24.665 -0.5
      vertex 38.917 29.5508 -0.5
      vertex 40.8438 29.6084 -0.5
    endloop
  endfacet
  facet normal 0 0 -1
    outer loop
      vertex 43.0312 24.624 -0.5
      vertex 40.2227 24.665 -0.5
      vertex 40.8438 29.6084 -0.5
    endloop
  endfacet
  facet normal 0 0 -1
    outer loop
      vertex 43.7139 29.6475 -0.5
      vertex 43.0312 24.624 -0.5
      vertex 40.8438 29.6084 -0.5
    endloop
  endfacet
  facet normal 0 -0 -1
    outer loop
      vertex 43.7139 29.6475 -0.5
      vertex 47.0977 24.6035 -0.5
      vertex 43.0312 24.624 -0.5
    endloop
  endfacet
  facet normal 0 -0 -1
    outer loop
      vertex 47.749 29.668 -0.5
      vertex 52.6777 24.5947 -0.5
      vertex 47.0977 24.6035 -0.5
    endloop
  endfacet
  facet normal 0 0 -1
    outer loop
      vertex 47.749 29.668 -0.5
      vertex 53.1631 29.6777 -0.5
      vertex 52.6777 24.5947 -0.5
    endloop
  endfacet
  facet normal 0 0 -1
    outer loop
      vertex 52.6777 24.5947 -0.5
      vertex 53.1631 29.6777 -0.5
      vertex 58.1934 24.5938 -0.5
    endloop
  endfacet
  facet normal 0 0 -1
    outer loop
      vertex 82.7744 24.5938 -0.5
      vertex 85.5996 1.31641 -0.5
      vertex 83.0576 17.249 -0.5
    endloop
  endfacet
  facet normal 0 0 -1
    outer loop
      vertex 58.1934 24.5938 -0.5
      vertex 53.1631 29.6777 -0.5
      vertex 58.4219 29.6787 -0.5
    endloop
  endfacet
  facet normal 0 0 -1
    outer loop
      vertex 85.5996 1.31641 -0.5
      vertex 82.7744 24.5938 -0.5
      vertex 85.5996 52.7598 -0.5
    endloop
  endfacet
  facet normal 0 0 -1
    outer loop
      vertex 82.7744 24.5938 -0.5
      vertex 58.4219 29.6787 -0.5
      vertex 82.7744 29.6787 -0.5
    endloop
  endfacet
  facet normal 0 0 -1
    outer loop
      vertex 83.0576 2.41699 -0.5
      vertex 85.5996 1.31641 -0.5
      vertex 84.9785 0.666016 -0.5
    endloop
  endfacet
  facet normal 0 0 -1
    outer loop
      vertex 53.3262 20.9189 -0.5
      vertex 49.8369 15.8389 -0.5
      vertex 48.0771 20.9072 -0.5
    endloop
  endfacet
  facet normal 0 0 -1
    outer loop
      vertex 34.8096 16.8164 -0.5
      vertex 33.5293 16.8828 -0.5
      vertex 34.7461 20.2227 -0.5
    endloop
  endfacet
  facet normal 0 0 -1
    outer loop
      vertex 36.1387 16.5811 -0.5
      vertex 35.6221 16.7168 -0.5
      vertex 36.2764 20.3838 -0.5
    endloop
  endfacet
  facet normal 0 -0 -1
    outer loop
      vertex 36.5566 20.498 -0.5
      vertex 36.8926 20.6221 -0.5
      vertex 36.4971 20.4561 -0.5
    endloop
  endfacet
  facet normal 0 0 -1
    outer loop
      vertex 36.5566 20.498 -0.5
      vertex 36.624 20.5508 -0.5
      vertex 36.8926 20.6221 -0.5
    endloop
  endfacet
  facet normal 0 0 -1
    outer loop
      vertex 36.4971 20.4561 -0.5
      vertex 36.8926 20.6221 -0.5
      vertex 37.6523 20.7197 -0.5
    endloop
  endfacet
  facet normal 0 0 -1
    outer loop
      vertex 36.2764 20.3838 -0.5
      vertex 35.6221 16.7168 -0.5
      vertex 35.708 20.2939 -0.5
    endloop
  endfacet
  facet normal 0 0 -1
    outer loop
      vertex 35.708 20.2939 -0.5
      vertex 35.6221 16.7168 -0.5
      vertex 34.8096 16.8164 -0.5
    endloop
  endfacet
  facet normal 0 0 -1
    outer loop
      vertex 36.4326 16.4512 -0.5
      vertex 36.1387 16.5811 -0.5
      vertex 36.4971 20.4561 -0.5
    endloop
  endfacet
  facet normal 0 0 -1
    outer loop
      vertex 33.5293 16.8828 -0.5
      vertex 33.2861 20.1699 -0.5
      vertex 34.7461 20.2227 -0.5
    endloop
  endfacet
  facet normal -0 0 -1
    outer loop
      vertex 18.8613 16.9385 -0.5
      vertex 14.4258 16.9199 -0.5
      vertex 18.7012 20.0742 -0.5
    endloop
  endfacet
  facet normal 0 0 -1
    outer loop
      vertex 28.8877 16.9434 -0.5
      vertex 25.1875 16.9453 -0.5
      vertex 28.459 20.1055 -0.5
    endloop
  endfacet
  facet normal 0 0 -1
    outer loop
      vertex 20.3975 20.0742 -0.5
      vertex 21.5195 20.0771 -0.5
      vertex 21.5527 16.9414 -0.5
    endloop
  endfacet
  facet normal 0 0 -1
    outer loop
      vertex 20.3408 16.9385 -0.5
      vertex 20.3975 20.0742 -0.5
      vertex 21.5527 16.9414 -0.5
    endloop
  endfacet
  facet normal 0 0 -1
    outer loop
      vertex 77.125 17.249 -0.5
      vertex 58.292 20.9219 -0.5
      vertex 82.7744 20.9219 -0.5
    endloop
  endfacet
  facet normal 0 -0 -1
    outer loop
      vertex 9.71777 23.5771 -0.5
      vertex 9.80371 22.2207 -0.5
      vertex 7.99414 23.1514 -0.5
    endloop
  endfacet
  facet normal 0 0 -1
    outer loop
      vertex 9.875 22.3184 -0.5
      vertex 9.79883 23.4951 -0.5
      vertex 10.0664 22.6328 -0.5
    endloop
  endfacet
  facet normal 0 0 -1
    outer loop
      vertex 10.0664 22.6328 -0.5
      vertex 10.0254 23.2314 -0.5
      vertex 10.1406 22.9434 -0.5
    endloop
  endfacet
  facet normal 0 0 -1
    outer loop
      vertex 10.0664 22.6328 -0.5
      vertex 9.79883 23.4951 -0.5
      vertex 10.0254 23.2314 -0.5
    endloop
  endfacet
  facet normal 0 0 -1
    outer loop
      vertex 9.875 22.3184 -0.5
      vertex 9.71777 23.5771 -0.5
      vertex 9.79883 23.4951 -0.5
    endloop
  endfacet
  facet normal 0 0 -1
    outer loop
      vertex 7.99414 23.1514 -0.5
      vertex 9.58301 23.7188 -0.5
      vertex 9.71777 23.5771 -0.5
    endloop
  endfacet
  facet normal 0 0 -1
    outer loop
      vertex 8.19238 23.6338 -0.5
      vertex 8.30566 23.7617 -0.5
      vertex 9.58301 23.7188 -0.5
    endloop
  endfacet
  facet normal 0 0 -1
    outer loop
      vertex 9.58301 23.7188 -0.5
      vertex 8.30566 23.7617 -0.5
      vertex 8.92285 24.0078 -0.5
    endloop
  endfacet
  facet normal 0 -0 -1
    outer loop
      vertex 8.14941 23.5771 -0.5
      vertex 8.19238 23.6338 -0.5
      vertex 7.99414 23.1514 -0.5
    endloop
  endfacet
  facet normal 0 -0 -1
    outer loop
      vertex 7.99414 23.1514 -0.5
      vertex 9.80371 22.2207 -0.5
      vertex 7.95117 22.6523 -0.5
    endloop
  endfacet
  facet normal 0 0 -1
    outer loop
      vertex 7.95117 22.6523 -0.5
      vertex 9.80371 22.2207 -0.5
      vertex 9.30469 21.8457 -0.5
    endloop
  endfacet
  facet normal 0 0 -1
    outer loop
      vertex 7.9668 22.5596 -0.5
      vertex 7.95117 22.6523 -0.5
      vertex 9.30469 21.8457 -0.5
    endloop
  endfacet
  facet normal 0 0 -1
    outer loop
      vertex 7.98438 22.4258 -0.5
      vertex 7.9668 22.5596 -0.5
      vertex 8.22559 22.0469 -0.5
    endloop
  endfacet
  facet normal 0 0 -1
    outer loop
      vertex 8.22559 22.0469 -0.5
      vertex 7.9668 22.5596 -0.5
      vertex 8.72559 21.7979 -0.5
    endloop
  endfacet
  facet normal 0 0 -1
    outer loop
      vertex 84.3857 0.0166016 -0.5
      vertex 83.0576 2.41699 -0.5
      vertex 84.9785 0.666016 -0.5
    endloop
  endfacet
  facet normal 0 -0 -1
    outer loop
      vertex 53.3262 20.9189 -0.5
      vertex 54.1982 15.8359 -0.5
      vertex 49.8369 15.8389 -0.5
    endloop
  endfacet
  facet normal -0 0 -1
    outer loop
      vertex 11.7227 11.3438 -0.5
      vertex 2.54199 8.34961 -0.5
      vertex 8.9541 11.3662 -0.5
    endloop
  endfacet
  facet normal 0 0 -1
    outer loop
      vertex 77.125 8.20898 -0.5
      vertex 39.834 8.26562 -0.5
      vertex 55.4561 12.1641 -0.5
    endloop
  endfacet
  facet normal 0 0 -1
    outer loop
      vertex 84.3857 0.0166016 -0.5
      vertex 1.2998 0.0166016 -0.5
      vertex 83.0576 2.41699 -0.5
    endloop
  endfacet
  facet normal 0 0 -1
    outer loop
      vertex 1.2998 0.0166016 -0.5
      vertex 2.54199 2.41699 -0.5
      vertex 83.0576 2.41699 -0.5
    endloop
  endfacet
  facet normal 0 0 -1
    outer loop
      vertex 31.6123 16.9238 -0.5
      vertex 28.8877 16.9434 -0.5
      vertex 31.2246 20.1318 -0.5
    endloop
  endfacet
  facet normal 0 0 -1
    outer loop
      vertex 31.6123 16.9238 -0.5
      vertex 31.2246 20.1318 -0.5
      vertex 33.2861 20.1699 -0.5
    endloop
  endfacet
  facet normal 0 0 -1
    outer loop
      vertex 37.6523 20.7197 -0.5
      vertex 36.9219 16.2236 -0.5
      vertex 36.623 16.3516 -0.5
    endloop
  endfacet
  facet normal 0 0 -1
    outer loop
      vertex 42.1611 15.874 -0.5
      vertex 41.0693 20.8486 -0.5
      vertex 44.0449 20.8838 -0.5
    endloop
  endfacet
  facet normal 0 0 -1
    outer loop
      vertex 8.3623 6.43359 -0.5
      vertex 8.02246 6.11816 -0.5
      vertex 8.05859 6.2168 -0.5
    endloop
  endfacet
  facet normal 0 -0 -1
    outer loop
      vertex 82.7744 20.9219 -0.5
      vertex 83.0576 17.249 -0.5
      vertex 77.125 17.249 -0.5
    endloop
  endfacet
  facet normal 0 0 -1
    outer loop
      vertex 83.0576 17.249 -0.5
      vertex 85.5996 1.31641 -0.5
      vertex 83.0576 2.41699 -0.5
    endloop
  endfacet
  facet normal 0 0 -1
    outer loop
      vertex 10.0449 5.30859 -0.5
      vertex 9.87891 4.75977 -0.5
      vertex 9.44922 4.39551 -0.5
    endloop
  endfacet
  facet normal 0 0 -1
    outer loop
      vertex 8.81348 4.31055 -0.5
      vertex 10.0449 5.30859 -0.5
      vertex 9.44922 4.39551 -0.5
    endloop
  endfacet
  facet normal 0 -0 -1
    outer loop
      vertex 9.4834 6.33301 -0.5
      vertex 9.96094 5.80664 -0.5
      vertex 7.8916 5.4668 -0.5
    endloop
  endfacet
  facet normal 0 0 -1
    outer loop
      vertex 9.4834 6.33301 -0.5
      vertex 9.8877 5.94922 -0.5
      vertex 9.96094 5.80664 -0.5
    endloop
  endfacet
  facet normal 0 0 -1
    outer loop
      vertex 9.4834 6.33301 -0.5
      vertex 9.8252 6.06641 -0.5
      vertex 9.8877 5.94922 -0.5
    endloop
  endfacet
  facet normal 0 0 -1
    outer loop
      vertex 7.8916 5.4668 -0.5
      vertex 9.96094 5.80664 -0.5
      vertex 10.0449 5.30859 -0.5
    endloop
  endfacet
  facet normal 0 -0 -1
    outer loop
      vertex 7.96484 5.96582 -0.5
      vertex 8.91211 6.5 -0.5
      vertex 7.8916 5.4668 -0.5
    endloop
  endfacet
  facet normal 0 0 -1
    outer loop
      vertex 8.3623 6.43359 -0.5
      vertex 7.96484 5.96582 -0.5
      vertex 8.02246 6.11816 -0.5
    endloop
  endfacet
  facet normal 0 -0 -1
    outer loop
      vertex 8.3623 6.43359 -0.5
      vertex 8.91211 6.5 -0.5
      vertex 7.96484 5.96582 -0.5
    endloop
  endfacet
  facet normal 0 -0 -1
    outer loop
      vertex 8.91211 6.5 -0.5
      vertex 9.4834 6.33301 -0.5
      vertex 7.8916 5.4668 -0.5
    endloop
  endfacet
  facet normal 0 0 -1
    outer loop
      vertex 7.8916 5.4668 -0.5
      vertex 8.81348 4.31055 -0.5
      vertex 7.99414 4.90723 -0.5
    endloop
  endfacet
  facet normal 0 0 -1
    outer loop
      vertex 7.8916 5.4668 -0.5
      vertex 10.0449 5.30859 -0.5
      vertex 8.81348 4.31055 -0.5
    endloop
  endfacet
  facet normal 0 0 -1
    outer loop
      vertex 8.30859 4.50195 -0.5
      vertex 8.81348 4.31055 -0.5
      vertex 8.68262 4.32422 -0.5
    endloop
  endfacet
  facet normal 0 0 -1
    outer loop
      vertex 8.30859 4.50195 -0.5
      vertex 7.99414 4.90723 -0.5
      vertex 8.81348 4.31055 -0.5
    endloop
  endfacet
  facet normal 0 0 -1
    outer loop
      vertex 8.81348 4.31055 -0.5
      vertex 9.44922 4.39551 -0.5
      vertex 8.9668 4.29297 -0.5
    endloop
  endfacet
  facet normal 0 0 -1
    outer loop
      vertex 2.54199 8.34961 -0.5
      vertex 20.1992 11.3438 -0.5
      vertex 21.2959 11.3438 -0.5
    endloop
  endfacet
  facet normal 0 -0 -1
    outer loop
      vertex 24.5869 11.3486 -0.5
      vertex 39.834 8.26562 -0.5
      vertex 21.2959 11.3438 -0.5
    endloop
  endfacet
  facet normal 0 -0 -1
    outer loop
      vertex 11.7227 11.3438 -0.5
      vertex 15.4229 11.3389 -0.5
      vertex 2.54199 8.34961 -0.5
    endloop
  endfacet
  facet normal 0 0 -1
    outer loop
      vertex 8.24902 15.0166 -0.5
      vertex 8.00098 14.6113 -0.5
      vertex 8.19238 14.9824 -0.5
    endloop
  endfacet
  facet normal 0 0 -1
    outer loop
      vertex 3.99219 16.2734 -0.5
      vertex 3.63672 20.8652 -0.5
      vertex 4.0459 20.4473 -0.5
    endloop
  endfacet
  facet normal 0 0 -1
    outer loop
      vertex 2.54199 8.34961 -0.5
      vertex 6.97461 11.4043 -0.5
      vertex 8.9541 11.3662 -0.5
    endloop
  endfacet
  facet normal -0 0 -1
    outer loop
      vertex 4.70996 16.7197 -0.5
      vertex 4.63281 16.6836 -0.5
      vertex 4.30078 20.3154 -0.5
    endloop
  endfacet
  facet normal 0 0 -1
    outer loop
      vertex 2.54199 8.34961 -0.5
      vertex 5.63867 11.4678 -0.5
      vertex 6.97461 11.4043 -0.5
    endloop
  endfacet
  facet normal 0 0 -1
    outer loop
      vertex 2.54199 8.34961 -0.5
      vertex 4.80371 11.5566 -0.5
      vertex 5.63867 11.4678 -0.5
    endloop
  endfacet
  facet normal 0 0 -1
    outer loop
      vertex 8.00098 14.6113 -0.5
      vertex 8.41309 15.125 -0.5
      vertex 9.04102 15.2451 -0.5
    endloop
  endfacet
  facet normal 0 0 -1
    outer loop
      vertex 2.54199 8.34961 -0.5
      vertex 4.32812 11.6748 -0.5
      vertex 4.80371 11.5566 -0.5
    endloop
  endfacet
  facet normal 0 0 -1
    outer loop
      vertex 2.54199 8.34961 -0.5
      vertex 4.12402 11.7783 -0.5
      vertex 4.32812 11.6748 -0.5
    endloop
  endfacet
  facet normal 0 0 -1
    outer loop
      vertex 2.54199 8.34961 -0.5
      vertex 4.06836 11.8252 -0.5
      vertex 4.12402 11.7783 -0.5
    endloop
  endfacet
  facet normal 0 0 -1
    outer loop
      vertex 2.54199 8.34961 -0.5
      vertex 3.87598 11.9805 -0.5
      vertex 4.06836 11.8252 -0.5
    endloop
  endfacet
  facet normal 0 0 -1
    outer loop
      vertex 2.54199 8.34961 -0.5
      vertex 3.16016 12.9297 -0.5
      vertex 3.87598 11.9805 -0.5
    endloop
  endfacet
  facet normal 0 0 -1
    outer loop
      vertex 0 1.23047 -0.5
      vertex 2.8252 13.9014 -0.5
      vertex 2.54199 8.34961 -0.5
    endloop
  endfacet
  facet normal 0 0 -1
    outer loop
      vertex 0 1.23047 -0.5
      vertex 2.8252 14.3965 -0.5
      vertex 2.8252 13.9014 -0.5
    endloop
  endfacet
  facet normal -0 0 -1
    outer loop
      vertex 4.45898 16.6152 -0.5
      vertex 3.99219 16.2734 -0.5
      vertex 4.0459 20.4473 -0.5
    endloop
  endfacet
  facet normal -0 -0 -1
    outer loop
      vertex 4.20996 20.3564 -0.5
      vertex 4.45898 16.6152 -0.5
      vertex 4.0459 20.4473 -0.5
    endloop
  endfacet
  facet normal 0 0 -1
    outer loop
      vertex 4.45898 16.6152 -0.5
      vertex 4.30078 20.3154 -0.5
      vertex 4.63281 16.6836 -0.5
    endloop
  endfacet
  facet normal 0 0 -1
    outer loop
      vertex 4.20996 20.3564 -0.5
      vertex 4.30078 20.3154 -0.5
      vertex 4.45898 16.6152 -0.5
    endloop
  endfacet
  facet normal -0 0 -1
    outer loop
      vertex 5.45801 20.2422 -0.5
      vertex 4.70996 16.7197 -0.5
      vertex 4.30078 20.3154 -0.5
    endloop
  endfacet
  facet normal 0 -0 -1
    outer loop
      vertex 5.45801 20.2422 -0.5
      vertex 6.0498 16.7842 -0.5
      vertex 4.70996 16.7197 -0.5
    endloop
  endfacet
  facet normal 0 0 -1
    outer loop
      vertex 5.45801 20.2422 -0.5
      vertex 8.61523 20.1523 -0.5
      vertex 6.0498 16.7842 -0.5
    endloop
  endfacet
  facet normal -0 0 -1
    outer loop
      vertex 9.4873 16.8662 -0.5
      vertex 6.0498 16.7842 -0.5
      vertex 8.61523 20.1523 -0.5
    endloop
  endfacet
  facet normal -0 0 -1
    outer loop
      vertex 18.7012 20.0742 -0.5
      vertex 14.4258 16.9199 -0.5
      vertex 13.6162 20.0947 -0.5
    endloop
  endfacet
  facet normal -0 0 -1
    outer loop
      vertex 14.4258 16.9199 -0.5
      vertex 9.4873 16.8662 -0.5
      vertex 13.6162 20.0947 -0.5
    endloop
  endfacet
  facet normal 0 0 -1
    outer loop
      vertex 20.3408 16.9385 -0.5
      vertex 18.8613 16.9385 -0.5
      vertex 20.3975 20.0742 -0.5
    endloop
  endfacet
  facet normal 0 0 -1
    outer loop
      vertex 18.8613 16.9385 -0.5
      vertex 18.7012 20.0742 -0.5
      vertex 20.3975 20.0742 -0.5
    endloop
  endfacet
  facet normal 0 0 -1
    outer loop
      vertex 21.5527 16.9414 -0.5
      vertex 21.5195 20.0771 -0.5
      vertex 24.8848 20.0879 -0.5
    endloop
  endfacet
  facet normal 0 0 -1
    outer loop
      vertex 2.54199 8.34961 -0.5
      vertex 19.0049 11.3428 -0.5
      vertex 20.1992 11.3438 -0.5
    endloop
  endfacet
  facet normal -0 0 -1
    outer loop
      vertex 25.1875 16.9453 -0.5
      vertex 21.5527 16.9414 -0.5
      vertex 24.8848 20.0879 -0.5
    endloop
  endfacet
  facet normal 0 0 -1
    outer loop
      vertex 28.459 20.1055 -0.5
      vertex 25.1875 16.9453 -0.5
      vertex 24.8848 20.0879 -0.5
    endloop
  endfacet
  facet normal 0 0 -1
    outer loop
      vertex 31.2246 20.1318 -0.5
      vertex 28.8877 16.9434 -0.5
      vertex 28.459 20.1055 -0.5
    endloop
  endfacet
  facet normal 0 0 -1
    outer loop
      vertex 33.5293 16.8828 -0.5
      vertex 31.6123 16.9238 -0.5
      vertex 33.2861 20.1699 -0.5
    endloop
  endfacet
  facet normal 0 0 -1
    outer loop
      vertex 34.8096 16.8164 -0.5
      vertex 34.7461 20.2227 -0.5
      vertex 35.708 20.2939 -0.5
    endloop
  endfacet
  facet normal 0 -0 -1
    outer loop
      vertex 38.6748 12.0166 -0.5
      vertex 39.834 8.26562 -0.5
      vertex 37.5059 11.9443 -0.5
    endloop
  endfacet
  facet normal 0 -0 -1
    outer loop
      vertex 36.2764 20.3838 -0.5
      vertex 36.4971 20.4561 -0.5
      vertex 36.1387 16.5811 -0.5
    endloop
  endfacet
  facet normal 0 -0 -1
    outer loop
      vertex 36.4971 20.4561 -0.5
      vertex 36.5273 16.4014 -0.5
      vertex 36.4326 16.4512 -0.5
    endloop
  endfacet
  facet normal 0 0 -1
    outer loop
      vertex 36.4971 20.4561 -0.5
      vertex 37.6523 20.7197 -0.5
      vertex 36.5273 16.4014 -0.5
    endloop
  endfacet
  facet normal 0 0 -1
    outer loop
      vertex 36.5273 16.4014 -0.5
      vertex 37.6523 20.7197 -0.5
      vertex 36.623 16.3516 -0.5
    endloop
  endfacet
  facet normal 0 0 -1
    outer loop
      vertex 37.6523 20.7197 -0.5
      vertex 37.4785 16.0869 -0.5
      vertex 36.9219 16.2236 -0.5
    endloop
  endfacet
  facet normal 0 -0 -1
    outer loop
      vertex 37.6523 20.7197 -0.5
      vertex 38.4004 15.9863 -0.5
      vertex 37.4785 16.0869 -0.5
    endloop
  endfacet
  facet normal 0 0 -1
    outer loop
      vertex 37.6523 20.7197 -0.5
      vertex 38.9912 20.7949 -0.5
      vertex 38.4004 15.9863 -0.5
    endloop
  endfacet
  facet normal 0 0 -1
    outer loop
      vertex 38.4004 15.9863 -0.5
      vertex 38.9912 20.7949 -0.5
      vertex 39.8926 15.918 -0.5
    endloop
  endfacet
  facet normal 0 0 -1
    outer loop
      vertex 40.4189 12.0684 -0.5
      vertex 39.834 8.26562 -0.5
      vertex 38.6748 12.0166 -0.5
    endloop
  endfacet
  facet normal 0 0 -1
    outer loop
      vertex 39.8926 15.918 -0.5
      vertex 38.9912 20.7949 -0.5
      vertex 41.0693 20.8486 -0.5
    endloop
  endfacet
  facet normal 0 0 -1
    outer loop
      vertex 42.1611 15.874 -0.5
      vertex 39.8926 15.918 -0.5
      vertex 41.0693 20.8486 -0.5
    endloop
  endfacet
  facet normal 0 0 -1
    outer loop
      vertex 42.8545 12.1074 -0.5
      vertex 39.834 8.26562 -0.5
      vertex 40.4189 12.0684 -0.5
    endloop
  endfacet
  facet normal 0 0 -1
    outer loop
      vertex 45.4062 15.8506 -0.5
      vertex 42.1611 15.874 -0.5
      vertex 44.0449 20.8838 -0.5
    endloop
  endfacet
  facet normal 0 0 -1
    outer loop
      vertex 49.8369 15.8389 -0.5
      vertex 45.4062 15.8506 -0.5
      vertex 48.0771 20.9072 -0.5
    endloop
  endfacet
  facet normal 0 0 -1
    outer loop
      vertex 46.0967 12.1338 -0.5
      vertex 39.834 8.26562 -0.5
      vertex 42.8545 12.1074 -0.5
    endloop
  endfacet
  facet normal 0 0 -1
    outer loop
      vertex 53.3262 20.9189 -0.5
      vertex 58.292 20.9219 -0.5
      vertex 54.1982 15.8359 -0.5
    endloop
  endfacet
  facet normal 0 0 -1
    outer loop
      vertex 73.7344 12.1641 -0.5
      vertex 73.7344 15.8359 -0.5
      vertex 77.125 17.249 -0.5
    endloop
  endfacet
  facet normal 0 0 -1
    outer loop
      vertex 73.7344 15.8359 -0.5
      vertex 58.292 20.9219 -0.5
      vertex 77.125 17.249 -0.5
    endloop
  endfacet
  facet normal 0 0 -1
    outer loop
      vertex 73.7344 12.1641 -0.5
      vertex 77.125 17.249 -0.5
      vertex 77.125 8.20898 -0.5
    endloop
  endfacet
  facet normal 0 0 -1
    outer loop
      vertex 77.125 8.20898 -0.5
      vertex 55.4561 12.1641 -0.5
      vertex 73.7344 12.1641 -0.5
    endloop
  endfacet
  facet normal 0 -0 -1
    outer loop
      vertex 54.1572 12.1631 -0.5
      vertex 55.4561 12.1641 -0.5
      vertex 39.834 8.26562 -0.5
    endloop
  endfacet
  facet normal 0 -0 -1
    outer loop
      vertex 50.2588 12.1514 -0.5
      vertex 54.1572 12.1631 -0.5
      vertex 39.834 8.26562 -0.5
    endloop
  endfacet
  facet normal 0 -0 -1
    outer loop
      vertex 46.0967 12.1338 -0.5
      vertex 50.2588 12.1514 -0.5
      vertex 39.834 8.26562 -0.5
    endloop
  endfacet
  facet normal 0 0 -1
    outer loop
      vertex 39.834 8.26562 -0.5
      vertex 36.8008 11.8555 -0.5
      vertex 37.5059 11.9443 -0.5
    endloop
  endfacet
  facet normal 0 0 -1
    outer loop
      vertex 36.4434 11.7393 -0.5
      vertex 36.5225 11.7852 -0.5
      vertex 36.8008 11.8555 -0.5
    endloop
  endfacet
  facet normal 0 0 -1
    outer loop
      vertex 36.3682 11.6973 -0.5
      vertex 36.4434 11.7393 -0.5
      vertex 36.8008 11.8555 -0.5
    endloop
  endfacet
  facet normal 0 0 -1
    outer loop
      vertex 39.834 8.26562 -0.5
      vertex 36.3682 11.6973 -0.5
      vertex 36.8008 11.8555 -0.5
    endloop
  endfacet
  facet normal 0 0 -1
    outer loop
      vertex 39.834 8.26562 -0.5
      vertex 36.1045 11.627 -0.5
      vertex 36.3682 11.6973 -0.5
    endloop
  endfacet
  facet normal 0 0 -1
    outer loop
      vertex 39.834 8.26562 -0.5
      vertex 35.4736 11.5352 -0.5
      vertex 36.1045 11.627 -0.5
    endloop
  endfacet
  facet normal 0 0 -1
    outer loop
      vertex 39.834 8.26562 -0.5
      vertex 34.4541 11.4668 -0.5
      vertex 35.4736 11.5352 -0.5
    endloop
  endfacet
  facet normal 0 0 -1
    outer loop
      vertex 39.834 8.26562 -0.5
      vertex 32.9502 11.416 -0.5
      vertex 34.4541 11.4668 -0.5
    endloop
  endfacet
  facet normal 0 0 -1
    outer loop
      vertex 39.834 8.26562 -0.5
      vertex 30.8682 11.3799 -0.5
      vertex 32.9502 11.416 -0.5
    endloop
  endfacet
  facet normal 0 0 -1
    outer loop
      vertex 39.834 8.26562 -0.5
      vertex 28.1123 11.3594 -0.5
      vertex 30.8682 11.3799 -0.5
    endloop
  endfacet
  facet normal 0 0 -1
    outer loop
      vertex 39.834 8.26562 -0.5
      vertex 24.5869 11.3486 -0.5
      vertex 28.1123 11.3594 -0.5
    endloop
  endfacet
  