<svg width="85.6mm" height="53.98mm" version="1.1" xmlns="http://www.w3.org/2000/svg">
  <!-- Credit Card outline -->
  <rect x="0mm" y="0mm" width="85.6mm" height="53.98mm" rx="3mm" ry="3mm" fill="#fff" stroke="#000" stroke-width="1"/>

  <!-- Lockpick handles -->
  <rect x="2.68mm" y="10.71mm" width="35.24mm" height="6.0mm" rx="3mm" ry="3mm" fill="#fff" stroke="#000" stroke-width="1"/>
  <rect x="2.68mm" y="19.42mm" width="35.24mm" height="6.0mm" rx="3mm" ry="3mm" fill="#fff" stroke="#000" stroke-width="1"/>
  <rect x="2.68mm" y="28.13mm" width="35.24mm" height="6.0mm" rx="3mm" ry="3mm" fill="#fff" stroke="#000" stroke-width="1"/>
  <rect x="2.68mm" y="36.84mm" width="35.24mm" height="6.0mm" rx="3mm" ry="3mm" fill="#fff" stroke="#000" stroke-width="1"/>

  <!-- Tension Wrench -->
  <rect x="2.68mm" y="2.0mm" width="80.24mm" height="6.0mm" fill="#fff" stroke="#000" stroke-width="1"/>
  <rect x="77mm" y="2.0mm" width="6.0mm" height="15mm" fill="#fff" stroke="#000" stroke-width="1"/>

  <rect x="2.68mm" y="45.55mm" width="80.24mm" height="6.0mm" fill="#fff" stroke="#000" stroke-width="1"/>
  <rect x="77mm" y="36.55mm" width="6.0mm" height="15mm" fill="#fff" stroke="#000" stroke-width="1"/>


  <!-- Lockpick keys with adjusted margin-y -->
  <rect x="3.68mm" y="11.71mm" width="70.24mm" height="4.0mm" fill="#fff" stroke="#000" stroke-width="1"/>
  <rect x="3.68mm" y="20.42mm" width="79.24mm" height="4.0mm" fill="#fff" stroke="#000" stroke-width="1"/>
  <rect x="3.68mm" y="29.13mm" width="79.24mm" height="4.0mm" fill="#fff" stroke="#000" stroke-width="1"/>
  <rect x="3.68mm" y="37.84mm" width="70.24mm" height="4.0mm" fill="#fff" stroke="#000" stroke-width="1"/>


  <!-- Circle in the center of each semicircle -->
  <circle cx="8.92mm" cy="5.0mm" r="1mm" fill="#fff"  stroke="#000" stroke-width="1"/>
  <circle cx="8.92mm" cy="13.71mm" r="1mm" fill="#fff"  stroke="#000" stroke-width="1"/>
  <circle cx="8.92mm" cy="22.42mm" r="1mm" fill="#fff"  stroke="#000" stroke-width="1"/>
  <circle cx="8.92mm" cy="31.13mm" r="1mm" fill="#fff"  stroke="#000" stroke-width="1"/>
  <circle cx="8.92mm" cy="39.84mm" r="1mm" fill="#fff"  stroke="#000" stroke-width="1"/>
  <circle cx="8.92mm" cy="48.55mm" r="1mm" fill="#fff"  stroke="#000" stroke-width="1"/>



</svg>