<svg xmlns="http://www.w3.org/2000/svg" version="1.0" viewBox="0 0 2232 2232">

<path fill="#0d1117" d="M616 1116v500h1000V616H616v500zm846.3-417.8c1.5 9 4.1 25.5 5.7 36.8 1.7 11.3 4.2 28.1 5.6 37.5 5.9 39.6 6.2 42.8 7.2 82 1.4 49.8-.5 72.9-8 96.5-3.6 11.5-10.1 25.1-16.3 34.4l-4.5 7 2 4.2c4.5 9.8 6.5 20.1 6.4 34.9 0 12.3-.4 15.1-2.7 22.8-4.7 15.2-12.5 28.3-23.5 39.4-7.7 7.9-13.1 11.8-23.1 16.8-3.9 2-7.1 3.7-7.1 3.9 0 .1.7 4.7 1.5 10.2 1.9 12.9 1.9 39.1 0 54.1-5.8 44.1-25.1 84.8-55.8 117.2-14.2 15-31.1 28.7-66.7 54.1-37.6 26.8-55.7 41.6-79 65-43.3 43.2-62.2 72.1-90.6 137.9l-4.9 11.4-1.1-4.4c-.7-2.4-2.7-10.5-4.4-17.9-11.4-47.5-30.9-80.5-71-119.8-28.1-27.7-54.3-48.6-104-83.2-47.7-33.3-74.8-63.5-91.5-102.3-17.2-39.7-21.5-77-13-110.6 1.4-5.5 2.5-10.4 2.5-10.8 0-.5-1.5-1.4-3.2-2.1-6.5-2.3-18.4-10.2-25.6-16.7-13-12-22-26.1-26.5-41.3-1.9-6.6-2.2-10-2.1-23.7 0-14.4.3-16.8 2.7-24.2 1.4-4.5 3.4-9.9 4.3-11.9 1.5-3.2 1.6-3.9.3-5.9-10.7-17.2-16.1-29.4-20.3-46.5-4.6-18.8-6-33.1-5.9-60 0-32.8 3.1-65.9 10.8-118 1.4-9.1 3.4-22.6 4.5-30 1.1-7.4 3.2-20.3 4.6-28.5 1.4-8.3 2.8-16.9 3.1-19.3.3-2.3.8-4.2 1.2-4.1.3 0 2.9 2.7 5.6 6.1 9.3 11.3 23.7 27.2 37.5 41.3 37.1 38 60.5 58.2 99.5 85.7 12.9 9.1 33.7 24.1 37.1 26.7 11.2 8.8 24.7 23.5 30.1 33 1.5 2.5 2.7 4.7 2.8 4.9.1.1 4.9-.9 10.6-2.2 15.1-3.6 24.3-4.6 40.4-4.6 24.9 0 45.6 4.7 64.3 14.6l10.3 5.5 12.2-6c21.3-10.5 38.2-14.1 66.7-14.1 17.6 0 32.9 1.5 45 4.4 3.6.9 6.8 1.6 7.1 1.6.3 0 2.3-2.6 4.4-5.8 5.3-7.9 22.2-24.5 33.5-32.9 5.2-3.8 16.6-11.8 25.4-17.7 56.4-38.1 107.8-85.4 146.5-134.7 3-3.8 5.7-6.9 6.1-6.9.4 0 1.9 7.3 3.3 16.2z"/>

<path fill="#000" d="M1434.6 735.5c-35.7 37.6-72.8 69.2-116.1 98.9-40.9 28.1-53.4 39.8-64.7 60.5-1.4 2.6-2.1 3-3.5 2.3-3.3-1.7-18.7-5.1-29.7-6.7-14.1-1.9-40.1-1.9-53.1 0-16.1 2.4-33.5 8.9-48.7 18.1l-6 3.7-3.7-2.2c-2-1.2-8.5-4.7-14.6-7.6-20.2-9.8-31-12.4-55.5-13.2-19.5-.6-32.3.8-49.1 5.2-15.8 4.2-14.3 4.4-16.4-1.2-5.9-15.8-23.9-34.5-52.5-54.3-40-27.8-59.7-43.4-89.5-71.1-18.6-17.3-33-31.7-41.2-41.2-2.2-2.6-4.5-4.7-5-4.7-.9 0-8.1 41-12.4 70.5-2.9 20.5-5.9 56-6.6 80-1.5 50.9 6.4 84.9 24.8 108.2 2.8 3.5 6 6.9 7.1 7.7 1.9 1.4 1.9 1.5-1.5 5.9-4.5 5.9-8.3 14-10.3 21.9-2.5 9.6-1.5 28.1 2 37.1 4.1 10.8 8.2 17.9 14.8 25.3 12.1 13.7 24.4 20.7 40.1 22.9 3.2.4 4.7 1.1 4.3 1.8-8.2 19-11 33.7-11 56.7.1 20.5 2.5 34.7 9.5 54.6 11 31.4 24.3 52.8 47.4 75.9 13.1 13.1 22 20 60.5 47 40.9 28.7 71.1 53.6 95.5 78.6 26 26.6 39.4 45.5 55.1 77.3 4.3 8.6 8.1 15.6 8.5 15.6.4 0 2.2-2.8 3.9-6.3 12-23.1 34.5-54.2 62.5-86.3 15.4-17.7 49.3-47.9 69.5-61.9 12.7-8.8 39.2-27.9 50.5-36.4 34.8-26.1 54.8-48.8 70.3-79.6 14.2-28.4 20-51 20.9-81.5.6-19.4-.4-30-4.2-44.9-1.4-5.2-2.3-9.7-2-9.9.2-.2 3.2-1.1 6.5-1.9 11.5-2.6 20.6-7.9 30.1-17.3 9.6-9.5 15.3-18.5 19.6-30.6 2.5-7.2 2.7-9.1 2.7-22.4 0-13.3-.2-15.2-2.7-22.5-1.6-4.4-3.9-9.9-5.3-12.2l-2.4-4.2 5.9-8.1c18.8-26.4 26.1-56.4 26.1-107.4 0-18.9-1.4-47-3.1-61.6-3.7-33.2-12-91.5-13.2-92.6-.2-.2-6.5 6.1-14.1 14.1zm-389.1 174.6c21.5 2.6 41.9 10.1 58.3 21.2 4.5 3.2 8.6 5.7 9 5.7.4 0 4.5-2.3 9.2-5.1 16.4-10 34.5-17 52-20.3 12.1-2.3 36-3.1 51-1.7 30.3 2.9 45 6.5 64.5 15.6 5 2.3 9.6 4.4 10.3 4.6.7.2-3.5 3.1-9.3 6.4-14.5 8.2-22.6 14.5-28.9 22.4-5.3 6.6-5.4 6.7-15.4 10-13.9 4.5-39.2 17.3-54.2 27.2-15.8 10.5-33.6 27.9-42.9 41.9-6.9 10.3-14.8 25.5-20.6 39.5-4.1 10-13.5 37.8-13.5 40.1 0 .8-.4 1.4-1 1.4-.5 0-1-.6-1-1.3 0-1.8-8.3-27.9-12.5-39.2-16.6-45.1-46.4-77.9-90.5-99.9-6.9-3.4-16.5-7.5-21.4-9.2-8.6-2.8-9-3.1-14.9-10.2-7.8-9.4-16.2-15.7-31.1-23.3l-11.9-6.1 8.7-3.9c18.3-8.1 36.2-13.2 54.5-15.4 13.4-1.6 39.8-1.8 51.6-.4zm266.7 76.8c10.8 11.7 17.4 25 20.4 40.9 1.8 9.7 1.4 23-.9 31.7l-1.3 5 6.7 8.4c10.7 13.2 18.1 30.5 21 49.5 1.9 11.8.6 36.2-2.5 48-5.9 22.2-15.3 40-29.9 56.1-21 23.4-47.9 36.5-81.2 39.6-6.6.6-15 .8-18.7.4-3.8-.3-6.8-.3-6.8 0 0 1.2 16.4 8.3 23 10 3.6.9 9.4 2 12.9 2.3l6.3.7-6.7 7.3c-22.1 23.8-61.2 51.8-94.3 67.4-10.2 4.8-42.3 17.8-44 17.8-.5 0-8.3-3-17.3-6.6-30.7-12.3-58.6-27-77.3-40.8-10.6-7.8-29.9-25-38.6-34.3l-7.2-7.7 8.4-1.2c4.6-.7 11-2.2 14.3-3.5 7-2.6 19.5-9.7 19.5-11.1 0-.6-.8-.7-1.7-.4-3.5 1.4-27 1.8-35.5.7-38.6-5.2-73.3-27.9-94.8-61.9-16.6-26.3-22.5-62.1-15-91.6 4.4-17.8 12.4-32.5 24.3-45.3l6-6.4-1.7-7.5c-5.1-23.5 1.6-44.7 21.2-67.2 3-3.4 5.8-6.2 6.3-6.2s.9 1.6.9 3.5c0 5 3.5 14.8 7.4 20.9 9.2 14.4 22.5 21.4 57 30.1 20.5 5.2 28.7 8 39.1 13.2 28.3 14.3 51.1 46.2 53 74.3.4 6.3.4 6.4-.6 2-5-21.8-14.5-39.4-29.1-53.7-17.4-17.2-34.7-24.9-58.3-26-26.2-1.2-50.3 7.5-69.2 25.1-13.1 12.2-21.8 27.1-26.4 45.1-3.2 12.9-3.2 34.2 0 47 7.5 29.3 27.8 54.5 54.3 67.3 12.3 6 22 8.3 37.3 8.9 14.8.6 23.6-.7 36-5.6 15.2-5.9 20.6-9.9 41.5-31.1 19.9-20.1 26.7-25.6 35.9-28.5 12.6-4.2 21.3-.2 38.5 17.5 32.3 33.3 35.5 35.9 51.1 42 11.5 4.4 20.7 6 34.2 6 27.6 0 49.4-9 68.9-28.5 14-14 23.4-30.2 28-48.5 2.8-10.9 2.5-34.4-.4-45.3-10-36.7-37.1-63.4-71.5-70.3-11.5-2.4-30.3-1.5-41.2 1.9-22.4 6.9-38.5 18.4-52 37.2-5.7 7.9-14.1 25.4-15.9 33-.8 3.3-1.7 7.3-2.1 9-1.6 6.5-1.5.1 0-7.6 4.1-20.1 14.3-38.5 29.2-53.2 16.2-15.9 30.8-22.3 70.3-31.2 33.2-7.4 44.7-13.3 54.1-27.8 3.9-6 5.4-11 6.5-21.5.3-3.4 1-6.2 1.4-6.2.4 0 3.7 3.1 7.2 6.9zm-309.6 101.2c14.9 2.7 27 12.3 34.5 27.3 4 8.1 4.3 9.2 4.7 18.9.5 11.7-.9 18.3-6 27.9-6.7 12.6-21.6 22.6-37 24.9-6.4.9-9 .8-15.9-.6-16.8-3.4-27.9-11.6-34.9-25.9-10.1-20.4-6.5-43.4 9.3-59 12-11.8 28.1-16.6 45.3-13.5zm247.5 1.5c14.3 4.3 24.6 13.7 30.9 28.4 2.8 6.5 3.9 22.6 2.1 31-2.7 12.7-13.4 26.7-25.1 32.9-18.8 10.1-41.7 7.4-57.1-6.7-6.8-6.3-11.2-13.7-13.8-23.2-7.3-26.3 6.3-52.6 31.8-61.6 8.2-2.9 22.8-3.3 31.2-.8z"/>
<g class="eyes" stroke-width="10" stroke="#9498d0">
<path d="m981.7 1102.4c-11.7 3.3-21.4 13.7-23.7 25.4-2.8 13.9.6 26.5 9.5 35.3 17.8 17.8 46.3 12.3 57.4-11.1 2.2-4.7 2.6-6.8 2.6-15 0-8.3-.3-10.2-2.7-15.1-3.4-6.9-10.6-14.2-17.2-17.6-6.2-3.2-18.3-4.1-25.9-1.9z"/>
<path d="m1223.3 1102.4c-5.3 1.4-12.9 5.8-16.8 9.8-10.1 10-13 27.4-6.9 41.3 2.8 6.6 10.4 14.4 17 17.7 4.9 2.4 6.9 2.8 14.2 2.7 7 0 9.5-.5 14.2-2.6 11.4-5.3 19.6-15.6 21.7-27.5 4-21.8-11.2-41.1-32.9-41.9-4.1-.2-8.8 0-10.5.5z"/>
</g>
<path d="m1093.3 1212.3-19.7 19.4 10 15.4c12.9 20.1 27.9 42.9 29.6 45.3 1.4 1.8 1.8 1.4 7.2-6.5 14.6-21.6 33.6-51.7 33.6-53.4 0-3-36.3-39.5-39.2-39.5-1 0-10.6 8.6-21.5 19.3z"/>

</svg>