<?xml version="1.0" encoding="UTF-8"?>
<!DOCTYPE svg PUBLIC "-//W3C//DTD SVG 1.1//EN" "http://www.w3.org/Graphics/SVG/1.1/DTD/svg11.dtd">
<!-- Creator: CorelDRAW (Evaluation Version) -->
<svg xmlns="http://www.w3.org/2000/svg" xml:space="preserve" width="85.6mm" height="53.98mm" version="1.1" style="shape-rendering:geometricPrecision; text-rendering:geometricPrecision; image-rendering:optimizeQuality; fill-rule:evenodd; clip-rule:evenodd"
viewBox="0 0 8560000 5398000"
 xmlns:xlink="http://www.w3.org/1999/xlink"
 xmlns:xodm="http://www.corel.com/coreldraw/odm/2003">
 <defs>
  <style type="text/css">
   <![CDATA[
    .str0 {stroke:black;stroke-width:26460;stroke-miterlimit:2.61313}
    .fil0 {fill:none;fill-rule:nonzero}
   ]]>
  </style>
 </defs>
 <g id="Layer_x0020_1">
  <metadata id="CorelCorpID_0Corel-Layer"/>
  <path class="fil0 str0" d="M999900 1381220c0,-54730 -44330,-99580 -99630,-99580 -55030,0 -100030,44510 -99630,99580 400,55070 44950,99650 99630,99590 54680,-60 99630,-44590 99630,-99590m591800 -298760l1898930 10c91040,-10 172590,40700 227410,104890 323010,181190 720490,259830 1170170,268280l2304530 37300 76120 -104620 118760 192590 -3673800 -990c-54740,61380 -134460,100050 -223190,100050l-2913160 10c-165040,-10 -298890,-133790 -298890,-298760l0 0c0,-164970 133850,-298760 298890,-298760l1014230 0"/>
  <path class="fil0 str0" d="M3715980 2444850c-52550,64700 -135450,102510 -225350,102510l-2913160 0c-165040,0 -298890,-133790 -298890,-298760 0,-164970 133850,-298750 298890,-298750l2913160 0c88330,0 167720,38310 222570,99260 189890,64320 381790,102660 591680,123290l2361730 31220 97770 -65110c11450,-7620 20990,-9060 33390,-1350l117930 73230 112450 -83330c7410,-5490 14400,-7360 21140,-3260l134930 82010 107650 -43080c10500,-4200 14760,-3860 26780,730l112000 42750 92990 -72100c11210,-8690 20400,-9750 32670,-380l97260 74230 106980 -44460c13850,-5750 20830,-6230 36720,220l117560 47680 95460 -83540c11300,-9880 25540,-13960 38320,-2920l176480 152450 -4509110 167460m-2716080 -196250c0,-54990 -44610,-99580 -99630,-99580 -55030,0 -99630,44590 -99630,99580 0,55000 44600,99590 99630,99590 55020,0 99630,-44590 99630,-99590"/>
  <path class="fil0 str0" d="M999900 3115990c0,55000 -44610,99580 -99630,99580 -55030,0 -99630,-44580 -99630,-99580 0,-55000 44600,-99590 99630,-99590 55020,0 99630,44590 99630,99590m2716870 195340l2954800 3830 199000 0 199000 0 201460 0 199820 0 200640 0 174440 0 173050 0 253870 0 0 -398340 -253150 0 -173040 0 -176490 0 -198260 0 -198850 0 -203560 0 -197090 0 -201200 0 -2953590 4820c-54820,-63910 -136180,-104410 -226990,-104410l-2913160 0c-165040,0 -298890,133790 -298890,298760l0 0c0,164970 133850,298750 298890,298750l2913160 0c90330,0 171330,-40080 226140,-103410"/>
  <path class="fil0 str0" d="M3712370 4183690c-54700,60450 -133790,98440 -221740,98440l-2913160 0c-165040,0 -298890,-133790 -298890,-298760l0 10c0,-164980 133850,-298760 298890,-298760l2913160 0c89800,0 170220,39720 223560,101140l2924220 109290c293270,11160 595960,58810 654800,-110430 14530,-48230 97170,-49780 83590,0 -21880,132580 -139570,216870 -393830,236100l-3270600 162970m-2712470 -200310c0,-55000 -44610,-99590 -99630,-99590 -55030,0 -99630,44590 -99630,99590 0,55000 44600,99580 99630,99580 55020,0 99630,-44580 99630,-99580"/>
  <polyline class="fil0 str0" points="278580,215080 7683050,215080 8280820,215080 8280820,2001270 7683050,2001270 7682690,812590 278580,812590 278580,215080 "/>
  <polyline class="fil0 str0" points="7683440,4552010 278580,4552010 278580,5149520 8280820,5149520 8280820,3655740 7984320,3655740 7983280,3903560 7683050,3903410 7683440,4552010 "/>
  <path class="fil0 str0" d="M999900 4850760c0,131110 -197340,131100 -199260,0 -1920,-130890 192780,-131340 199260,0"/>
  <path class="fil0 str0" d="M999900 513780c0,131110 -197340,131100 -199260,0 -1920,-130890 192780,-131340 199260,0"/>
 </g>
</svg>
