<svg xmlns="http://www.w3.org/2000/svg" viewBox="0 0 210 70"><g fill="black"><polygon points="10,10 20,10 20,30 30,30 30,40 20,40 20,60 10,60 10,10"></polygon>
<polygon points="40,10 50,10 50,60 40,60 40,30 30,30 30,20 40,20 40,10"></polygon>
<polygon points="60,10 100,10 100,60 60,60 60,10 70,20 70,30 90,30 90,20 70,20 70,40 70,50 90,50 90,40 70,40"></polygon>
<polygon points="110,10 150,10 150,20 120,20 120,50 150,50 150,60 110,60 110,10"></polygon>
<polygon points="160,10 170,10 170,30 190,30 190,10 200,10 200,60 190,60 190,40 170,40 170,60 160,60 160,10"></polygon></g></svg>